<svg version="1.1" id="Layer_1" xmlns="http://www.w3.org/2000/svg" xmlns:xlink="http://www.w3.org/1999/xlink" x="0px" y="0px"
	 width="100%" viewBox="0 0 496 496" enable-background="new 0 0 496 496" xml:space="preserve">
<path fill="#000000" opacity="1.000000" stroke="none" 
	d="
M286.699951,123.257355 
	C282.022278,123.449669 278.013519,122.443825 274.163879,120.771568 
	C270.149078,119.027557 266.942139,116.530579 266.748779,111.680878 
	C266.572113,107.249672 269.580261,105.265167 273.424347,103.833366 
	C272.299744,99.572571 273.032959,96.072914 277.478943,94.418541 
	C276.816284,92.426476 276.102936,90.902428 275.810669,89.301506 
	C274.077423,79.807785 282.407074,73.389572 292.102844,76.811279 
	C294.764648,77.750648 297.133148,79.530983 299.258820,75.839188 
	C300.272278,74.079132 301.982422,75.210754 303.115295,76.181305 
	C304.733826,77.567886 303.819397,79.302559 302.648132,79.987686 
	C299.184540,82.013664 299.313141,84.771507 299.494080,88.316895 
	C299.842468,95.144302 293.232544,99.888092 286.161713,98.811317 
	C283.831482,98.456467 280.169220,95.714287 279.253113,99.363586 
	C278.288239,103.207169 282.981415,102.473213 285.266449,103.581512 
	C286.590271,104.223587 288.134216,104.399284 289.559631,104.846809 
	C293.826569,106.186455 297.243958,108.465240 297.169342,113.464493 
	C297.095520,118.410019 294.228790,121.399437 289.570282,122.744156 
	C288.777161,122.973091 287.948059,123.077225 286.699951,123.257355 
M282.799500,117.821716 
	C284.596863,117.704132 286.440613,117.794373 288.177795,117.406944 
	C289.724976,117.061890 290.561279,115.740082 290.733612,114.108833 
	C290.888855,112.639107 290.373169,111.415527 289.022400,110.847511 
	C285.225891,109.251022 281.349243,107.816566 277.217621,107.428368 
	C275.197632,107.238564 273.843292,108.444466 273.022339,110.281601 
	C272.082977,112.383698 273.166565,113.787514 274.658691,114.969330 
	C276.785614,116.653923 279.326111,117.353027 282.799500,117.821716 
M293.984589,88.822105 
	C294.999115,84.155907 292.431549,82.082939 288.359589,81.299843 
	C284.908173,80.636078 282.494781,82.182892 281.567963,85.500183 
	C280.627838,88.865150 281.318787,91.862511 285.051208,93.098389 
	C288.868652,94.362442 292.291718,94.170578 293.984589,88.822105 
z"/>
<path fill="#000000" opacity="1.000000" stroke="none" 
	d="
M143.087280,355.096069 
	C139.801788,359.306854 136.700928,363.218109 133.647324,367.165863 
	C131.806244,369.546082 130.519333,372.066956 133.114426,374.727325 
	C135.658493,377.335297 138.600723,378.449982 142.112488,376.601105 
	C145.308990,374.918213 147.378357,372.058746 149.582642,369.358948 
	C151.792496,366.652313 153.914261,363.873810 156.076889,361.128601 
	C157.327789,359.540710 158.646851,358.513123 160.643555,360.162048 
	C162.668747,361.834564 161.738953,363.345856 160.535675,364.873047 
	C157.034744,369.316376 153.468689,373.709412 150.025421,378.196747 
	C147.721756,381.198944 145.519318,384.332428 149.426956,387.766663 
	C152.586716,390.543640 156.820084,390.535126 160.144379,387.052979 
	C164.038300,382.974152 167.475296,378.453094 171.026932,374.056396 
	C172.501892,372.230499 173.859406,370.579987 176.272858,372.694580 
	C178.680389,374.803955 176.559082,376.273254 175.431839,377.722107 
	C170.426331,384.155579 165.349548,390.533783 160.272552,396.911285 
	C159.285187,398.151520 158.490936,400.076508 156.359451,398.974609 
	C154.341675,397.931549 153.107254,396.447205 155.255295,394.152283 
	C145.984100,393.664337 142.409500,390.516022 140.886871,381.575623 
	C136.529938,382.137573 132.445374,381.497314 129.052979,378.232086 
	C125.443153,374.757660 124.316689,370.708557 127.167366,366.591370 
	C131.514557,360.312805 136.395645,354.403290 141.067856,348.350861 
	C142.169510,346.923798 143.386978,346.728668 144.906326,347.912537 
	C146.542877,349.187714 146.893250,350.463928 145.492065,352.096954 
	C144.733841,352.980652 144.023682,353.905579 143.087280,355.096069 
z"/>
<path fill="#000000" opacity="1.000000" stroke="none" 
	d="
M105.723396,351.107605 
	C102.405617,347.400757 102.331688,343.332489 103.273605,338.811707 
	C99.118347,338.101318 95.915649,336.213409 93.782661,332.741272 
	C90.615295,327.585388 91.159592,323.146606 96.079857,319.620087 
	C101.761894,315.547546 107.757378,311.911591 113.625801,308.100037 
	C116.701065,306.102631 118.139450,307.701508 119.243729,311.205841 
	C113.808929,314.731628 108.239113,318.289032 102.731407,321.940125 
	C99.688522,323.957275 96.022720,325.821228 98.519806,330.544678 
	C100.649673,334.573456 104.535576,335.810730 109.246094,333.797089 
	C114.482452,331.558624 119.052063,328.141205 123.747795,324.988525 
	C127.117928,322.725861 128.887329,323.534882 129.789490,327.916290 
	C124.211220,331.532227 118.506607,335.224213 112.808487,338.926178 
	C109.916252,340.805145 107.049042,342.695526 109.067047,346.899139 
	C110.939949,350.800537 114.809532,352.388000 119.084297,350.702179 
	C124.708176,348.484283 129.389359,344.610870 134.542862,341.562195 
	C136.229706,340.564301 137.841980,338.919281 139.481567,341.734192 
	C140.970352,344.290161 139.275391,345.355438 137.534073,346.474182 
	C130.665970,350.886749 123.814682,355.326263 116.904083,359.671356 
	C115.458221,360.580444 113.961952,362.049713 112.052124,360.109924 
	C110.301300,358.331635 111.502228,356.888000 112.476616,355.327057 
	C110.031258,354.196533 107.641365,353.367279 105.723396,351.107605 
z"/>
<path fill="#000000" opacity="1.000000" stroke="none" 
	d="
M400.943665,338.767120 
	C399.122589,341.082520 396.774719,342.041321 394.259003,343.501007 
	C397.157745,346.522675 400.979248,347.772034 404.163330,349.937561 
	C405.790161,351.044067 407.968689,351.824768 406.231140,354.488647 
	C404.697693,356.839691 402.991119,356.103638 401.119781,354.984741 
	C390.416229,348.584991 379.675720,342.246674 368.999969,335.801056 
	C367.564545,334.934326 365.430664,334.278809 366.137817,331.758728 
	C366.797211,329.408905 368.651123,329.020599 370.694336,329.172516 
	C371.053040,320.273071 374.344543,314.742035 380.179535,313.019012 
	C386.726532,311.085754 396.480438,315.116608 401.647980,321.891022 
	C405.419922,326.835846 405.275970,331.913116 400.943665,338.767120 
M391.506958,320.875427 
	C383.794189,317.187286 379.583954,317.758362 376.801880,322.869995 
	C373.890961,328.218414 375.691193,332.925262 382.145691,336.842194 
	C388.444885,340.664886 393.735291,340.094604 397.076630,335.232666 
	C400.392242,330.408142 398.865601,326.090698 391.506958,320.875427 
z"/>
<path fill="#000000" opacity="1.000000" stroke="none" 
	d="
M357.664856,123.663330 
	C359.463165,121.899651 360.949219,120.315392 362.575470,118.891266 
	C363.862061,117.764580 364.907837,115.605339 367.122040,116.831276 
	C369.326447,118.051788 369.824615,120.021240 368.051605,122.259911 
	C371.873749,123.228691 375.037628,124.106522 377.531799,126.584740 
	C381.997406,131.021790 383.040009,136.401505 380.291992,142.072144 
	C378.351959,146.075531 375.287323,149.159149 371.742432,151.682373 
	C362.908447,157.970367 352.961456,154.629868 349.435028,144.321503 
	C349.114349,143.384033 348.800171,142.444336 348.241180,140.790161 
	C345.174805,143.777542 342.376801,146.506317 339.575378,149.231598 
	C338.178680,150.590363 336.803650,151.736618 334.956696,149.772720 
	C333.224335,147.930664 334.025269,146.495193 335.495941,145.075562 
	C342.802795,138.022171 350.107574,130.966629 357.664856,123.663330 
M368.147064,127.101418 
	C364.984863,126.771187 362.307556,127.817207 359.869690,129.807068 
	C353.064575,135.361588 351.650421,141.601395 356.212372,146.291321 
	C360.563354,150.764282 366.690460,149.521408 372.451447,142.997253 
	C378.011780,136.700409 376.669250,130.686646 368.147064,127.101418 
z"/>
<path fill="#000000" opacity="1.000000" stroke="none" 
	d="
M418.305786,316.307373 
	C419.873199,311.342316 421.185028,306.692871 422.880585,302.187836 
	C424.059906,299.054413 423.146637,297.507446 420.064301,296.758606 
	C417.357056,296.100922 414.824158,294.704407 411.716431,294.758789 
	C409.433655,298.853394 408.709869,303.506226 407.032104,307.798370 
	C406.407501,309.396362 406.118378,311.765228 403.495453,311.015106 
	C400.611115,310.190216 401.575348,307.943024 402.136993,306.082367 
	C403.428955,301.802032 404.844208,297.558899 406.263428,293.132202 
	C402.602661,290.521667 398.441925,289.944489 394.574036,288.690247 
	C392.393951,287.983337 391.738708,289.713287 391.195282,291.388580 
	C389.708588,295.971954 388.213745,300.552979 386.667938,305.116608 
	C386.142212,306.668732 385.727142,308.532684 383.327271,307.758331 
	C381.145203,307.054230 381.255402,305.360504 381.781342,303.691376 
	C383.878479,297.035980 386.060333,290.407318 388.190735,283.762329 
	C388.853668,281.694489 389.942474,280.783997 392.271118,281.544464 
	C403.958771,285.361298 415.675140,289.090240 427.387329,292.831665 
	C429.666473,293.559723 430.667511,294.836609 429.830200,297.313690 
	C427.648560,303.767944 425.746399,310.324310 423.344421,316.693451 
	C422.011719,320.227264 419.922699,320.422943 418.305786,316.307373 
z"/>
<path fill="#000000" opacity="1.000000" stroke="none" 
	d="
M127.001144,112.007347 
	C135.965103,114.034477 140.655975,118.981117 140.558350,125.900368 
	C140.448761,133.669373 133.671356,137.233582 129.662598,142.757812 
	C132.766922,145.925049 135.738068,149.003845 138.766144,152.025558 
	C140.246338,153.502640 140.916855,154.858078 139.208633,156.701553 
	C137.455399,158.593582 136.132919,157.903122 134.618805,156.439590 
	C125.892235,148.004578 117.128387,139.608139 108.388176,131.187195 
	C107.317734,130.155869 105.695053,128.786621 107.103447,127.432564 
	C113.095375,121.671829 117.265999,113.539032 127.001144,112.007347 
M114.613235,128.274857 
	C115.922325,129.763306 117.148796,131.335251 118.554382,132.726212 
	C125.842339,139.938309 125.858253,139.922226 132.350235,132.049881 
	C135.675323,128.017838 135.634384,124.437759 132.223557,120.968712 
	C128.640182,117.324181 124.713058,117.076683 120.722366,120.490402 
	C118.333817,122.533615 116.030334,124.727196 114.613235,128.274857 
z"/>
<path fill="#000000" opacity="1.000000" stroke="none" 
	d="
M211.210190,392.147217 
	C218.375961,386.726562 225.592438,387.463989 232.593170,391.275726 
	C239.863541,395.234314 241.949173,402.245331 241.795273,409.939423 
	C241.705658,414.418701 240.652908,418.825165 238.530533,422.896118 
	C232.780701,433.924988 218.142090,436.973022 208.569199,429.008545 
	C207.203644,427.872406 206.136734,426.283173 205.214081,424.735291 
	C204.286087,423.178375 203.358551,421.380676 205.659805,420.011322 
	C207.807022,418.733673 208.955383,419.791168 210.006409,421.651245 
	C212.952103,426.864563 217.884811,428.068268 223.291794,427.558136 
	C228.731537,427.044891 231.844635,423.375610 233.519226,418.508698 
	C235.319687,413.276031 236.467590,407.941345 234.618683,402.400818 
	C233.161774,398.035004 230.113876,395.355682 225.758133,394.496979 
	C221.260208,393.610168 216.725204,393.487640 213.475616,397.746185 
	C212.291702,399.297699 211.258408,401.591003 208.840790,399.511841 
	C206.758530,397.720978 208.058334,395.908875 209.272018,394.255127 
	C209.761124,393.588715 210.373108,393.012512 211.210190,392.147217 
z"/>
<path fill="#000000" opacity="1.000000" stroke="none" 
	d="
M386.753754,157.418488 
	C381.310486,160.377899 376.248505,163.233948 371.207397,166.126328 
	C369.557190,167.073151 368.059082,168.123795 366.622803,165.718994 
	C365.321686,163.540451 366.269958,162.413574 368.086945,161.324005 
	C379.204956,154.656998 390.299591,147.950958 401.399872,141.254395 
	C403.077698,140.242188 404.638031,139.498215 406.017792,141.778809 
	C407.357758,143.993607 406.180176,145.122665 404.448273,146.170990 
	C400.951965,148.287262 397.471680,150.430038 393.530945,152.839355 
	C395.479401,153.784439 396.853180,154.305771 398.076965,155.067932 
	C405.883484,159.929718 406.443909,169.217743 398.981232,174.421661 
	C393.538483,178.217026 387.683685,181.421143 382.016663,184.895477 
	C380.438171,185.863220 379.057617,186.259338 377.822632,184.274124 
	C376.520355,182.180756 377.243683,180.959930 379.143341,179.849411 
	C383.590942,177.249405 388.078003,174.699387 392.375427,171.865784 
	C395.560303,169.765778 399.991882,168.145737 398.041290,162.791077 
	C396.396027,158.274689 393.192596,156.721817 386.753754,157.418488 
z"/>
<path fill="#000000" opacity="1.000000" stroke="none" 
	d="
M140.336105,104.605682 
	C139.158173,102.755394 138.201324,101.195168 137.201035,99.663315 
	C136.206741,98.140648 135.603317,96.775429 137.584702,95.439728 
	C139.662079,94.039314 140.947876,94.868454 142.101883,96.642853 
	C144.274216,99.983070 146.469055,103.308647 149.120895,107.351265 
	C150.815277,103.421959 152.571060,100.174377 156.037460,98.254898 
	C161.638931,95.153160 166.300873,95.618324 170.127975,100.735291 
	C174.204422,106.185623 177.727493,112.050255 181.481583,117.740997 
	C182.610367,119.452103 183.044449,121.050919 180.855835,122.377625 
	C178.500244,123.805550 177.530380,122.069618 176.525116,120.542786 
	C173.506775,115.958344 170.576309,111.315895 167.544373,106.740608 
	C165.263184,103.298210 162.557266,100.738373 158.052124,103.181122 
	C153.693939,105.544197 151.986145,110.053154 154.247360,114.659668 
	C156.141418,118.518211 158.700043,122.050835 160.969345,125.724724 
	C161.755615,126.997673 162.552246,128.264282 163.352005,129.528793 
	C164.516190,131.369446 164.433273,132.961655 162.451202,134.194153 
	C160.333710,135.510880 159.415695,133.885834 158.513184,132.505386 
	C153.598099,124.987488 148.726852,117.440948 143.834854,109.907944 
	C142.747635,108.233765 141.637650,106.574371 140.336105,104.605682 
z"/>
<path fill="#000000" opacity="1.000000" stroke="none" 
	d="
M343.469116,99.126297 
	C345.947998,100.277611 348.053589,101.322815 349.665558,103.057884 
	C352.909515,106.549500 354.219360,110.387115 351.407806,114.792244 
	C349.170807,118.297195 346.861786,121.756836 344.663940,125.285912 
	C343.000885,127.956261 339.952667,130.360535 343.010437,134.045441 
	C343.643127,134.807907 342.962677,135.995956 342.106964,136.643188 
	C341.169769,137.352020 340.230530,136.944687 339.311737,136.474457 
	C336.724182,135.150131 335.574982,132.857513 335.334595,129.868973 
	C330.628815,130.656982 326.789917,129.398972 323.562225,126.435219 
	C320.200958,123.348816 318.674072,119.751900 320.838440,115.273354 
	C323.085724,110.623276 326.797699,108.540054 331.787628,109.634560 
	C334.849213,110.306091 337.750702,111.677757 340.785889,112.509491 
	C342.870178,113.080650 345.312897,113.580338 346.484192,111.030350 
	C347.694214,108.396034 345.953125,106.702538 344.002563,105.173653 
	C340.829102,102.686249 337.048462,103.607841 333.435577,103.394020 
	C331.873718,99.723549 333.548523,98.296562 336.756348,97.878334 
	C338.969940,97.589729 341.021942,98.411819 343.469116,99.126297 
M334.134033,125.630142 
	C338.120972,124.886154 340.371246,122.277809 342.046173,118.404068 
	C338.700439,117.136429 335.623993,115.946411 332.529205,114.806084 
	C330.102112,113.911751 328.281555,114.887482 327.001373,116.910042 
	C325.589813,119.140114 325.831390,121.351753 327.572601,123.328613 
	C329.096680,125.058960 331.068207,125.794502 334.134033,125.630142 
z"/>
<path fill="#000000" opacity="1.000000" stroke="none" 
	d="
M113.464264,298.076660 
	C109.434174,307.009644 98.383583,312.056641 89.673592,309.270660 
	C83.752060,307.376556 79.695122,301.466614 79.644394,294.660583 
	C79.599380,288.621643 82.854782,284.591309 89.313301,282.347076 
	C92.602997,281.203949 94.582085,281.692719 95.602058,285.442230 
	C97.115623,291.006134 99.073837,296.449097 100.953369,302.287018 
	C105.133026,301.088959 107.846992,298.742188 108.456367,294.859802 
	C109.089828,290.824005 107.447998,287.307190 103.972176,284.994659 
	C102.152153,283.783752 99.565155,282.887360 101.310051,280.236267 
	C102.981110,277.697357 105.374336,279.459473 106.965668,280.611725 
	C112.781960,284.823181 114.540932,290.772919 113.464264,298.076660 
M85.743317,299.677521 
	C87.986351,303.394165 90.980537,304.917450 95.562744,303.010223 
	C94.448944,297.887756 93.075211,293.071564 90.977791,288.499817 
	C84.817093,290.335846 83.579529,292.838715 85.743317,299.677521 
z"/>
<path fill="#000000" opacity="1.000000" stroke="none" 
	d="
M390.922974,204.918640 
	C392.050171,206.695419 393.350891,207.755493 394.920044,208.376465 
	C396.788666,209.115906 397.717987,210.320038 396.866974,212.222000 
	C395.898285,214.386948 393.999481,213.625732 392.538910,213.009155 
	C387.216125,210.762161 385.033508,206.066406 383.967651,200.871323 
	C382.867859,195.510849 384.741302,190.894394 389.075104,187.623672 
	C393.564819,184.235275 398.700470,182.380234 404.458160,182.694778 
	C411.742249,183.092712 417.483887,188.943512 418.231812,196.748978 
	C418.850739,203.208664 414.159332,208.888962 407.081635,210.723602 
	C404.016235,211.518204 403.331757,209.785583 402.515900,207.608292 
	C400.427612,202.035263 399.178223,196.134933 396.335663,190.869858 
	C389.317474,193.187180 387.793335,197.075745 390.922974,204.918640 
M401.985992,189.713959 
	C403.106842,194.719971 404.739502,199.539169 406.859497,204.189560 
	C412.419220,202.020157 414.005035,198.990814 412.409912,194.132233 
	C410.929718,189.623734 407.372345,187.865845 401.985992,189.713959 
z"/>
<path fill="#000000" opacity="1.000000" stroke="none" 
	d="
M82.675705,193.897888 
	C82.483170,190.374542 83.291245,187.519196 84.725883,184.827011 
	C87.476746,179.664871 91.210709,178.043335 96.753738,179.860229 
	C101.496658,181.414886 106.159927,183.213959 110.848877,184.930984 
	C112.450745,185.517563 114.107193,186.201080 115.420753,184.567596 
	C116.517204,183.204086 117.692772,182.450043 119.196205,183.658905 
	C120.892441,185.022842 120.037781,186.667053 119.296188,188.174271 
	C118.365257,190.066284 116.543251,190.971909 114.681374,191.847916 
	C115.609825,196.320343 116.030663,200.540894 113.639656,204.591309 
	C111.156219,208.798309 107.424271,210.145752 102.991913,209.074585 
	C98.558853,208.003220 95.717003,205.120880 95.648102,200.214981 
	C95.603661,197.050537 95.730316,193.915115 96.413933,190.782715 
	C96.934746,188.396393 96.729568,185.924133 93.704514,185.231766 
	C90.858559,184.580399 89.546211,186.404114 88.486694,188.746811 
	C86.820869,192.430069 88.156456,195.905106 89.028122,199.364334 
	C84.623268,201.927673 83.637596,201.116577 82.675705,193.897888 
M104.124863,203.315491 
	C109.233086,204.242661 110.559700,200.957031 110.863434,196.965240 
	C111.238953,192.029877 107.481407,188.723953 101.681953,188.571121 
	C101.260086,191.171463 100.784981,193.764587 100.430786,196.374130 
	C100.049408,199.183975 100.427238,201.714874 104.124863,203.315491 
z"/>
<path fill="#000000" opacity="1.000000" stroke="none" 
	d="
M318.725861,376.224457 
	C322.775269,369.086792 329.560699,365.201599 335.491241,366.322510 
	C343.005249,367.742706 349.119568,374.770477 350.595001,383.682617 
	C351.557587,389.497040 348.518799,395.073425 342.555725,398.434967 
	C336.206757,402.014099 329.174500,401.156952 324.390808,395.659607 
	C319.699463,390.268250 316.022614,384.317932 318.725861,376.224457 
M332.626617,371.550812 
	C325.722351,373.685608 322.518372,377.294830 323.666504,382.037781 
	C324.617615,385.966766 326.563171,389.480042 329.486145,392.321777 
	C332.602203,395.351288 336.258301,395.723328 340.022400,393.734253 
	C343.823303,391.725739 345.656403,388.377045 344.600891,384.183777 
	C343.077271,378.130676 340.095917,373.086212 332.626617,371.550812 
z"/>
<path fill="#000000" opacity="1.000000" stroke="none" 
	d="
M200.693573,383.331635 
	C208.607498,391.395142 203.321411,406.570251 194.977341,411.290985 
	C185.418869,416.698730 172.601944,409.277435 172.734726,398.239441 
	C172.825424,390.699188 175.411835,384.027252 182.369064,380.235840 
	C188.878036,376.688721 194.917145,378.843201 200.693573,383.331635 
M188.323502,407.618378 
	C194.408249,405.806122 198.379272,400.410736 198.720016,393.492676 
	C199.055496,386.681396 191.729233,381.843719 185.618698,384.841614 
	C181.865173,386.683136 177.893188,394.557678 178.395325,399.407684 
	C178.960663,404.868378 182.789352,406.801910 188.323502,407.618378 
z"/>
<path fill="#000000" opacity="1.000000" stroke="none" 
	d="
M206.165924,111.176559 
	C198.438202,116.456741 192.055466,116.962280 186.481216,112.956985 
	C181.071426,109.069862 177.379562,98.921036 178.987793,92.357674 
	C181.394287,82.536476 194.422928,77.907051 202.756317,83.846069 
	C209.226349,88.457115 214.293747,103.861549 206.165924,111.176559 
M204.658218,102.105682 
	C204.884811,98.117218 203.537003,94.531639 201.563904,91.209312 
	C198.800476,86.556183 194.407394,85.327141 189.548187,87.603203 
	C184.065552,90.171280 182.951645,95.588028 186.324203,103.180840 
	C188.043732,107.052124 190.505112,110.395599 195.086761,110.241074 
	C199.717499,110.084900 203.387177,107.870239 204.658218,102.105682 
z"/>
<path fill="#000000" opacity="1.000000" stroke="none" 
	d="
M241.863434,75.889008 
	C248.456955,70.955330 255.913651,70.340935 261.598389,74.009422 
	C266.872284,77.412788 269.514160,85.090553 268.040283,92.730446 
	C266.579071,100.304497 262.624756,104.438103 255.533981,105.803818 
	C247.283905,107.392799 239.412643,102.397186 238.004898,94.149048 
	C236.926559,87.830894 237.116760,81.497223 241.863434,75.889008 
M251.732742,77.074333 
	C244.646301,78.567596 241.389587,86.197906 244.136398,94.531891 
	C245.461365,98.551857 248.220551,100.435188 252.270920,100.658607 
	C258.283020,100.990250 261.767792,97.137604 262.337219,89.612976 
	C262.940918,81.635254 259.885956,77.709549 251.732742,77.074333 
z"/>
<path fill="#000000" opacity="1.000000" stroke="none" 
	d="
M75.832344,227.686096 
	C73.701996,220.039841 75.595833,213.158203 80.570282,209.810715 
	C82.083344,208.792511 83.695702,207.501648 85.302406,209.668823 
	C86.789139,211.674179 85.616287,212.787399 84.042976,214.160843 
	C77.537308,219.840118 79.281494,228.030350 87.439140,230.842850 
	C89.857765,231.676727 92.314148,231.808731 94.818031,231.722626 
	C98.655357,231.590668 101.683434,229.940216 103.069427,226.336792 
	C104.374260,222.944382 104.357689,219.438721 101.576218,216.570496 
	C100.104652,215.053040 98.482353,213.574356 100.840988,211.673721 
	C103.096046,209.856537 104.537636,211.813431 105.846657,213.227463 
	C112.441116,220.351181 108.957535,233.232849 99.528267,236.764252 
	C90.779434,240.040833 80.605644,236.287399 75.832344,227.686096 
z"/>
<path fill="#000000" opacity="1.000000" stroke="none" 
	d="
M346.583069,359.567078 
	C345.730469,360.599854 345.083588,361.368713 344.585205,362.224060 
	C343.746094,363.664093 342.632080,363.924866 341.231995,363.163116 
	C339.801300,362.384766 339.713257,361.158997 340.101227,359.733368 
	C341.979218,352.831970 350.939423,350.248444 356.154144,355.321350 
	C360.791931,359.833008 365.100861,364.682648 369.362488,369.180054 
	C371.826904,369.664276 373.138519,365.180542 375.679047,368.205170 
	C377.864563,370.807068 374.013733,371.746307 374.067444,374.179596 
	C375.465332,376.486816 379.712463,379.139984 373.859406,382.267059 
	C370.495789,377.271454 367.139893,378.552002 363.761658,382.478546 
	C362.770996,383.629944 361.368164,384.315643 359.928009,382.709198 
	C358.532776,381.152863 359.309845,380.076813 360.442047,378.875275 
	C362.014191,377.206909 364.110809,375.987366 365.233276,373.280365 
	C361.117249,368.929657 356.948456,364.441315 352.678741,360.051117 
	C351.015167,358.340607 349.016907,357.761505 346.583069,359.567078 
z"/>
<path fill="#000000" opacity="1.000000" stroke="none" 
	d="
M213.253632,80.517914 
	C211.355942,80.844131 210.249069,80.404655 209.960693,78.725815 
	C209.680740,77.096169 210.520142,76.142113 212.029984,75.882004 
	C214.092972,75.526604 214.945267,74.335411 214.563614,72.376793 
	C214.085556,69.923462 214.322220,67.899940 217.326096,67.712914 
	C220.376266,67.523003 219.846634,70.155548 220.328278,71.944328 
	C220.456161,72.419296 220.589066,72.892914 220.753220,73.488953 
	C223.024872,74.505295 225.275467,73.579987 227.508270,73.276825 
	C229.128632,73.056824 230.605759,72.983376 231.027542,74.967575 
	C231.512863,77.250793 229.911423,77.868782 228.152069,78.137665 
	C226.029907,78.461983 223.884369,78.643806 221.724197,79.998596 
	C222.669586,85.918106 223.467407,91.822380 224.595154,97.662941 
	C225.378021,101.717247 228.097031,102.637497 231.726410,101.066429 
	C233.560104,100.272659 235.386642,99.672195 236.252396,102.107422 
	C237.104279,104.503601 235.054276,105.294472 233.432999,106.076111 
	C226.506317,109.415527 220.702072,106.724457 219.032913,99.195389 
	C217.992233,94.501183 217.481186,89.691826 216.607864,84.957115 
	C216.266556,83.106651 216.416229,80.756042 213.253632,80.517914 
z"/>
<path fill="#000000" opacity="1.000000" stroke="none" 
	d="
M117.136482,179.082275 
	C106.483780,173.230606 96.181572,167.528549 85.897812,161.793411 
	C84.185631,160.838547 82.123901,160.046600 83.695496,157.315979 
	C85.227974,154.653305 87.027931,155.871689 88.747849,156.821274 
	C97.605385,161.711655 106.429337,166.662827 115.271935,171.580322 
	C118.010681,173.103378 120.719437,175.244781 123.482574,171.472992 
	C124.262161,170.408813 125.618271,170.652740 126.662682,171.340027 
	C128.079849,172.272598 127.735931,173.584442 127.241753,174.889130 
	C125.790527,178.720459 122.265472,180.291000 117.136482,179.082275 
z"/>
<path fill="#000000" opacity="1.000000" stroke="none" 
	d="
M306.853821,96.913010 
	C308.370819,93.349625 309.754547,90.142517 311.093414,86.916794 
	C311.799530,85.215523 313.481140,83.347916 314.667297,84.915138 
	C317.697021,88.918213 322.399994,87.487854 325.976440,89.341866 
	C327.410400,90.085213 329.522186,90.639374 329.218781,92.635521 
	C328.848572,95.070747 327.565155,96.337761 324.625702,94.993408 
	C318.437653,92.163261 315.759521,93.038589 312.517242,99.060799 
	C310.237518,103.295212 308.574707,107.857628 306.498535,112.207748 
	C305.652313,113.980736 305.344818,116.789185 302.076050,115.437050 
	C298.870056,114.110886 300.383362,112.037582 301.199585,110.103928 
	C303.010712,105.813431 304.865143,101.541214 306.853821,96.913010 
z"/>
<path fill="#000000" opacity="1.000000" stroke="none" 
	d="
M107.259346,268.110901 
	C108.868629,271.207062 108.042305,272.833313 104.885468,273.213959 
	C96.636436,274.208588 88.395462,275.274323 80.137474,276.186859 
	C78.445557,276.373810 76.460121,276.903656 75.467087,274.505371 
	C74.490791,272.147552 76.346840,271.330353 77.727997,270.057190 
	C75.067657,267.481140 73.252792,264.608276 73.641586,260.793945 
	C73.795868,259.280334 73.720215,257.639923 75.910545,257.654663 
	C77.794525,257.667328 78.870018,258.377686 79.246597,260.500214 
	C80.617653,268.227814 81.837379,268.971222 89.629913,268.969452 
	C95.446510,268.968140 101.103806,266.869263 107.259346,268.110901 
z"/>
<path fill="#000000" opacity="1.000000" stroke="none" 
	d="
M314.869354,409.927765 
	C312.378998,408.991455 312.579498,411.454254 311.538422,412.343231 
	C309.711365,413.903412 307.751282,414.979797 305.448914,415.566711 
	C303.814728,415.983307 302.376282,415.960052 301.894348,414.028442 
	C301.445526,412.229584 301.951324,410.998199 303.925323,410.147308 
	C311.074921,407.065430 312.044220,404.880829 309.546539,397.581390 
	C307.987732,393.025757 306.180359,388.553345 304.412689,384.071899 
	C303.633606,382.096741 303.571960,380.552704 305.944672,379.686707 
	C308.109283,378.896698 308.961639,380.094055 309.640259,381.825043 
	C312.853394,390.021088 316.178162,398.174500 319.291168,406.408142 
	C321.019836,410.980347 318.354919,411.068268 314.869354,409.927765 
z"/>
<path fill="#000000" opacity="1.000000" stroke="none" 
	d="
M390.891785,220.498932 
	C400.359314,218.798492 409.510895,217.324219 418.670929,215.904816 
	C420.531097,215.616592 422.381470,215.562790 423.042175,217.988464 
	C423.675476,220.313538 422.450714,221.320923 419.937073,221.783569 
	C423.481232,224.227158 424.926819,227.437485 425.118988,231.198929 
	C425.208496,232.951370 424.785004,234.630783 422.468567,234.566437 
	C420.556427,234.513351 419.709320,233.721603 419.497803,231.528061 
	C418.871368,225.032822 416.681152,223.038513 410.190186,223.391876 
	C404.915894,223.679031 399.682068,224.677307 394.424133,225.308685 
	C390.889496,225.733139 389.323486,224.403046 390.891785,220.498932 
z"/>
<path fill="#000000" opacity="1.000000" stroke="none" 
	d="
M90.000809,244.823883 
	C94.657486,244.853241 98.816772,244.853058 102.974808,244.925018 
	C104.806870,244.956726 106.215363,245.530762 106.226280,247.786972 
	C106.237122,250.028427 104.777718,250.740967 103.010620,250.756683 
	C94.196472,250.835037 85.381157,250.821564 76.566566,250.776505 
	C74.724365,250.767075 73.304298,250.022659 73.344467,247.832260 
	C73.389244,245.390991 74.958420,244.818024 77.025414,244.823639 
	C81.184547,244.834946 85.343742,244.824890 90.000809,244.823883 
z"/>
<path fill="#000000" opacity="1.000000" stroke="none" 
	d="
M368.747955,345.231110 
	C373.594452,349.320587 378.189545,353.157990 382.739258,357.048523 
	C384.288605,358.373413 385.886230,359.726929 383.771088,361.955444 
	C381.939240,363.885468 380.520813,362.774048 379.067291,361.544250 
	C372.467010,355.959686 365.880890,350.358368 359.280029,344.774475 
	C357.841034,343.557129 357.130951,342.360291 358.567322,340.564972 
	C360.158844,338.575867 361.574005,339.043579 363.169647,340.462402 
	C364.908997,342.009003 366.706573,343.490173 368.747955,345.231110 
z"/>
<path fill="#000000" opacity="1.000000" stroke="none" 
	d="
M271.613403,389.445618 
	C274.787781,388.682587 276.527527,389.960327 276.972992,392.652008 
	C277.274292,394.472443 276.126190,395.782166 274.361298,396.384552 
	C272.601044,396.985382 271.022552,396.615753 269.981628,395.053680 
	C268.514343,392.851654 269.050781,390.992889 271.613403,389.445618 
z"/>
<path fill="#000000" opacity="1.000000" stroke="none" 
	d="
M398.976135,259.527161 
	C397.348145,261.940918 395.521606,262.624908 393.383850,260.998718 
	C391.953949,259.911041 391.452362,258.328583 392.169891,256.611206 
	C392.944153,254.758041 394.447968,253.620804 396.438721,254.128082 
	C398.944733,254.766632 399.570770,256.754059 398.976135,259.527161 
z"/>
<path fill="#000000" opacity="1.000000" stroke="none" 
	d="
M390.248596,364.050049 
	C394.970795,365.533691 396.073517,368.092712 393.345276,370.378937 
	C391.569336,371.867218 389.580475,371.938354 388.138275,370.090271 
	C386.125549,367.511139 387.260559,365.533508 390.248596,364.050049 
z"/>
<path fill="#000000" opacity="1.000000" stroke="none" 
	d="
M67.880692,247.994659 
	C67.032310,250.833237 65.352776,251.777267 62.899689,251.030167 
	C61.288319,250.539413 60.650387,249.226349 60.704967,247.594879 
	C60.766949,245.742203 61.705078,244.318390 63.496613,244.049484 
	C66.045502,243.666916 67.407066,245.212082 67.880692,247.994659 
z"/>
</svg>