<svg version="1.1" id="Layer_1" xmlns="http://www.w3.org/2000/svg" xmlns:xlink="http://www.w3.org/1999/xlink" x="0px" y="0px"
	 width="100%" viewBox="0 0 496 496" enable-background="new 0 0 496 496" xml:space="preserve">
<path fill="#000000" opacity="1.000000" stroke="none" 
	d="
M304.487061,88.663635 
	C300.151398,91.783417 295.836823,91.746048 291.360962,90.154579 
	C289.626038,89.537720 287.552612,88.635895 286.705994,91.070137 
	C285.905334,93.372299 287.889130,94.231819 289.679443,94.850708 
	C292.505035,95.827492 295.393250,96.635933 298.179413,97.711311 
	C303.201630,99.649765 305.712677,103.304741 305.053497,107.423866 
	C304.283081,112.238098 300.608978,115.687447 295.575989,116.248444 
	C290.290466,116.837585 285.322571,115.627823 280.620880,113.309883 
	C276.540710,111.298370 273.465210,108.529839 273.542755,103.421860 
	C273.614746,98.681252 276.781921,96.888802 280.986877,95.670593 
	C279.904541,91.337944 280.037659,87.473526 285.353790,86.113579 
	C284.759247,84.233795 284.052460,82.708313 283.814758,81.112938 
	C283.137360,76.566635 284.084015,72.455269 287.903595,69.496750 
	C292.184357,66.181046 296.910248,66.277206 301.539215,68.481079 
	C304.247314,69.770386 306.487946,71.227493 308.714417,67.783569 
	C309.783569,66.129738 311.404327,66.906113 312.621155,67.911263 
	C314.222260,69.233871 313.480347,70.688293 312.379547,71.777367 
	C311.101532,73.041756 309.561035,74.040817 307.933655,75.311882 
	C309.157715,80.116508 308.902222,84.755302 304.487061,88.663635 
M290.411652,101.174347 
	C288.989716,100.730499 287.557953,100.315468 286.147888,99.836693 
	C283.375305,98.895279 281.123901,99.616447 279.906860,102.258247 
	C278.571838,105.156197 280.476440,107.052933 282.664246,108.386322 
	C286.157074,110.515068 290.061188,111.183784 294.132843,110.774826 
	C296.311371,110.556007 297.985657,109.532738 298.470123,107.321548 
	C299.009766,104.858528 297.275970,103.719322 295.358551,102.896980 
	C293.992798,102.311226 292.560638,101.880325 290.411652,101.174347 
M302.757629,80.123619 
	C303.536133,76.033783 301.430298,73.838303 297.812103,72.708435 
	C294.961243,71.818176 292.572662,72.474197 290.797943,75.002266 
	C288.354584,78.482803 288.968933,82.572197 292.260254,84.549271 
	C296.502563,87.097588 300.219238,85.789490 302.757629,80.123619 
z"/>
<path fill="#000000" opacity="1.000000" stroke="none" 
	d="
M153.921021,371.719299 
	C149.861481,376.822388 146.030991,381.637665 142.190857,386.445251 
	C139.876404,389.342804 138.020966,392.252075 141.466721,395.615173 
	C144.355759,398.434937 148.879303,398.630157 152.400070,395.905060 
	C155.726120,393.330688 158.071960,389.850006 160.656845,386.597290 
	C162.002106,384.904480 163.347000,383.210571 164.730774,381.549408 
	C166.140366,379.857269 167.460831,377.980804 169.958939,380.263947 
	C172.183044,382.296692 170.712311,383.771393 169.442413,385.348053 
	C165.269485,390.529053 161.090622,395.705261 156.921478,400.889282 
	C155.671005,402.444183 154.544693,404.113434 153.176697,405.554871 
	C152.027603,406.765656 151.144775,408.902679 148.747894,407.488556 
	C146.428314,406.119934 146.923264,404.312805 148.065369,402.404907 
	C139.064178,402.220825 136.776703,400.506622 133.606720,391.293915 
	C132.930771,389.329407 131.571884,389.344421 130.080688,389.392059 
	C124.465782,389.571228 120.375832,386.975494 118.048180,382.084564 
	C115.779984,377.318573 118.368156,373.452942 121.291687,369.835846 
	C125.772484,364.291992 130.216354,358.718323 134.587479,353.267609 
	C139.945068,355.391754 140.129028,355.988495 137.091187,359.767517 
	C133.340424,364.433350 129.607285,369.113525 125.888908,373.805237 
	C123.702660,376.563782 121.898338,379.440674 125.259178,382.545624 
	C128.505890,385.545135 132.168671,385.723969 135.767487,383.323456 
	C139.857651,380.595184 142.275055,376.253265 145.452988,372.644379 
	C146.770279,371.148468 147.922974,369.508636 149.176117,367.954865 
	C150.125137,366.778168 151.071655,365.441711 152.865128,366.569031 
	C154.778809,367.771820 155.920303,369.229279 153.921021,371.719299 
z"/>
<path fill="#000000" opacity="1.000000" stroke="none" 
	d="
M83.873688,327.125000 
	C90.529007,320.935760 98.268547,316.937347 105.442200,312.118774 
	C106.872673,311.157959 108.211334,311.272919 109.311653,312.841614 
	C110.527229,314.574554 110.229538,315.965240 108.540001,317.070190 
	C103.384171,320.441833 98.219307,323.800262 93.026047,327.113861 
	C89.564568,329.322479 86.670540,331.767303 88.985298,336.403320 
	C90.799057,340.035950 95.383179,341.428955 99.790527,339.612427 
	C105.378189,337.309418 109.952248,333.286102 115.143005,330.301178 
	C116.950928,329.261566 118.770142,327.458221 120.641174,330.320129 
	C122.502419,333.167175 120.266098,334.137634 118.462059,335.306305 
	C113.291687,338.655640 108.107979,341.984344 102.926659,345.316772 
	C100.162888,347.094299 98.329636,349.374847 99.712769,352.807861 
	C101.003571,356.011658 103.410431,357.788025 107.056374,357.770996 
	C110.067795,357.756958 112.506790,356.345612 114.911926,354.874298 
	C119.173141,352.267456 123.369041,349.552826 127.566978,346.844147 
	C129.309036,345.720154 130.570282,345.965240 131.725266,347.756226 
	C132.895889,349.571411 132.495605,350.857574 130.801987,351.940277 
	C122.805580,357.052063 114.801666,362.152130 106.812988,367.276001 
	C105.321327,368.232697 104.154648,368.193207 102.941269,366.712067 
	C101.402405,364.833557 102.120522,363.426666 103.632286,362.061462 
	C94.424713,357.926514 92.040878,353.722534 94.146477,344.917969 
	C88.690208,343.805084 84.571815,340.933167 82.519424,335.460724 
	C81.397964,332.470428 82.021179,329.931915 83.873688,327.125000 
z"/>
<path fill="#000000" opacity="1.000000" stroke="none" 
	d="
M385.270386,120.511047 
	C392.204041,125.823601 394.188171,131.597183 391.538635,138.003189 
	C388.259430,145.931564 377.823151,153.079468 370.899719,152.138992 
	C364.215240,151.230988 359.127075,145.335434 357.882202,136.563156 
	C354.622253,139.556671 351.613617,142.343796 348.575989,145.098938 
	C346.936676,146.585800 345.307953,148.194778 343.114899,145.787018 
	C341.012756,143.479034 342.913757,142.224640 344.350922,140.897369 
	C354.124023,131.871552 363.910950,122.860611 373.714996,113.868423 
	C375.036713,112.656174 376.364166,111.061485 378.364319,112.935135 
	C380.084808,114.546883 380.819702,116.178917 378.125397,117.967773 
	C380.688934,118.852562 382.818848,119.587669 385.270386,120.511047 
M368.537994,126.997887 
	C367.510071,128.073380 366.380035,129.069626 365.472778,130.238770 
	C362.368317,134.239334 362.337280,139.103073 365.299347,142.537628 
	C368.574707,146.335449 373.189240,146.979767 377.815460,144.099884 
	C380.943481,142.152603 383.593567,139.616272 385.325867,136.323944 
	C388.422943,130.437653 384.263458,123.412125 377.598145,123.100685 
	C374.230194,122.943306 371.498505,124.311897 368.537994,126.997887 
z"/>
<path fill="#000000" opacity="1.000000" stroke="none" 
	d="
M378.804413,328.358307 
	C381.773224,320.155396 386.487976,316.594574 393.095001,317.207428 
	C402.159454,318.048218 411.811523,325.577484 413.145569,332.848267 
	C414.371613,339.530060 410.511902,345.719360 402.147736,349.889038 
	C405.946930,352.139465 409.504089,354.189362 412.998230,356.341614 
	C414.630554,357.347076 416.765137,358.132446 415.277985,360.889709 
	C413.741547,363.738403 411.913696,362.812927 409.919647,361.620514 
	C399.074432,355.134979 388.191437,348.711517 377.405701,342.128693 
	C375.722076,341.101135 372.891724,340.677368 373.204376,337.838562 
	C373.525726,334.921082 376.227356,334.827637 378.477631,334.556000 
	C378.578003,332.393219 378.662323,330.576538 378.804413,328.358307 
M384.145538,328.873352 
	C382.050598,336.239655 385.502106,341.586395 394.354858,344.688782 
	C399.777252,346.589050 404.767792,344.221252 406.735291,338.814789 
	C408.580566,333.744263 405.995178,329.282379 399.064056,325.575623 
	C392.202789,321.906219 388.624359,322.544525 384.145538,328.873352 
z"/>
<path fill="#000000" opacity="1.000000" stroke="none" 
	d="
M439.176514,297.930176 
	C440.926849,299.943817 439.780029,301.670654 439.249390,303.335236 
	C437.431366,309.038300 435.567810,314.729553 433.561554,320.368378 
	C432.919861,322.171936 433.031952,325.365814 429.726074,324.291626 
	C426.270142,323.168671 428.048523,320.505951 428.669983,318.436462 
	C429.913361,314.296143 431.267700,310.185852 432.701355,306.107117 
	C433.569519,303.637085 433.309052,302.002075 430.425995,301.263580 
	C427.391022,300.486145 424.426178,299.435089 421.162781,298.420288 
	C418.619110,303.029144 417.700867,307.947693 415.906189,312.520782 
	C415.237122,314.225616 415.119446,316.877625 412.040924,315.683014 
	C409.241272,314.596619 410.301666,312.586365 410.913849,310.689026 
	C412.385254,306.128967 413.842255,301.564209 415.365082,296.814117 
	C410.576569,294.551666 405.925415,293.007324 400.583557,291.908875 
	C398.724854,297.575836 396.967773,303.086426 395.095764,308.557678 
	C394.434418,310.490601 394.165955,313.212769 390.941284,312.173401 
	C387.868469,311.182953 389.374664,308.903351 389.911133,307.204010 
	C391.963135,300.703766 394.295959,294.291565 396.313690,287.781342 
	C397.212433,284.881714 398.637390,284.189728 401.480469,285.163788 
	C413.905579,289.420776 426.375153,293.548035 439.176514,297.930176 
z"/>
<path fill="#000000" opacity="1.000000" stroke="none" 
	d="
M135.244034,99.576111 
	C143.276413,107.816498 143.060898,115.120926 134.860214,122.594414 
	C132.783112,124.487328 130.368240,126.039978 128.692825,128.710281 
	C130.626434,132.604675 134.262466,135.120102 137.002243,138.371002 
	C138.444061,140.081818 140.091721,141.573669 137.612411,143.783203 
	C135.145737,145.981461 133.794235,144.217834 132.284027,142.576813 
	C124.053612,133.633530 115.874809,124.641235 107.533913,115.802017 
	C105.044273,113.163635 104.822586,111.375580 107.918121,109.008247 
	C111.475220,106.287933 114.498436,102.877991 117.995285,100.068481 
	C123.683990,95.497963 128.610275,95.400543 135.244034,99.576111 
M129.134827,103.276108 
	C124.559418,101.946358 115.071671,107.062935 113.778786,111.502663 
	C113.438187,112.672241 114.009270,113.423073 114.673317,114.153389 
	C117.774811,117.564415 120.542603,121.305344 124.585793,124.496117 
	C126.599960,122.632683 128.543213,120.885605 130.430267,119.079803 
	C136.776901,113.006409 136.612244,109.287331 129.134827,103.276108 
z"/>
<path fill="#000000" opacity="1.000000" stroke="none" 
	d="
M237.385437,413.913391 
	C239.895660,428.395020 232.363678,441.195526 220.097031,443.791626 
	C212.522675,445.394653 202.800644,441.448669 199.640152,435.426178 
	C198.633911,433.508698 197.386780,431.417603 200.160446,429.857574 
	C202.721664,428.417053 203.542236,430.379059 204.687103,432.127899 
	C209.922012,440.124512 222.325546,440.250061 227.364883,432.178650 
	C231.195175,426.043732 232.366821,419.181976 230.521744,412.091522 
	C229.280136,407.320160 225.855484,404.435547 221.108841,403.455597 
	C216.381821,402.479645 211.770401,402.651001 208.358124,406.872192 
	C207.133362,408.387299 206.215988,410.588318 203.686798,408.653961 
	C200.997009,406.596802 202.862946,404.826233 204.138382,403.181946 
	C211.848679,393.242004 229.808121,395.897705 235.501083,407.841705 
	C236.346710,409.615875 236.736694,411.607208 237.385437,413.913391 
z"/>
<path fill="#000000" opacity="1.000000" stroke="none" 
	d="
M401.961670,170.911926 
	C405.566254,168.815338 409.683746,167.206863 409.179047,162.560867 
	C408.763550,158.736298 406.193848,155.954376 402.266235,154.830185 
	C399.114624,153.928085 396.342163,155.201370 393.710602,156.595032 
	C389.304474,158.928497 385.015991,161.483902 380.673798,163.938431 
	C379.005615,164.881409 377.390747,165.706345 375.998871,163.437958 
	C374.539917,161.060272 375.728058,159.824509 377.718414,158.699295 
	C389.441528,152.071655 401.148987,145.416199 412.847656,138.745514 
	C414.748688,137.661545 416.439087,136.930145 417.818024,139.502136 
	C419.240295,142.154999 417.341858,143.084763 415.599335,144.100555 
	C412.180359,146.093613 408.734039,148.039764 404.766510,150.310043 
	C408.453278,152.856445 411.928162,154.732498 413.775421,158.466370 
	C416.520477,164.015030 415.816925,169.096680 410.648926,172.501785 
	C404.413147,176.610474 397.766998,180.094772 391.316803,183.880524 
	C389.571655,184.904785 388.258575,184.742722 387.145081,182.919022 
	C385.824768,180.756607 386.820190,179.573898 388.665100,178.532272 
	C393.007812,176.080444 397.319641,173.573975 401.961670,170.911926 
z"/>
<path fill="#000000" opacity="1.000000" stroke="none" 
	d="
M178.815887,96.271545 
	C180.790344,99.785110 182.550583,102.998634 184.381897,106.171112 
	C185.435730,107.996689 184.985367,109.244804 183.233536,110.306519 
	C181.249542,111.508957 180.169113,110.551941 179.229828,108.906181 
	C176.340149,103.842987 173.469025,98.768631 170.521164,93.739349 
	C167.391541,88.399933 164.587982,87.084633 160.581253,88.933655 
	C155.920761,91.084373 153.777771,96.033035 156.031143,101.113800 
	C158.249939,106.116600 161.272919,110.757523 163.798920,115.631912 
	C164.759430,117.485382 167.115570,119.571724 163.646835,121.443390 
	C160.243011,123.280037 159.680634,120.278534 158.614441,118.440483 
	C152.263031,107.491158 145.951767,96.517952 139.727982,85.495750 
	C138.702957,83.680473 136.414566,81.571304 139.818954,79.663528 
	C143.207504,77.764633 143.777313,80.889603 144.899658,82.622627 
	C146.967880,85.816177 148.780106,89.175529 151.221817,93.362228 
	C152.615952,88.349411 155.380814,85.470589 159.202789,83.553185 
	C164.557129,80.867043 169.340439,81.781776 172.867310,86.604942 
	C175.021622,89.551071 176.725342,92.826675 178.815887,96.271545 
z"/>
<path fill="#000000" opacity="1.000000" stroke="none" 
	d="
M428.941711,200.459702 
	C428.042236,203.651245 426.610107,206.035919 424.293610,207.849991 
	C417.020020,213.545990 413.900238,212.648209 411.157623,204.038330 
	C409.995880,200.391479 408.783356,196.756378 407.775238,193.066406 
	C406.923126,189.947418 405.205475,190.065628 402.926025,191.407562 
	C397.052155,194.865540 397.393188,204.384613 403.611420,208.141876 
	C405.440094,209.246841 408.179413,209.786530 406.406860,212.715729 
	C404.586212,215.724335 402.206604,213.737854 400.363831,212.652420 
	C391.762543,207.585968 390.612640,193.498352 398.281342,187.255920 
	C402.539215,183.789993 407.600922,182.004623 413.035706,181.822235 
	C422.703552,181.497818 429.180542,189.026199 428.941711,200.459702 
M414.899353,198.641388 
	C415.661865,200.608231 415.686188,202.938232 417.792755,204.450516 
	C421.424591,203.580933 423.634125,201.349869 423.604156,197.518311 
	C423.573639,193.616104 422.038239,190.307327 418.225983,188.676926 
	C416.561523,187.965088 414.529480,187.551071 413.017120,188.939651 
	C411.674347,190.172607 412.730682,191.751038 413.131897,193.147644 
	C413.591492,194.747498 414.117096,196.328384 414.899353,198.641388 
z"/>
<path fill="#000000" opacity="1.000000" stroke="none" 
	d="
M99.936523,308.963745 
	C95.691368,312.547791 91.002983,314.072083 85.932663,314.597443 
	C77.338257,315.487915 70.978371,310.398987 69.052795,301.116028 
	C67.590698,294.067413 71.918922,288.114532 79.955666,285.628510 
	C83.097519,284.656647 84.497971,285.573303 85.458458,288.575012 
	C87.363426,294.528381 88.719345,300.698242 91.575394,306.553070 
	C95.833374,305.319000 98.472099,303.102417 98.856094,298.937378 
	C99.262825,294.525787 98.250420,290.621094 93.991623,288.288910 
	C92.268852,287.345459 89.804794,286.666046 91.328796,284.010986 
	C92.895042,281.282318 95.105751,282.920135 96.981384,283.810913 
	C104.316399,287.294403 108.454033,302.289062 99.936523,308.963745 
M84.325226,302.058777 
	C82.983383,298.752777 82.647614,295.046753 80.640884,292.001434 
	C74.642967,294.467285 73.012367,297.694244 74.941452,302.857086 
	C76.790497,307.805756 80.497185,309.496918 85.385002,307.599915 
	C86.004318,305.857117 84.753197,304.419464 84.325226,302.058777 
z"/>
<path fill="#000000" opacity="1.000000" stroke="none" 
	d="
M350.757446,107.188080 
	C353.513489,107.962578 355.904846,108.224472 357.076599,105.429794 
	C358.355591,102.379440 355.950012,100.893219 354.026245,99.351006 
	C350.925507,96.865288 347.140106,97.442093 343.278534,97.342667 
	C342.167755,93.754982 343.123749,91.659348 346.980530,91.786514 
	C353.137299,91.989525 358.294678,94.444878 361.838409,99.597977 
	C364.148224,102.956833 363.910706,106.556938 361.667236,109.891502 
	C358.790222,114.167770 355.721252,118.314423 352.808167,122.567024 
	C351.450409,124.549171 349.362518,126.481125 352.084351,129.056122 
	C353.085663,130.003418 352.601562,131.231003 351.719696,132.166199 
	C350.681488,133.267212 349.583740,132.733963 348.546265,132.163467 
	C345.857910,130.685150 344.529877,128.319351 344.441528,125.007286 
	C339.677856,125.625931 335.722229,124.280876 332.396759,121.209328 
	C328.525421,117.633621 327.665497,113.309914 329.916840,109.064095 
	C332.423157,104.337387 336.295471,102.404198 341.546448,103.748215 
	C344.579712,104.524582 347.451447,105.932030 350.757446,107.188080 
M348.486542,111.892120 
	C345.890137,110.850990 343.511932,109.192413 340.588165,109.076614 
	C338.213959,108.982574 336.422546,109.897209 335.364014,112.101547 
	C334.272736,114.374008 334.959229,116.257851 336.560974,117.981522 
	C340.731476,122.469582 348.930511,120.690376 350.996307,114.895966 
	C351.685028,112.964157 350.422180,112.617264 348.486542,111.892120 
z"/>
<path fill="#000000" opacity="1.000000" stroke="none" 
	d="
M82.675964,184.538696 
	C77.183975,185.215912 74.907921,189.871140 76.625992,196.213898 
	C77.116753,198.025635 78.870232,200.086105 75.671310,200.988266 
	C72.651474,201.839905 72.034241,199.444229 71.414337,197.358490 
	C69.663780,191.468521 71.074860,186.150208 74.804993,181.484970 
	C77.527046,178.080536 81.271294,177.677780 85.223938,178.964798 
	C90.116524,180.557846 94.975426,182.254791 99.842773,183.924667 
	C101.763199,184.583527 103.698837,185.371887 105.248596,183.269302 
	C106.305176,181.835815 107.637199,181.316467 109.064819,182.444565 
	C110.535362,183.606598 109.763809,185.142166 109.296089,186.570663 
	C108.487419,189.040436 106.389465,190.039261 104.005661,191.068878 
	C104.989578,194.766510 105.874756,198.388565 104.354683,202.193619 
	C102.045212,207.974701 98.101875,210.480133 92.393852,209.340668 
	C87.055054,208.274902 83.904350,203.869766 84.280365,197.916748 
	C84.447746,195.266663 84.776634,192.625992 84.911896,189.974915 
	C85.013382,187.985947 85.116577,185.918015 82.675964,184.538696 
M89.340195,197.291718 
	C89.368698,201.337479 91.438362,203.594086 95.446686,203.514038 
	C98.546097,203.452179 101.071861,199.277100 100.606934,195.568222 
	C100.078400,191.351929 96.611389,188.527130 90.810013,187.814880 
	C90.331505,190.687775 89.849098,193.584122 89.340195,197.291718 
z"/>
<path fill="#000000" opacity="1.000000" stroke="none" 
	d="
M270.258911,93.344772 
	C263.531708,98.161331 256.765686,98.269264 250.376862,93.984581 
	C243.715195,89.516922 242.949768,82.497932 244.075653,75.226089 
	C245.192322,68.013802 248.977829,62.962849 256.454529,61.268955 
	C267.777008,58.703773 277.409607,67.836807 276.120453,80.038300 
	C275.604340,84.923279 274.165314,89.497162 270.258911,93.344772 
M268.765350,71.990227 
	C266.725555,67.232857 262.720276,65.962723 258.129639,66.581924 
	C253.343842,67.227448 251.075470,70.748901 250.475037,75.207741 
	C250.101944,77.978416 250.155075,80.856247 250.408203,83.650536 
	C250.856567,88.599518 254.255478,90.876465 258.744629,91.445442 
	C263.160614,92.005142 266.571289,90.087791 268.307709,85.898285 
	C270.073364,81.638206 270.243958,77.201195 268.765350,71.990227 
z"/>
<path fill="#000000" opacity="1.000000" stroke="none" 
	d="
M207.576904,101.859863 
	C200.679550,105.174751 194.352875,105.473007 188.747131,100.121483 
	C183.202026,94.827850 180.847687,83.924240 183.644745,77.424095 
	C186.774307,70.151260 196.752686,66.096497 204.343109,69.265678 
	C211.688889,72.332703 214.173431,78.928528 215.200989,86.039062 
	C216.150986,92.613045 214.193253,98.256233 207.576904,101.859863 
M190.197403,91.182182 
	C190.716293,92.222618 191.167725,93.303696 191.765900,94.296349 
	C194.150482,98.253380 197.666397,99.446449 202.029297,98.279572 
	C206.584732,97.061195 209.309982,94.003990 209.313202,89.342094 
	C209.316208,84.990128 208.071136,80.729942 205.298752,77.240562 
	C202.817947,74.118195 199.541199,72.994019 195.522003,74.228783 
	C191.461273,75.476318 188.923386,77.945694 188.375412,82.223305 
	C188.004593,85.117813 188.959473,87.801804 190.197403,91.182182 
z"/>
<path fill="#000000" opacity="1.000000" stroke="none" 
	d="
M357.071503,397.338623 
	C353.251648,405.876099 344.955627,410.726715 337.908264,408.895172 
	C330.296112,406.916779 322.439667,396.188019 322.884216,388.378265 
	C323.289612,381.256378 329.828583,374.611969 337.521515,373.505005 
	C346.694427,372.185059 356.638916,381.435486 357.279083,391.942200 
	C357.379852,393.596497 357.211884,395.267120 357.071503,397.338623 
M351.602356,394.346802 
	C351.236053,389.274048 348.797638,385.216766 345.212524,381.827026 
	C341.734833,378.538849 337.244354,378.234650 333.376678,380.791931 
	C329.341431,383.460022 328.350311,387.321655 329.681091,391.658722 
	C330.392426,393.976990 331.746643,396.199890 333.218506,398.159576 
	C335.540466,401.251007 338.345642,404.171692 342.685852,403.363129 
	C347.216858,402.519043 350.548309,399.951752 351.602356,394.346802 
z"/>
<path fill="#000000" opacity="1.000000" stroke="none" 
	d="
M196.646484,412.358521 
	C191.065323,422.214630 183.424347,424.864075 174.393265,420.349487 
	C166.113220,416.210327 163.598236,407.740143 167.801865,398.150482 
	C172.959244,386.385071 183.298462,383.099487 193.318039,390.042114 
	C199.918427,394.615540 201.068924,401.814331 196.646484,412.358521 
M189.985031,394.418579 
	C184.124084,391.134460 179.921829,391.336548 176.598877,395.400818 
	C173.699356,398.947235 172.013687,403.071503 172.107880,407.756348 
	C172.241394,414.396759 179.847366,418.910553 185.765594,415.887573 
	C192.518646,412.438171 195.155060,400.923157 189.985031,394.418579 
z"/>
<path fill="#000000" opacity="1.000000" stroke="none" 
	d="
M93.314819,226.131897 
	C94.162392,222.045792 93.378517,218.832184 90.317116,216.367783 
	C88.932838,215.253464 88.612572,214.011337 89.809036,212.515015 
	C91.258461,210.702377 92.655830,211.345215 94.080925,212.507019 
	C98.335785,215.975739 100.064987,220.506714 99.027626,225.817429 
	C97.718361,232.520203 94.131104,237.557312 87.049706,238.957962 
	C81.366714,240.082031 75.776657,239.471664 70.647446,236.442322 
	C61.600334,231.099045 60.439426,216.955231 68.601479,210.798492 
	C70.242477,209.560684 72.113266,207.759064 74.126282,210.426331 
	C75.882622,212.753510 74.237137,213.794907 72.584831,215.193115 
	C66.415794,220.413574 67.869446,229.085190 75.421028,231.937653 
	C83.750938,235.084061 91.824341,232.706772 93.314819,226.131897 
z"/>
<path fill="#000000" opacity="1.000000" stroke="none" 
	d="
M375.618774,386.245972 
	C373.698853,387.804352 372.038513,389.195343 370.401581,390.613403 
	C369.211334,391.644623 368.076233,391.825317 366.942535,390.540955 
	C365.852600,389.306183 365.981323,388.151703 367.132690,387.045227 
	C367.252716,386.929871 367.375702,386.815765 367.482483,386.688629 
	C372.561615,380.643768 372.568787,380.636597 367.152130,374.897003 
	C364.750916,372.352631 362.379517,369.774628 359.874664,367.334961 
	C356.906891,364.444489 353.960938,364.304474 351.611786,368.071075 
	C350.450104,369.933716 349.407471,371.704346 347.035187,369.914825 
	C344.757812,368.196960 346.176178,366.308319 347.232361,364.648346 
	C351.663361,357.684204 357.973724,356.952179 363.890137,362.807526 
	C367.559265,366.438782 370.999878,370.299957 374.600037,374.002533 
	C375.581696,375.012085 376.400513,376.656647 378.276093,375.874237 
	C379.963318,375.170502 381.462097,372.855103 383.437042,375.293030 
	C385.556366,377.909180 381.970062,378.904541 381.730988,381.361145 
	C382.704407,383.852051 388.184357,386.744080 382.080688,389.863953 
	C379.292786,389.602356 378.879822,385.776672 375.618774,386.245972 
z"/>
<path fill="#000000" opacity="1.000000" stroke="none" 
	d="
M230.601868,67.283249 
	C228.589752,67.419907 227.793167,68.223846 228.001816,69.909172 
	C228.715271,75.672302 229.347824,81.446655 230.153519,87.196793 
	C230.732986,91.332306 233.198792,92.462875 236.974045,90.972542 
	C238.717850,90.284149 240.543533,89.344917 241.627182,91.769073 
	C242.839905,94.482002 240.566376,95.297409 238.833221,96.121368 
	C231.528366,99.594162 224.975250,95.708145 223.829971,87.240234 
	C223.140228,82.140610 222.534912,77.028481 221.975754,71.912781 
	C221.727173,69.638611 221.070984,68.043533 218.315140,68.421043 
	C217.040756,68.595619 216.008270,68.168968 215.839432,66.646698 
	C215.666855,65.090675 216.203796,64.011421 217.847137,63.778877 
	C220.545502,63.397030 220.571014,61.471832 220.724930,59.351715 
	C220.978363,55.860779 221.100082,55.869614 225.417313,55.545216 
	C226.577606,56.533764 226.287872,57.985828 226.513504,59.250767 
	C226.949341,61.694103 228.164154,62.753872 230.685974,62.001778 
	C231.312485,61.814930 232.010269,61.754944 232.665176,61.796383 
	C234.665314,61.922932 237.521057,60.803955 237.827698,64.037888 
	C238.112259,67.038857 235.123886,66.268829 233.448486,66.905281 
	C232.692810,67.192345 231.810287,67.145424 230.601868,67.283249 
z"/>
<path fill="#000000" opacity="1.000000" stroke="none" 
	d="
M109.919968,178.303528 
	C107.776070,178.391663 106.272514,177.672119 104.800591,176.897705 
	C94.372398,171.411072 83.951698,165.910202 73.527901,160.415207 
	C71.754219,159.480179 69.779251,158.803558 71.092979,156.003525 
	C72.506302,152.991196 74.367821,154.013428 76.367599,155.073257 
	C86.045677,160.202362 95.728355,165.322754 105.403763,170.456879 
	C108.086678,171.880524 110.697701,173.674271 112.971832,169.741791 
	C113.787819,168.330780 115.286034,168.697220 116.491364,169.493469 
	C117.679047,170.278076 117.630600,171.502014 117.178970,172.619034 
	C115.926476,175.716858 113.965401,178.039291 109.919968,178.303528 
z"/>
<path fill="#000000" opacity="1.000000" stroke="none" 
	d="
M328.398071,86.354782 
	C324.492676,87.364952 322.602448,90.055466 321.090485,93.091408 
	C318.869873,97.550186 316.705719,102.037148 314.529541,106.517944 
	C313.539093,108.557182 312.315948,109.769379 309.854156,108.453247 
	C307.458130,107.172272 308.298309,105.513771 309.098267,103.825500 
	C312.866394,95.873207 316.632477,87.919769 320.451752,79.992004 
	C321.303314,78.224358 322.053162,76.192368 324.839508,77.249260 
	C327.356049,78.203796 327.177185,79.977615 325.804382,82.659538 
	C330.656250,79.814125 334.327026,81.117493 337.830658,83.350716 
	C339.349396,84.318764 340.362701,85.624260 338.992798,87.477776 
	C337.851105,89.022491 336.509216,89.605125 334.754211,88.342377 
	C332.975830,87.062859 331.094391,86.022514 328.398071,86.354782 
z"/>
<path fill="#000000" opacity="1.000000" stroke="none" 
	d="
M63.000771,261.101013 
	C66.232155,259.732483 68.352036,260.506409 68.083115,263.972595 
	C67.575401,270.516571 72.929108,272.718842 78.471802,272.224457 
	C83.767227,271.752136 89.042427,271.035553 94.316360,270.348358 
	C96.299934,270.089874 97.989555,269.943756 98.324387,272.622162 
	C98.664734,275.344757 97.214508,276.035400 94.874611,276.315033 
	C86.294022,277.340454 77.727463,278.483978 69.158051,279.601685 
	C67.404694,279.830414 65.585426,280.760742 64.442200,278.351898 
	C63.219677,275.775970 65.237488,274.842438 66.813461,273.514801 
	C63.496475,270.073456 61.122475,266.383179 63.000771,261.101013 
z"/>
<path fill="#000000" opacity="1.000000" stroke="none" 
	d="
M312.703003,401.226929 
	C311.447845,398.098145 310.363312,395.317413 309.196381,392.571716 
	C308.348267,390.576202 307.794098,388.794586 310.472260,387.683380 
	C313.249390,386.531097 314.039642,388.509094 314.797211,390.358917 
	C318.063568,398.335052 321.287170,406.329071 324.457672,414.343750 
	C325.085358,415.930450 326.462494,417.659058 324.419861,419.267883 
	C322.457245,420.813751 320.775269,420.020264 319.122589,418.198730 
	C317.172852,422.063202 314.281769,424.371460 310.298096,425.099518 
	C308.753113,425.381866 307.195404,425.214233 306.874542,423.211761 
	C306.663391,421.894073 306.700165,420.724670 308.167847,419.826691 
	C316.872284,414.501068 317.362305,412.917938 313.618317,403.420593 
	C313.375183,402.803741 313.099091,402.199921 312.703003,401.226929 
z"/>
<path fill="#000000" opacity="1.000000" stroke="none" 
	d="
M414.666107,224.919525 
	C410.599792,225.431824 406.972473,225.883286 403.338257,226.270309 
	C401.288574,226.488586 399.744598,225.963623 399.456757,223.529678 
	C399.174683,221.144714 400.694305,220.783066 402.475769,220.540939 
	C411.529755,219.310333 420.578217,218.038971 429.635742,216.835480 
	C431.360107,216.606354 432.786926,216.836288 433.531189,218.960175 
	C434.413177,221.477066 432.474030,222.035294 430.751495,223.283325 
	C434.255432,225.869919 435.768463,229.185287 435.385742,233.316681 
	C435.235687,234.936737 434.992920,236.344193 432.918945,236.317383 
	C431.244019,236.295731 430.202362,235.698090 429.758026,233.853928 
	C427.497192,224.470673 425.499146,223.282471 414.666107,224.919525 
z"/>
<path fill="#000000" opacity="1.000000" stroke="none" 
	d="
M89.869553,246.764618 
	C91.345726,246.778946 92.341232,246.783157 93.335495,246.820648 
	C95.344833,246.896393 96.325066,247.893616 96.295685,249.962616 
	C96.268646,251.865448 95.152031,252.749939 93.506958,252.778488 
	C83.889618,252.945480 74.270729,253.055023 64.652031,253.088074 
	C62.523754,253.095398 61.880859,251.527023 61.993835,249.653107 
	C62.125584,247.467834 63.730198,247.000122 65.498848,246.978546 
	C73.461678,246.881332 81.425117,246.834534 89.869553,246.764618 
z"/>
<path fill="#000000" opacity="1.000000" stroke="none" 
	d="
M386.109131,359.877411 
	C388.154175,361.604492 389.923462,363.108673 391.678986,364.628693 
	C393.226776,365.968811 393.322357,367.337097 391.874298,368.877716 
	C390.635071,370.196167 389.396179,370.443207 387.983276,369.256195 
	C380.617981,363.068451 373.257935,356.874390 365.897430,350.680939 
	C364.316101,349.350403 364.329468,347.974274 365.605469,346.379944 
	C367.015076,344.618713 368.350098,344.967407 369.828156,346.213837 
	C375.153900,350.705017 380.493195,355.180176 386.109131,359.877411 
z"/>
<path fill="#000000" opacity="1.000000" stroke="none" 
	d="
M276.065247,406.001770 
	C272.382935,404.671387 271.399323,402.351349 273.453644,399.437378 
	C274.864166,397.436554 277.083496,397.261505 279.079010,398.866547 
	C281.820221,401.071442 280.678864,404.100616 276.065247,406.001770 
z"/>
<path fill="#000000" opacity="1.000000" stroke="none" 
	d="
M395.719971,373.549255 
	C397.195526,371.159607 398.895111,370.217316 401.206238,371.687714 
	C402.928650,372.783508 403.634796,374.387848 402.815918,376.326172 
	C402.136322,377.934845 400.827393,379.154572 399.007751,378.831696 
	C396.389038,378.366974 395.014862,376.725647 395.719971,373.549255 
z"/>
<path fill="#000000" opacity="1.000000" stroke="none" 
	d="
M404.178040,256.299683 
	C407.781433,256.638733 408.738800,258.645355 408.138184,261.533051 
	C407.693848,263.669342 406.100983,264.523621 404.042175,264.195709 
	C401.714630,263.825012 400.647308,262.251617 400.826538,259.946655 
	C400.968658,258.118866 402.038727,256.925659 404.178040,256.299683 
z"/>
<path fill="#000000" opacity="1.000000" stroke="none" 
	d="
M50.635891,246.846878 
	C53.456818,245.872818 55.260662,246.678482 56.047844,249.130402 
	C56.673111,251.077972 55.959213,252.735199 54.106457,253.709061 
	C52.641964,254.478851 51.165054,254.295319 50.025288,253.086304 
	C48.082733,251.025772 48.331039,248.965317 50.635891,246.846878 
z"/>
</svg>