<svg version="1.1" id="Layer_1" xmlns="http://www.w3.org/2000/svg" xmlns:xlink="http://www.w3.org/1999/xlink" x="0px" y="0px"
	 width="100%" viewBox="0 0 496 496" enable-background="new 0 0 496 496" xml:space="preserve">
<path fill="#000000" opacity="1.000000" stroke="none" 
	d="
M186.143341,380.194275 
	C182.142578,385.949097 178.335419,391.416077 174.507858,396.868713 
	C171.493149,401.163391 168.152557,401.316833 165.544037,396.609436 
	C164.359024,394.470886 163.076523,393.891754 161.145187,393.429626 
	C157.163818,392.476959 154.162659,390.139252 152.672516,386.350677 
	C151.639542,383.724457 150.383286,382.638031 147.308350,382.406616 
	C136.707703,381.608765 132.029770,371.775818 137.751160,362.759705 
	C140.069763,359.105896 142.881500,355.758209 145.105453,352.053101 
	C147.245575,348.487701 149.377411,349.463928 152.086884,351.197510 
	C155.064209,353.102448 154.590912,354.855225 152.703903,357.266510 
	C150.246567,360.406647 148.109772,363.799042 145.861389,367.100861 
	C144.018524,369.807129 143.838074,372.519104 146.665329,374.572113 
	C149.523239,376.647400 152.475311,376.128754 154.657837,373.451447 
	C158.004974,369.345551 161.095749,365.030609 164.222809,360.900208 
	C171.756866,363.844025 172.118958,364.814178 168.131485,370.614044 
	C166.338577,373.221832 164.429474,375.753540 162.723038,378.415863 
	C161.086288,380.969452 160.221756,383.707520 163.105255,385.993713 
	C166.146545,388.404938 169.140274,387.733551 171.470932,384.955353 
	C174.034042,381.900085 176.302917,378.593140 178.623917,375.341522 
	C180.025436,373.378052 181.502472,371.974426 183.942703,373.760986 
	C186.028122,375.287811 189.026230,376.498901 186.143341,380.194275 
z"/>
<path fill="#000000" opacity="1.000000" stroke="none" 
	d="
M135.600342,344.557739 
	C138.510040,343.752411 140.222153,338.646820 143.787094,342.835449 
	C147.204788,346.851105 147.047668,347.832092 142.621979,350.821381 
	C137.519669,354.267700 132.475784,357.800568 127.405251,361.293945 
	C122.812462,364.458160 120.225189,363.722260 119.085541,358.185638 
	C118.613800,355.893860 117.599297,354.868042 116.009102,353.651001 
	C112.708214,351.124725 110.356728,347.941345 110.676453,343.508453 
	C110.863037,340.921539 109.612556,339.837585 107.395416,338.697632 
	C96.537323,333.114899 95.861771,322.774811 105.750763,315.862946 
	C108.888062,313.670197 112.127777,311.617706 115.192932,309.329956 
	C117.782921,307.396881 119.643684,307.182800 121.710358,310.242004 
	C123.617912,313.065704 123.614891,314.832550 120.560074,316.631104 
	C117.554337,318.400757 114.752678,320.515961 111.852142,322.465698 
	C108.744835,324.554443 106.870033,327.318909 109.043526,330.866028 
	C111.412323,334.731934 114.908379,334.011932 118.181534,331.933655 
	C121.412125,329.882507 124.579880,327.721161 127.672333,325.467010 
	C130.455719,323.438080 131.830521,325.118713 133.266571,327.221497 
	C134.702713,329.324493 135.756180,331.130798 132.758820,332.971130 
	C129.219742,335.144104 125.843140,337.590820 122.468513,340.019470 
	C119.986130,341.805939 118.227371,344.065735 120.167542,347.195892 
	C122.087555,350.293488 124.849609,351.455627 128.232147,349.451935 
	C130.661560,348.012878 132.947098,346.330994 135.600342,344.557739 
z"/>
<path fill="#000000" opacity="1.000000" stroke="none" 
	d="
M287.949402,116.839989 
	C291.554016,116.867844 293.761536,115.675171 294.216461,111.963684 
	C288.314911,112.297478 282.744507,111.816940 278.652557,107.097809 
	C273.427185,101.071503 273.609589,93.511169 278.994568,87.655083 
	C283.683594,82.555847 292.723083,81.860519 298.539825,86.412827 
	C300.331757,87.815216 301.582123,88.467316 304.109741,87.928917 
	C308.414124,87.012070 310.695862,89.801697 309.537140,93.988548 
	C307.635590,100.859375 305.562958,107.685280 303.435333,114.490379 
	C301.581604,120.419449 297.586090,124.556671 291.340515,124.787361 
	C284.390442,125.044052 277.901581,122.806854 272.844299,117.614136 
	C271.108398,115.831764 272.221558,114.377541 273.577637,112.905411 
	C275.118805,111.232323 276.481293,111.011826 278.202820,112.667717 
	C280.795013,115.161064 283.897095,116.652893 287.949402,116.839989 
M296.619781,103.287628 
	C296.932465,102.899956 297.311707,102.548737 297.547211,102.118790 
	C299.258881,98.993736 299.229126,95.977432 296.420746,93.545715 
	C293.879303,91.345108 290.881805,90.246437 287.751190,92.295792 
	C284.856750,94.190514 283.331757,96.987289 284.614624,100.445259 
	C285.976532,104.116165 289.149017,105.074196 292.736115,104.787689 
	C293.849670,104.698753 294.924286,104.122215 296.619781,103.287628 
z"/>
<path fill="#000000" opacity="1.000000" stroke="none" 
	d="
M374.239502,310.473511 
	C380.701355,301.164825 392.025452,303.514984 397.634888,309.019684 
	C404.374664,315.633667 403.433441,324.282288 395.019440,332.223083 
	C396.657898,334.685944 399.455597,335.452301 401.855804,336.727142 
	C404.208923,337.977020 405.674408,339.250427 403.839355,342.140625 
	C402.356934,344.475372 401.415894,346.975861 397.825195,345.018860 
	C388.322510,339.839600 378.739777,334.807098 369.182190,329.728821 
	C366.744995,328.433807 365.218689,326.283966 367.406250,324.192291 
	C371.339478,320.431396 371.523956,315.089264 374.239502,310.473511 
M393.544006,322.042389 
	C393.994019,318.006104 392.126740,315.407745 388.486481,313.926300 
	C385.854279,312.855072 383.283203,312.749237 381.080017,314.832550 
	C379.061737,316.740967 377.667969,319.017090 378.705719,321.913330 
	C379.852020,325.112457 382.128204,327.181122 385.584229,327.611725 
	C389.429016,328.090729 391.889465,326.208954 393.544006,322.042389 
z"/>
<path fill="#000000" opacity="1.000000" stroke="none" 
	d="
M376.589142,163.876724 
	C366.201447,168.518784 359.676178,165.359116 354.138947,153.017090 
	C351.861023,154.769104 349.539032,156.333725 347.482910,158.192444 
	C344.908783,160.519409 343.404968,159.056839 341.797455,157.040131 
	C340.227051,155.069901 339.036102,153.417862 341.748413,151.212891 
	C349.744537,144.712570 357.573395,138.006805 365.487640,131.405365 
	C369.637177,127.944153 372.011139,128.273773 373.932861,133.323685 
	C374.840088,135.707703 376.152008,137.049561 378.066071,138.364288 
	C385.274689,143.315796 389.183044,154.931335 376.589142,163.876724 
M361.422455,148.180283 
	C360.873993,152.225967 361.695190,155.689835 366.183441,156.735474 
	C370.251373,157.683197 373.662872,155.925629 375.260986,152.236801 
	C376.628967,149.079178 376.430267,145.559830 372.903503,143.430252 
	C368.827789,140.969193 365.610809,142.580795 362.865082,145.856964 
	C362.438751,146.365646 362.082764,146.933273 361.422455,148.180283 
z"/>
<path fill="#000000" opacity="1.000000" stroke="none" 
	d="
M399.295593,273.606812 
	C406.453766,275.432281 413.185699,277.298523 419.977112,278.914795 
	C423.631012,279.784393 425.024719,281.555908 423.918182,285.317902 
	C421.995667,291.854126 420.174988,298.423981 418.501434,305.027802 
	C417.902649,307.390503 417.044250,308.719299 414.422302,307.804108 
	C412.295288,307.061737 410.273376,306.390717 411.240692,303.303467 
	C412.233551,300.134552 412.838776,296.846283 413.752777,293.650055 
	C415.534485,287.419525 414.908875,286.545258 407.895966,286.314667 
	C406.776062,290.189117 405.544830,294.125427 404.522278,298.115234 
	C403.963501,300.295593 403.831970,302.557678 400.559784,301.778473 
	C397.411896,301.028900 396.692688,299.256592 397.550598,296.245514 
	C398.680145,292.281250 399.501862,288.229309 400.454834,284.219635 
	C397.937347,282.785126 395.737213,281.744720 392.747589,282.257263 
	C391.457611,287.137268 390.089935,292.073425 388.862183,297.044189 
	C388.113190,300.076569 386.471313,301.107605 383.396301,300.313812 
	C380.198853,299.488434 380.851410,297.535217 381.454254,295.284607 
	C383.345184,288.225281 385.140594,281.140045 386.932190,274.054535 
	C387.602173,271.404877 389.004456,270.534912 391.690094,271.510101 
	C394.029175,272.359467 396.488159,272.878540 399.295593,273.606812 
z"/>
<path fill="#000000" opacity="1.000000" stroke="none" 
	d="
M140.434723,158.462433 
	C138.429977,160.609940 137.011154,159.682556 135.568802,158.243576 
	C128.279388,150.971298 120.967896,143.721130 113.664139,136.463226 
	C112.092499,134.901443 111.165398,133.291763 113.187737,131.379868 
	C117.642395,127.168449 121.391045,122.193642 126.583092,118.782471 
	C133.407730,114.298698 140.116135,114.949669 144.974655,120.465210 
	C149.587341,125.701668 149.503403,133.253036 144.596985,139.107376 
	C142.484833,141.627594 140.080490,143.902924 137.999344,146.089432 
	C138.652115,150.479736 148.216888,152.425491 140.434723,158.462433 
M138.829254,133.327240 
	C140.363739,129.996414 139.245865,127.363152 136.299789,125.699158 
	C132.600662,123.609818 128.680222,125.887337 123.996758,132.461288 
	C130.189072,142.299911 132.443619,142.540054 138.829254,133.327240 
z"/>
<path fill="#000000" opacity="1.000000" stroke="none" 
	d="
M374.404907,179.335358 
	C369.002075,179.724335 370.082397,175.301758 368.235809,172.322083 
	C377.531464,167.744797 386.455933,163.346176 395.385254,158.957443 
	C396.878784,158.223373 398.523438,157.719391 399.871460,156.782745 
	C402.728943,154.797241 404.590637,154.604233 406.419678,158.310074 
	C408.313721,162.147583 406.932098,163.751556 403.583069,165.082352 
	C401.441772,165.933243 399.422150,167.090271 397.603607,167.984360 
	C397.063263,169.527100 398.131012,169.654175 398.700348,170.142685 
	C407.146332,177.389908 406.044037,187.237473 396.174408,192.412872 
	C392.490631,194.344559 388.638733,195.975601 385.053131,198.068619 
	C381.846252,199.940582 380.667114,198.211456 379.366821,195.726288 
	C378.008698,193.130661 377.690826,191.189896 380.962219,189.777802 
	C384.472656,188.262573 387.932037,186.565323 391.221802,184.622589 
	C393.955231,183.008392 396.741486,181.123932 394.805054,177.082474 
	C392.899994,173.106339 389.613617,172.464417 386.011871,173.836227 
	C382.137482,175.311859 378.492279,177.389191 374.404907,179.335358 
z"/>
<path fill="#000000" opacity="1.000000" stroke="none" 
	d="
M187.710083,120.687225 
	C181.574570,125.862114 181.441589,125.836586 177.616287,119.697189 
	C175.858322,116.875786 174.215347,113.960922 172.217285,111.317413 
	C170.421616,108.941689 168.070724,107.203789 164.974380,109.400627 
	C162.197998,111.370453 160.221848,113.847031 162.126648,117.407845 
	C164.623703,122.075851 167.342667,126.625145 169.987106,131.262161 
	C168.293533,133.675629 165.947495,134.836334 163.415253,136.067688 
	C160.515152,133.877274 159.344513,130.503693 157.535751,127.612984 
	C153.039520,120.427277 148.620453,113.193169 144.193268,105.964485 
	C142.877090,103.815453 141.369202,101.877495 144.742813,99.803024 
	C147.926819,97.845161 150.105392,97.773483 151.958832,101.272530 
	C153.118286,103.461388 154.463409,105.551895 156.031219,108.204208 
	C158.301666,105.975792 159.672440,103.291191 162.246048,101.724037 
	C167.761841,98.365334 173.352768,98.655594 177.521393,103.462624 
	C181.874893,108.482819 185.224106,114.219162 187.710083,120.687225 
z"/>
<path fill="#000000" opacity="1.000000" stroke="none" 
	d="
M243.588776,404.500732 
	C240.334579,395.558746 233.569214,392.631958 225.314896,396.842712 
	C221.372742,398.853729 220.663910,395.593414 219.094833,393.944397 
	C217.385330,392.147705 219.180542,390.951263 220.591110,390.058716 
	C228.094925,385.310852 235.716675,385.546082 243.292938,389.817749 
	C250.203400,393.713989 253.456696,399.945801 253.031296,407.654297 
	C252.557816,416.233643 248.101654,422.619141 239.791443,425.248627 
	C232.334106,427.608215 224.925018,426.983307 218.656128,421.558105 
	C217.285370,420.371826 214.861267,418.886353 217.181854,416.746643 
	C218.945068,415.120819 220.839752,412.362335 223.903870,415.204224 
	C227.938278,418.946045 232.785934,419.132111 237.391846,416.994141 
	C242.293457,414.718903 243.779709,410.076141 243.588776,404.500732 
z"/>
<path fill="#000000" opacity="1.000000" stroke="none" 
	d="
M396.276367,221.096924 
	C390.957031,220.092743 386.012299,219.408218 381.205505,218.182587 
	C375.596161,216.752319 371.628387,211.093567 372.055206,205.449234 
	C372.207611,203.433853 372.211823,200.799454 375.371552,200.831421 
	C378.138000,200.859390 379.345703,202.096161 379.451263,205.155182 
	C379.630249,210.342697 382.760742,211.609375 387.116272,208.429520 
	C393.554016,203.729538 399.874939,198.869720 406.262421,194.100464 
	C407.163086,193.427948 408.158600,192.882462 409.121307,192.271103 
	C412.923431,199.387848 412.894989,199.551895 406.998718,204.031845 
	C403.568115,206.638412 400.126587,209.230637 396.078125,212.292007 
	C400.630005,213.771011 404.749054,214.360733 408.941895,214.788773 
	C415.885315,215.497574 416.687775,216.434021 417.080444,223.793854 
	C410.102112,224.251022 403.576904,221.137573 396.276367,221.096924 
z"/>
<path fill="#000000" opacity="1.000000" stroke="none" 
	d="
M339.041779,391.506653 
	C330.697083,392.936310 324.926331,389.976044 321.631744,382.902435 
	C318.741211,376.696350 320.378693,369.495514 325.712189,364.958771 
	C331.571350,359.974792 339.698486,358.958099 345.090607,362.534485 
	C351.202942,366.588562 353.785217,373.643188 351.431244,380.348206 
	C349.408478,386.109711 345.018616,389.430145 339.041779,391.506653 
M330.823944,380.705872 
	C334.775391,384.260193 338.182404,384.635437 341.247650,381.853851 
	C344.249451,379.129822 344.452759,375.021881 341.632416,371.628113 
	C339.131317,368.618469 336.111877,367.441162 332.456146,369.616241 
	C328.417969,372.018951 327.813202,375.217010 330.823944,380.705872 
z"/>
<path fill="#000000" opacity="1.000000" stroke="none" 
	d="
M348.889954,120.744278 
	C347.094299,117.717285 344.487579,116.228836 341.589417,115.342659 
	C338.353577,114.353249 337.909393,112.094658 338.919128,109.519783 
	C340.075256,106.571533 342.436066,107.921883 344.425659,108.580856 
	C347.626770,109.641098 350.452271,111.401810 353.000763,113.572105 
	C358.932800,118.623817 359.766876,124.962517 355.259949,131.278198 
	C352.945068,134.522095 350.450989,137.640579 347.980530,140.770447 
	C344.595612,145.058868 341.315887,144.888596 339.121582,139.845276 
	C338.372833,138.124344 337.783508,137.773636 336.233551,137.442307 
	C334.652649,137.104355 333.098297,136.331223 331.708191,135.466049 
	C326.106232,131.979553 324.304108,125.979614 327.385925,121.455261 
	C330.364563,117.082375 336.091003,116.692070 341.561920,120.510506 
	C342.924866,121.461777 344.174927,122.592880 345.599152,123.434349 
	C348.342865,125.055367 349.779022,124.538727 348.889954,120.744278 
M334.452362,128.309937 
	C337.874390,133.527710 340.549866,134.025513 344.130768,130.110687 
	C339.584991,124.660210 337.454712,124.111938 334.452362,128.309937 
z"/>
<path fill="#000000" opacity="1.000000" stroke="none" 
	d="
M203.372482,116.040016 
	C191.963348,116.610939 186.908585,113.408684 184.469452,104.413284 
	C182.451416,96.970924 187.046463,89.679802 195.735733,86.536682 
	C203.108368,83.869820 211.653976,87.147896 214.882095,93.881172 
	C218.382507,101.182449 215.743469,109.925507 208.804932,113.757004 
	C207.213730,114.635674 205.465775,115.230469 203.372482,116.040016 
M206.599121,97.947426 
	C203.325211,93.223839 200.531357,92.195244 196.773895,94.330139 
	C193.390869,96.252289 192.006317,100.658356 193.953949,104.303078 
	C195.755386,107.674240 198.504822,109.616592 202.580841,108.305321 
	C206.650574,106.996071 207.978653,103.913544 206.599121,97.947426 
z"/>
<path fill="#000000" opacity="1.000000" stroke="none" 
	d="
M111.134979,183.744232 
	C112.609138,184.248795 113.701599,184.646317 114.792709,185.047531 
	C122.439636,187.859421 122.563934,188.121658 117.772591,195.184067 
	C116.971779,196.364456 117.253403,197.386459 117.305000,198.465500 
	C117.437317,201.232819 116.563896,203.720154 115.335716,206.090836 
	C113.047066,210.508514 108.467339,212.806763 104.789047,211.501404 
	C100.048416,209.819031 97.770386,205.613312 98.936653,200.300018 
	C99.606598,197.247879 100.584488,194.263321 101.501297,190.969772 
	C98.538048,189.679214 97.030922,191.197403 95.773582,193.279846 
	C94.432602,195.500839 94.218803,197.971375 94.259293,200.492249 
	C94.302483,203.181534 92.430649,203.776352 90.311768,203.969284 
	C88.400467,204.143311 87.567375,202.897751 87.444939,201.247437 
	C86.943558,194.489227 88.471390,188.251556 93.480103,183.496902 
	C96.543091,180.589264 100.477684,179.873215 104.630310,181.533035 
	C106.631874,182.333084 108.709480,182.942902 111.134979,183.744232 
M110.824471,200.291245 
	C112.208870,196.820908 112.232361,193.903336 107.911255,192.587830 
	C106.112297,194.349609 105.472717,196.373291 105.272377,198.540146 
	C105.134308,200.033478 105.091125,201.674835 106.775879,202.400177 
	C108.373573,203.088028 109.664093,202.432755 110.824471,200.291245 
z"/>
<path fill="#000000" opacity="1.000000" stroke="none" 
	d="
M273.215881,92.285934 
	C272.806061,103.447243 266.695709,108.755363 255.262009,108.337891 
	C246.761642,108.027519 240.386871,101.111755 240.769821,92.615891 
	C241.108276,85.107658 246.735809,79.297974 254.797974,78.133690 
	C261.815887,77.120216 269.800690,81.643578 272.147522,88.018677 
	C272.604095,89.258919 272.839264,90.580650 273.215881,92.285934 
M263.570343,90.329422 
	C263.127319,89.009285 262.223053,88.057861 261.123596,87.260033 
	C257.772400,84.828239 254.628143,84.988548 251.852341,88.143677 
	C249.390656,90.941772 249.372238,96.147621 251.845947,98.755150 
	C254.649078,101.709946 257.895569,102.198418 261.222534,99.716248 
	C264.137482,97.541481 264.039917,94.313934 263.570343,90.329422 
z"/>
<path fill="#000000" opacity="1.000000" stroke="none" 
	d="
M199.170410,410.356750 
	C188.899719,408.671265 183.452835,402.862885 183.661438,394.269714 
	C183.845016,386.706818 189.358856,380.564301 196.735733,379.704803 
	C204.914673,378.751801 213.495697,384.206177 215.325043,391.520752 
	C217.268799,399.292816 213.409500,406.666412 205.979446,409.612518 
	C203.880875,410.444611 201.756500,410.329163 199.170410,410.356750 
M193.002762,398.427704 
	C195.135056,402.459717 198.477097,403.666656 202.536987,401.898773 
	C206.494095,400.175720 207.278580,396.520325 206.583878,392.707794 
	C205.936035,389.152374 203.221176,387.392975 199.774094,387.412537 
	C195.060181,387.439240 193.487839,391.027679 192.464706,394.846588 
	C192.226868,395.734314 192.592010,396.783600 193.002762,398.427704 
z"/>
<path fill="#000000" opacity="1.000000" stroke="none" 
	d="
M87.756561,301.927246 
	C84.641273,293.130829 87.263397,285.577057 94.331070,282.137634 
	C97.395248,280.646484 99.519295,280.619629 100.623863,284.655579 
	C102.052666,289.876190 104.020432,294.949310 105.794029,300.198059 
	C109.276634,297.603760 109.889778,294.242584 107.756264,290.225952 
	C107.142784,289.070984 106.246086,288.058746 105.427101,287.022278 
	C103.764534,284.918152 105.010750,283.206177 106.291367,281.687866 
	C108.032021,279.624146 109.621925,281.177765 110.979675,282.315216 
	C115.595497,286.182251 117.926804,296.961334 115.473801,302.670288 
	C112.976585,308.482117 106.852592,311.806732 99.519402,311.282379 
	C93.665009,310.863800 90.453911,306.981232 87.756561,301.927246 
M93.765152,293.673126 
	C92.787064,299.611755 94.352470,301.906860 99.922462,302.305878 
	C99.885536,298.083954 98.502930,294.405121 96.390533,291.035217 
	C94.803078,291.158936 94.560638,292.227264 93.765152,293.673126 
z"/>
<path fill="#000000" opacity="1.000000" stroke="none" 
	d="
M86.883026,254.460999 
	C78.436432,248.466019 76.353310,236.399429 82.451614,229.890106 
	C83.765625,228.487503 85.303749,225.627411 87.632622,227.827255 
	C89.571770,229.658966 91.374756,232.273682 88.524292,235.175674 
	C86.184807,237.557434 85.636528,240.336975 87.436676,243.355881 
	C89.199608,246.312363 91.974937,247.047821 95.146873,246.848251 
	C100.874718,246.487854 103.485359,241.372116 100.746010,235.928192 
	C100.109581,234.663422 98.474625,233.706863 99.353119,231.960037 
	C100.161980,230.351669 100.648972,228.201584 102.543999,227.727295 
	C104.661125,227.197403 105.709763,229.161118 106.747490,230.640320 
	C110.477295,235.956894 110.183334,244.828186 106.139275,250.366241 
	C102.129959,255.856735 95.696793,257.309662 86.883026,254.460999 
z"/>
<path fill="#000000" opacity="1.000000" stroke="none" 
	d="
M343.844238,351.015259 
	C350.504913,344.326019 354.997772,344.317963 361.452301,350.691956 
	C362.988983,352.209473 364.478882,353.774628 366.026001,355.281158 
	C367.210175,356.434265 368.092499,357.335815 370.241028,356.256104 
	C373.467224,354.634796 376.364349,358.096954 375.548431,359.765137 
	C373.705505,363.533203 376.338165,365.211182 377.579956,367.511353 
	C373.213531,373.928772 372.990417,373.980804 367.326782,369.934723 
	C364.689362,370.723511 362.681915,375.618469 359.041229,371.335876 
	C355.914276,367.657532 360.894440,366.759277 361.256897,363.756531 
	C359.647827,360.726196 356.526398,358.496094 353.730591,355.993652 
	C352.132507,354.563232 350.287109,354.479950 348.913849,356.222961 
	C347.076447,358.555054 345.087372,358.784821 342.966553,356.941223 
	C340.593292,354.878235 342.459259,353.090759 343.844238,351.015259 
z"/>
<path fill="#000000" opacity="1.000000" stroke="none" 
	d="
M230.372070,109.249649 
	C222.090485,107.523712 221.851837,100.941368 220.847443,94.910751 
	C220.371231,92.051369 221.747101,88.428581 216.643539,88.074692 
	C215.294739,87.981163 214.062225,84.293060 215.240662,83.454597 
	C218.280930,81.291405 218.427689,78.212753 219.586639,75.275681 
	C220.669937,72.530334 226.259796,73.467133 227.440918,76.429878 
	C228.073929,78.017738 228.506729,79.359474 230.596558,79.739342 
	C235.254807,80.586082 235.230453,80.720085 235.341599,85.539536 
	C233.862396,87.576302 229.623489,85.943062 229.537216,89.227119 
	C229.447769,92.632019 230.271973,96.105644 231.040405,99.470695 
	C231.465027,101.330170 233.277802,102.014275 235.043732,101.533478 
	C238.209717,100.671509 239.460571,102.628616 239.951385,104.979744 
	C240.520020,107.703735 238.047058,107.985931 236.191040,108.649467 
	C234.426636,109.280251 232.626755,109.383621 230.372070,109.249649 
z"/>
<path fill="#000000" opacity="1.000000" stroke="none" 
	d="
M115.751060,169.192200 
	C119.134682,171.051422 122.172989,172.777390 125.271355,174.387817 
	C127.627853,175.612610 128.480942,177.121155 126.807503,179.536331 
	C125.397522,181.571259 124.391602,184.205643 121.067223,182.351242 
	C110.489304,176.450653 99.896378,170.576950 89.423302,164.756241 
	C91.586197,156.886002 92.539169,156.389420 98.863838,159.799179 
	C104.425133,162.797394 109.911888,165.933868 115.751060,169.192200 
z"/>
<path fill="#000000" opacity="1.000000" stroke="none" 
	d="
M335.323395,102.116333 
	C334.383087,106.378578 332.954834,109.198654 327.834961,107.363571 
	C324.930084,106.322388 322.315887,108.064400 320.797089,110.821419 
	C319.193909,113.731606 317.616760,116.666977 316.238251,119.687187 
	C314.747681,122.953072 312.823456,123.574860 309.537140,121.935921 
	C306.110840,120.227173 306.580414,118.322151 308.075775,115.573242 
	C311.249298,109.739319 314.369141,103.859718 317.136322,97.826988 
	C319.023071,93.713715 321.970551,93.440376 324.387909,96.173103 
	C326.951111,99.070663 329.923920,99.722198 333.246826,100.366913 
	C333.966980,100.506630 334.563141,101.285408 335.323395,102.116333 
z"/>
<path fill="#000000" opacity="1.000000" stroke="none" 
	d="
M82.778687,259.689697 
	C85.312210,259.405731 86.950569,259.682922 87.637596,262.311920 
	C88.826286,266.860565 92.249947,268.063995 96.542130,267.512909 
	C99.346451,267.152863 102.231659,267.040619 104.922592,266.267365 
	C109.157196,265.050537 110.148674,267.306274 110.780899,270.711945 
	C111.458389,274.361511 109.220528,274.957611 106.524353,275.314941 
	C99.608009,276.231537 92.694893,277.172668 85.776093,278.070099 
	C84.326508,278.258148 82.538803,278.764771 81.882187,276.908203 
	C80.938599,274.240234 79.927238,271.410217 82.800446,269.444855 
	C81.903290,265.966339 75.882240,263.029541 82.778687,259.689697 
z"/>
<path fill="#000000" opacity="1.000000" stroke="none" 
	d="
M312.146423,405.474884 
	C309.739258,407.387299 307.742584,408.054810 306.287170,404.920288 
	C305.301178,402.796722 303.999420,400.819031 307.238251,399.168335 
	C311.299652,397.098450 311.428345,393.461548 309.994324,389.704193 
	C308.406708,385.544403 306.571686,381.479004 304.880829,377.459137 
	C311.272064,372.704163 312.235565,372.855560 315.278809,379.341278 
	C317.820618,384.758362 320.230103,390.239899 322.588928,395.739777 
	C324.355560,399.858887 322.237091,403.513275 317.883118,402.727875 
	C314.777039,402.167572 313.918732,403.752228 312.146423,405.474884 
z"/>
<path fill="#000000" opacity="1.000000" stroke="none" 
	d="
M364.367889,343.658142 
	C362.961517,342.449738 361.946655,341.281189 360.685333,340.522247 
	C357.398376,338.544556 357.603607,336.512604 359.817841,333.695801 
	C362.118744,330.768829 363.975189,331.407684 366.408600,333.394989 
	C371.808105,337.804565 377.285370,342.125793 382.858948,346.312683 
	C385.809570,348.529175 384.559540,350.277802 382.905945,352.483643 
	C381.242065,354.703186 379.803436,355.703857 377.259644,353.627197 
	C373.145874,350.268921 368.860199,347.121216 364.367889,343.658142 
z"/>
<path fill="#000000" opacity="1.000000" stroke="none" 
	d="
M110.738068,216.913635 
	C111.988998,224.656036 111.352699,225.440155 104.181572,224.334259 
	C98.143265,223.403030 92.142349,222.195007 86.163864,220.925858 
	C83.492714,220.358810 81.350342,219.612625 82.257294,215.600006 
	C83.133011,211.725571 84.893593,211.197052 88.131599,211.907257 
	C95.554314,213.535294 102.991814,215.095978 110.738068,216.913635 
z"/>
<path fill="#000000" opacity="1.000000" stroke="none" 
	d="
M273.000977,388.038300 
	C274.973816,385.325073 277.228302,384.229218 280.046967,385.694763 
	C282.051666,386.737091 283.351746,388.477509 283.175781,390.890686 
	C282.980408,393.570160 281.225769,394.977692 278.808380,395.614838 
	C274.662994,396.707550 271.917419,393.359497 273.000977,388.038300 
z"/>
<path fill="#000000" opacity="1.000000" stroke="none" 
	d="
M399.315796,248.163544 
	C399.314026,252.213730 397.412415,254.227661 393.852386,254.021164 
	C390.854584,253.847290 389.080811,251.687698 388.840057,248.811340 
	C388.611664,246.082275 390.079803,243.980118 392.837341,243.347321 
	C396.421509,242.524796 398.387756,244.445572 399.315796,248.163544 
z"/>
<path fill="#000000" opacity="1.000000" stroke="none" 
	d="
M386.602631,353.773773 
	C389.235535,352.004883 391.527283,351.731323 393.626007,353.924866 
	C395.171234,355.539886 395.573395,357.336426 394.332184,359.349762 
	C392.658569,362.064392 390.291046,363.752167 387.283478,362.056915 
	C383.742737,360.061096 384.053223,357.034790 386.602631,353.773773 
z"/>
<path fill="#000000" opacity="1.000000" stroke="none" 
	d="
M78.989594,213.073730 
	C78.766251,216.398285 77.406891,218.590347 74.416695,219.142639 
	C72.200745,219.551910 70.687393,218.111862 69.617996,216.291687 
	C68.452072,214.307205 68.993507,212.402832 70.211838,210.714371 
	C72.651573,207.333191 76.447159,208.214340 78.989594,213.073730 
z"/>
</svg>