<svg version="1.1" id="Layer_1" xmlns="http://www.w3.org/2000/svg" xmlns:xlink="http://www.w3.org/1999/xlink" x="0px" y="0px"
	 width="100%" viewBox="0 0 496 496" enable-background="new 0 0 496 496" xml:space="preserve">
<path fill="#000000" opacity="1.000000" stroke="none" 
	d="
M287.732300,115.817146 
	C283.731506,114.805679 280.304504,113.516350 277.444733,111.110344 
	C271.921204,106.463219 272.532013,100.052727 278.903931,96.720337 
	C280.474396,95.899017 281.243469,95.227501 280.877289,93.362213 
	C280.123474,89.522285 282.404419,87.514511 286.004883,86.086052 
	C284.835999,82.865074 283.138519,79.804474 284.267426,76.129112 
	C286.765747,67.995186 294.255432,64.846519 302.658508,68.878197 
	C305.111298,70.055023 307.019623,71.200134 308.901489,68.099304 
	C310.108154,66.111061 311.799042,67.027565 313.152069,68.164879 
	C314.786285,69.538559 314.029449,71.191750 312.776978,71.948166 
	C309.133881,74.148438 309.119904,77.253357 309.014008,81.077911 
	C308.810577,88.426224 301.486603,92.664406 293.608887,90.819344 
	C291.422699,90.307312 288.168518,87.882195 287.184875,91.386581 
	C286.177124,94.977036 290.324738,94.800522 292.552856,95.748680 
	C294.689972,96.658096 296.983582,97.193855 299.144135,98.055122 
	C303.502411,99.792427 305.953156,102.933853 305.168945,107.755707 
	C304.392303,112.530960 301.417877,115.487007 296.585205,116.206696 
	C293.788788,116.623154 290.939392,116.546616 287.732300,115.817146 
M292.421478,110.960335 
	C295.130432,110.891991 298.035339,110.893173 298.644196,107.436035 
	C299.287781,103.781631 296.228333,103.204147 293.771790,102.324646 
	C291.282623,101.433441 288.749725,100.662933 286.229095,99.861259 
	C283.663483,99.045296 281.494263,99.658676 280.480438,102.215103 
	C279.511932,104.657318 280.386963,106.786232 282.663239,108.184502 
	C285.390228,109.859650 288.354095,110.822998 292.421478,110.960335 
M295.634949,72.425323 
	C290.786102,73.361084 289.603973,76.811142 290.212280,81.008759 
	C290.734772,84.613945 293.654938,85.601845 296.871338,85.799713 
	C300.788849,86.040703 302.738129,83.675735 303.421234,80.273567 
	C304.299622,75.898987 301.471771,73.940796 297.837250,72.748268 
	C297.366943,72.593956 296.865662,72.534035 295.634949,72.425323 
z"/>
<path fill="#000000" opacity="1.000000" stroke="none" 
	d="
M143.478210,391.928040 
	C143.432800,389.510559 143.229446,388.144684 140.323730,388.761810 
	C134.699066,389.956421 130.528275,387.089050 127.767136,382.583374 
	C125.180252,378.362091 126.827400,374.253174 129.521072,370.519684 
	C133.224823,365.386230 136.889984,360.224915 140.590973,355.089417 
	C141.786087,353.431091 142.953598,351.682068 145.426270,353.298523 
	C148.257004,355.149109 146.695038,356.884888 145.400711,358.695190 
	C141.719208,363.844391 138.027817,368.987061 134.408264,374.179688 
	C132.843201,376.424927 131.414627,378.873810 133.760971,381.412689 
	C136.168121,384.017395 139.010422,385.408295 142.698959,383.960266 
	C145.302765,382.938049 147.197845,381.160309 148.785599,378.967590 
	C151.618729,375.054962 154.350616,371.066010 157.275345,367.223572 
	C159.934296,363.730347 160.100845,363.795868 164.095520,367.352234 
	C161.690521,372.169342 158.033890,376.256653 154.967041,380.723328 
	C153.741394,382.508362 152.392334,384.211243 151.216675,386.027405 
	C149.502167,388.675964 148.231644,391.430359 151.195816,394.079437 
	C154.060440,396.639587 157.219299,397.592072 160.771683,395.421875 
	C163.998459,393.450531 166.022095,390.362274 168.162842,387.389404 
	C170.207108,384.550476 172.219208,381.688385 174.265640,378.850983 
	C175.375977,377.311523 176.475845,375.822998 178.724121,377.279572 
	C181.049683,378.786285 180.628983,380.432983 179.264038,382.311462 
	C174.074249,389.453766 168.924423,396.625092 163.733154,403.766327 
	C162.697815,405.190552 161.894165,407.207550 159.465561,406.085388 
	C157.107590,404.995850 157.244644,403.104736 158.161530,401.060059 
	C150.118393,401.196564 145.946106,398.644714 143.478210,391.928040 
z"/>
<path fill="#000000" opacity="1.000000" stroke="none" 
	d="
M126.039162,353.026123 
	C129.343765,350.726318 132.369186,348.656494 135.368713,346.549835 
	C136.997711,345.405670 138.354980,345.350220 139.603577,347.154999 
	C140.823730,348.918671 140.444397,350.175354 138.767792,351.349884 
	C130.990448,356.798096 123.238213,362.282196 115.477997,367.754883 
	C114.116234,368.715240 112.900620,369.091705 111.594841,367.506409 
	C109.966141,365.529083 110.586815,363.964264 112.582069,362.564758 
	C103.029472,359.352203 100.315369,355.088531 101.838005,345.788727 
	C96.984871,345.314178 93.161751,343.098053 90.662193,338.745117 
	C88.260872,334.563263 88.534546,330.567841 91.966293,327.348785 
	C98.056885,321.635651 105.259949,317.348419 112.055138,312.543518 
	C113.645370,311.419067 114.822983,312.053894 115.858162,313.452850 
	C117.168488,315.223663 116.543900,316.548492 114.969627,317.668243 
	C110.082291,321.144653 105.172745,324.589966 100.295677,328.080658 
	C97.126747,330.348755 93.641380,332.558258 96.182961,337.333069 
	C98.370834,341.443420 103.205688,342.826752 107.820091,340.117798 
	C112.835785,337.173309 117.471527,333.587128 122.335594,330.375641 
	C123.875595,329.358856 125.476784,327.457306 127.432098,329.990601 
	C129.365570,332.495575 127.917801,333.824829 125.936577,335.208038 
	C120.746033,338.831726 115.636955,342.572174 110.444626,346.193268 
	C107.623001,348.161011 106.211708,350.698822 107.933441,353.864716 
	C109.712303,357.135529 112.517242,359.173248 116.573486,358.195740 
	C120.054779,357.356781 122.908920,355.297852 126.039162,353.026123 
z"/>
<path fill="#000000" opacity="1.000000" stroke="none" 
	d="
M368.376465,335.410370 
	C369.787659,335.006470 370.915283,334.832001 372.331268,334.612915 
	C372.444763,333.062378 372.496552,331.432343 372.693481,329.820068 
	C373.710999,321.489288 381.680603,316.162476 389.775055,318.334747 
	C392.864746,319.163910 395.634186,320.596130 398.275177,322.375946 
	C403.502808,325.898834 407.617432,330.374542 407.084686,336.992004 
	C406.529266,343.890594 402.216553,348.387756 395.061523,350.787476 
	C399.105438,353.492065 402.763184,355.978455 406.465454,358.396790 
	C408.194885,359.526520 409.306183,360.694305 407.835052,362.820587 
	C406.438293,364.839355 404.945374,364.522491 403.171722,363.352753 
	C391.804413,355.855774 380.413910,348.393921 369.024933,340.929810 
	C366.817383,339.483032 366.099426,337.809326 368.376465,335.410370 
M383.412476,343.143311 
	C385.351013,344.056488 387.228973,345.142944 389.240753,345.846832 
	C393.428833,347.312317 396.796356,345.765778 399.148438,342.283936 
	C401.466583,338.852264 401.887573,334.983124 399.251068,331.595917 
	C396.344635,327.861877 392.454346,325.218018 387.690216,324.366974 
	C381.947601,323.341248 377.251862,327.506378 377.158142,333.368073 
	C377.088715,337.710571 379.647858,340.384766 383.412476,343.143311 
z"/>
<path fill="#000000" opacity="1.000000" stroke="none" 
	d="
M345.617096,147.549149 
	C341.222626,146.234268 340.852692,144.123703 344.062347,141.276138 
	C354.027557,132.435089 363.965240,123.563011 373.946686,114.740402 
	C375.297607,113.546349 376.702423,112.173660 378.677368,114.024002 
	C380.583282,115.809624 380.176208,117.465637 378.362518,119.322281 
	C385.430908,120.553017 390.693909,123.921219 392.083954,130.884415 
	C393.763153,139.295731 388.507904,144.685623 382.440247,149.220978 
	C372.483398,156.663345 361.187073,152.640839 357.961456,140.652313 
	C357.760864,139.906845 357.618591,139.145691 357.309753,137.771103 
	C353.236420,141.235641 349.593445,144.334122 345.617096,147.549149 
M367.896484,145.880402 
	C374.445618,147.847702 381.287964,144.529297 385.102814,137.535675 
	C387.891724,132.422867 385.207062,125.998573 379.609680,124.390862 
	C374.546631,122.936615 367.519348,126.649574 364.352997,132.451950 
	C361.465363,137.743607 362.142212,140.778610 367.896484,145.880402 
z"/>
<path fill="#000000" opacity="1.000000" stroke="none" 
	d="
M425.213196,296.705719 
	C436.301544,300.720154 436.288452,300.715149 432.232666,311.321869 
	C430.629669,315.514038 429.111450,319.738586 427.530060,323.939178 
	C426.929993,325.533081 426.323853,327.194641 424.028198,326.443054 
	C421.618530,325.654175 421.711945,324.020447 422.479767,322.062714 
	C423.572235,319.277191 424.610626,316.469025 425.606262,313.647278 
	C426.591553,310.854828 428.061523,308.201141 428.231293,305.279480 
	C428.045258,305.001282 427.986389,304.810547 427.859985,304.738770 
	C416.708008,298.403687 416.497772,298.475708 412.106659,310.117554 
	C411.695923,311.206512 411.388641,312.345795 410.871460,313.380829 
	C409.992004,315.140900 410.021088,318.250610 406.786560,317.132904 
	C403.150177,315.876343 405.364349,313.227173 405.980927,311.303284 
	C407.339874,307.062836 409.045074,302.933289 410.697998,298.520844 
	C406.081421,295.768066 401.353363,294.465729 396.208710,292.729919 
	C393.998505,298.571259 391.939026,304.138153 389.774109,309.663757 
	C389.083405,311.426788 388.657410,313.883331 385.729736,312.696167 
	C382.832123,311.521179 384.231171,309.403809 384.863495,307.654419 
	C387.123779,301.400909 389.669586,295.245972 391.772339,288.941986 
	C392.935364,285.455231 394.674896,285.222168 397.759552,286.429596 
	C406.737640,289.943817 415.808441,293.221130 425.213196,296.705719 
z"/>
<path fill="#000000" opacity="1.000000" stroke="none" 
	d="
M140.033600,142.816833 
	C138.542664,145.483246 137.012024,146.893036 134.543884,144.285492 
	C125.284737,134.503372 115.990135,124.754829 106.730461,114.973206 
	C106.412285,114.637115 106.324776,114.082672 105.879478,113.049110 
	C110.859764,108.721329 115.100563,103.333153 120.864655,99.627296 
	C126.673462,95.892677 133.135803,97.007355 137.993912,102.271904 
	C142.894073,107.582054 143.324020,113.822571 139.292374,119.503868 
	C136.604935,123.290947 132.315018,125.609734 129.830154,129.709000 
	C132.752350,134.500153 137.895248,137.322266 140.033600,142.816833 
M122.018097,105.433777 
	C119.939430,107.336929 117.859627,109.238846 115.782471,111.143639 
	C114.264412,112.535721 114.240173,114.005119 115.657532,115.453552 
	C118.874725,118.741272 121.695602,122.442955 125.720413,125.402367 
	C128.231628,123.020599 130.665985,120.797478 133.001999,118.475403 
	C136.242325,115.254410 137.008774,111.641777 134.176666,107.780899 
	C130.867142,103.269142 127.623192,102.555298 122.018097,105.433777 
z"/>
<path fill="#000000" opacity="1.000000" stroke="none" 
	d="
M212.856354,401.984985 
	C215.217590,395.235260 220.142014,392.178314 226.583359,391.804138 
	C234.341034,391.353455 241.087402,393.814117 245.503952,400.632599 
	C250.825638,408.848450 249.999161,423.051117 243.954651,430.814301 
	C237.381042,439.256866 223.557663,441.173431 215.304688,434.804230 
	C213.562592,433.459747 212.107849,431.884888 211.179977,429.884094 
	C210.453949,428.318573 209.887848,426.754395 211.891769,425.570984 
	C213.721100,424.490692 214.946609,425.016846 216.019897,426.728882 
	C218.511551,430.703308 222.176926,432.603607 226.852875,432.729828 
	C233.780975,432.916870 237.914810,430.444733 240.319992,423.951599 
	C242.109024,419.121857 243.134201,414.192505 242.018188,408.845764 
	C240.734177,402.694214 237.263336,399.203857 231.330246,397.787506 
	C225.823471,396.472900 221.499313,398.200073 218.359024,402.831970 
	C216.167374,406.064636 214.463257,405.200317 212.856354,401.984985 
z"/>
<path fill="#000000" opacity="1.000000" stroke="none" 
	d="
M397.619751,148.567017 
	C402.630981,145.862747 407.311768,143.325470 411.998413,140.799088 
	C413.867493,139.791534 415.722046,138.147919 417.353485,141.244034 
	C418.962402,144.297440 416.494476,145.034103 414.729919,146.062439 
	C411.317688,148.051025 407.819611,149.892288 403.624481,152.197144 
	C407.747650,154.022995 410.902588,156.018799 412.709076,159.613083 
	C415.662170,165.488770 415.030548,170.532303 409.598511,174.063354 
	C402.663574,178.571396 395.240387,182.328308 388.124054,186.354401 
	C384.287964,183.101059 384.606354,181.012772 388.621979,179.037506 
	C393.694733,176.542252 398.659760,173.811218 403.561340,170.990799 
	C406.632202,169.223831 409.727966,167.216187 408.087219,162.762695 
	C406.472839,158.380737 403.511475,155.923370 398.636932,156.231781 
	C394.639038,156.484726 391.481476,158.769943 388.115784,160.551086 
	C385.615601,161.874191 383.140656,163.245407 380.630127,164.548279 
	C378.797974,165.499069 376.938293,167.329269 375.181946,164.335251 
	C373.470581,161.417831 375.630585,160.551071 377.571655,159.494553 
	C384.148163,155.915009 390.718750,152.324615 397.619751,148.567017 
z"/>
<path fill="#000000" opacity="1.000000" stroke="none" 
	d="
M153.334778,90.229431 
	C160.378159,79.951530 169.979721,80.182915 175.894974,90.445114 
	C178.801300,95.487221 181.767349,100.495087 184.731232,105.503738 
	C185.801575,107.312469 186.859741,109.019135 184.222244,110.483070 
	C181.663239,111.903427 180.619461,110.211044 179.555801,108.401390 
	C176.522293,103.240364 173.540985,98.047195 170.418396,92.940506 
	C168.366516,89.584869 165.829971,87.149887 161.415665,89.249413 
	C157.209869,91.249763 154.903946,95.577263 156.119797,99.838310 
	C157.883011,106.017693 162.182755,110.878044 165.003326,116.514008 
	C165.955902,118.417389 167.649811,120.303131 164.648651,121.935524 
	C161.726547,123.524918 160.822495,121.185753 159.753006,119.368813 
	C153.173584,108.191193 146.611176,97.003372 140.100845,85.785446 
	C139.068756,84.007057 137.365707,82.062737 140.340256,80.317810 
	C143.325211,78.566772 144.084579,81.009796 145.183014,82.784851 
	C147.274643,86.164894 149.319778,89.573715 151.323959,92.871452 
	C153.021667,92.623222 152.573959,91.221962 153.334778,90.229431 
z"/>
<path fill="#000000" opacity="1.000000" stroke="none" 
	d="
M102.716736,284.950562 
	C109.298981,289.783081 112.234627,298.028870 109.945259,304.480927 
	C107.584503,311.134186 98.071182,316.622528 89.488388,316.282745 
	C82.457413,316.004395 77.315697,311.473389 75.239807,303.726593 
	C73.184357,296.056030 78.895241,287.858734 86.831223,286.877960 
	C89.901634,286.498505 90.432350,288.666626 91.174103,290.670441 
	C93.239319,296.249573 95.237404,301.853577 97.311333,307.584076 
	C101.731339,306.600464 104.228958,304.435730 104.710938,300.541687 
	C105.256798,296.131500 104.150131,292.204926 100.025314,289.791687 
	C98.217041,288.733734 95.400337,288.346161 96.806847,285.324066 
	C98.169540,282.396118 100.423882,284.126282 102.716736,284.950562 
M87.145805,294.878204 
	C86.340004,293.542114 85.337418,293.841644 84.191246,294.427246 
	C80.236359,296.447998 79.054298,300.989990 81.347366,305.538940 
	C83.515427,309.839844 87.515663,311.191711 92.153191,308.914490 
	C90.606003,304.463074 89.042999,299.966217 87.145805,294.878204 
z"/>
<path fill="#000000" opacity="1.000000" stroke="none" 
	d="
M362.909088,101.786026 
	C364.007843,106.200027 362.907898,109.645836 360.351807,112.854973 
	C357.867065,115.974541 355.629822,119.292534 353.312897,122.544052 
	C351.727051,124.769577 349.275299,126.823364 352.176666,129.855347 
	C352.879791,130.590103 352.414337,131.793442 351.709839,132.590393 
	C350.756653,133.668671 349.624329,133.386612 348.525177,132.834106 
	C348.082947,132.611816 347.430298,132.373764 347.313232,132.003723 
	C345.413788,125.999504 339.788452,125.621689 335.143005,123.424408 
	C329.254608,120.639229 327.464722,115.182915 329.781708,110.192032 
	C332.442078,104.461479 337.000397,102.522255 343.384827,104.619858 
	C346.218506,105.550865 348.938080,106.831276 351.702454,107.970062 
	C353.734619,108.807182 355.662415,108.940994 356.988678,106.838310 
	C358.436066,104.543701 357.306610,102.735313 355.635773,101.115807 
	C353.205017,98.759689 350.257324,97.939049 346.942169,98.155602 
	C345.041901,98.279732 343.071014,98.345032 343.001160,95.660316 
	C342.928284,92.858826 345.026764,92.426186 347.089172,92.440315 
	C353.955231,92.487358 359.195099,95.510513 362.909088,101.786026 
M338.680237,120.050140 
	C345.532867,121.841278 348.673187,120.315956 351.589630,113.753181 
	C349.020752,112.604797 346.451019,111.455521 343.880890,110.307236 
	C340.867004,108.960693 337.941956,108.643051 336.023865,111.933838 
	C334.234314,115.004166 335.027374,117.681267 338.680237,120.050140 
z"/>
<path fill="#000000" opacity="1.000000" stroke="none" 
	d="
M424.367126,208.230743 
	C423.467377,209.041702 422.867126,209.636566 422.167542,210.071777 
	C413.863586,215.237793 411.989075,214.505814 409.279358,205.136612 
	C407.996826,200.702225 406.660980,196.283264 405.241272,191.492798 
	C401.025360,192.658340 398.017395,194.537491 397.423676,198.659698 
	C396.769958,203.198959 397.739136,207.327545 402.140106,209.833084 
	C403.885651,210.826874 406.147797,211.578873 404.616669,214.214310 
	C402.964203,217.058548 400.802887,215.318634 399.031982,214.353836 
	C390.210083,209.547562 388.947418,194.776978 396.928833,188.710052 
	C401.845978,184.972351 407.536041,183.157120 413.786285,183.757034 
	C425.164825,184.849228 430.942841,197.804855 424.367126,208.230743 
M410.814667,191.856491 
	C412.395691,196.659775 412.936646,201.826996 415.674957,206.408493 
	C420.068695,205.428467 422.034912,202.852646 421.847778,198.601273 
	C421.662750,194.396729 419.928589,191.224335 415.624786,190.092361 
	C413.884460,189.634628 411.732269,188.353912 410.814667,191.856491 
z"/>
<path fill="#000000" opacity="1.000000" stroke="none" 
	d="
M79.026566,191.009598 
	C77.770950,194.094513 78.720566,196.619400 79.683121,199.112946 
	C80.317223,200.755630 80.190872,202.041702 78.424484,202.806122 
	C76.428978,203.669693 75.348328,202.634720 74.453918,200.976898 
	C71.517448,195.534042 73.650696,185.454285 78.606659,181.792770 
	C81.007523,180.018997 83.623947,179.322006 86.600815,180.308380 
	C90.706566,181.668793 94.836174,182.962006 98.981911,184.195450 
	C102.185402,185.148560 105.502785,187.445435 108.394310,183.401703 
	C108.981827,182.580078 110.275558,182.839630 111.144058,183.481506 
	C112.044777,184.147171 112.153938,185.156311 111.986702,186.188065 
	C111.483170,189.294540 109.295235,190.989960 106.356354,192.227173 
	C108.039932,196.421356 108.481033,200.396484 106.602364,204.452759 
	C104.357925,209.298782 100.616951,211.776733 96.083527,211.091202 
	C90.863663,210.301880 87.418396,206.723328 86.824814,201.420837 
	C86.505692,198.570099 87.181717,195.798492 87.503067,192.990768 
	C87.804008,190.361298 88.150650,187.315216 84.704323,186.370804 
	C81.256989,185.426147 79.999016,187.904266 79.026566,191.009598 
M98.968391,204.572235 
	C102.972420,202.871552 103.555687,199.447815 102.706558,195.892700 
	C101.549927,191.050201 97.597099,189.536880 92.140678,188.502243 
	C92.140678,192.134155 92.225029,195.214325 92.120277,198.288040 
	C91.974861,202.555115 93.701942,204.911835 98.968391,204.572235 
z"/>
<path fill="#000000" opacity="1.000000" stroke="none" 
	d="
M200.604294,416.915833 
	C192.535248,420.617859 183.830383,418.668213 179.235153,412.407379 
	C174.822586,406.395447 176.159973,394.898926 182.042343,388.276093 
	C187.395630,382.248871 194.986084,381.268707 202.453552,385.640320 
	C211.522217,390.949341 212.379440,404.286407 204.212997,413.651337 
	C203.234802,414.773041 202.028336,415.695679 200.604294,416.915833 
M185.885223,393.479218 
	C184.273026,396.043945 183.370712,398.879944 182.757507,401.814911 
	C181.776901,406.508484 183.758270,410.418121 188.075775,412.397675 
	C192.631836,414.486603 196.517059,413.583832 199.568237,409.707764 
	C201.350952,407.443085 202.242935,404.769989 203.012238,402.046906 
	C204.626999,396.331268 203.297256,392.486176 198.881836,390.080902 
	C193.797012,387.310974 190.660294,388.003387 185.885223,393.479218 
z"/>
<path fill="#000000" opacity="1.000000" stroke="none" 
	d="
M275.643921,71.946152 
	C276.721130,75.610374 276.526428,78.968903 276.199646,82.252769 
	C275.325348,91.037003 268.602783,97.176888 260.286133,97.068253 
	C251.506424,96.953568 245.528244,91.349335 244.488373,82.258728 
	C242.795731,67.461227 252.661377,57.980118 265.736725,61.845661 
	C270.731323,63.322243 274.146851,66.399704 275.643921,71.946152 
M250.388824,81.186470 
	C250.529541,82.001747 250.605301,82.834702 250.821472,83.629448 
	C252.266602,88.942070 255.818100,91.792114 260.732391,91.623405 
	C265.640442,91.454903 268.727753,88.360474 269.753876,82.652657 
	C270.286438,79.690338 270.532776,76.767220 269.792999,73.777054 
	C268.654572,69.175583 265.388153,66.400970 260.455231,66.432724 
	C255.983200,66.461510 252.821487,68.711739 251.541855,73.018875 
	C250.841766,75.375336 250.738724,77.909164 250.388824,81.186470 
z"/>
<path fill="#000000" opacity="1.000000" stroke="none" 
	d="
M194.907806,103.699699 
	C186.456955,99.826927 181.162323,89.313354 183.064407,80.796638 
	C184.503235,74.354202 189.321533,69.917587 196.157074,68.741089 
	C203.150452,67.537422 208.700638,70.010674 212.246902,76.066223 
	C214.904694,80.604652 216.546844,85.553032 215.836456,90.810616 
	C214.559647,100.260361 206.183655,105.430115 194.907806,103.699699 
M189.638092,79.562195 
	C188.247711,84.861671 189.512238,89.749054 192.133972,94.336594 
	C194.158020,97.878273 197.379288,99.325638 201.387283,98.641243 
	C204.995224,98.025177 208.106659,96.396095 209.271057,92.672974 
	C210.458633,88.875702 209.517410,85.149803 208.109833,81.532272 
	C206.727402,77.979309 204.783310,74.900208 200.689789,74.296387 
	C196.296616,73.648354 192.453873,74.728752 189.638092,79.562195 
z"/>
<path fill="#000000" opacity="1.000000" stroke="none" 
	d="
M347.074219,384.407074 
	C350.283569,394.548767 347.491638,401.672821 339.061218,405.604675 
	C330.950928,409.387207 323.148071,406.581665 317.964020,398.018921 
	C312.345032,388.737793 313.617767,379.804993 321.295715,374.634827 
	C329.477356,369.125427 338.233063,370.731567 343.922546,378.860168 
	C345.061279,380.487030 345.933380,382.300568 347.074219,384.407074 
M338.973145,382.589783 
	C334.358795,376.773407 329.600067,375.593750 324.490173,378.999512 
	C319.728485,382.173218 319.074310,387.156219 322.616913,393.550568 
	C323.828247,395.736969 325.207611,397.807068 327.129822,399.461609 
	C330.512146,402.372986 334.059845,402.217041 337.710419,400.042847 
	C341.333282,397.885132 343.278564,394.823547 342.477203,390.503082 
	C341.988403,387.867737 340.744568,385.493896 338.973145,382.589783 
z"/>
<path fill="#000000" opacity="1.000000" stroke="none" 
	d="
M75.734222,231.008484 
	C73.822937,234.298859 70.791351,236.456604 71.046097,240.802673 
	C71.462852,247.912735 75.994728,251.320557 85.247559,250.724030 
	C92.527832,250.254669 96.567284,245.684601 95.670769,239.030716 
	C95.306961,236.330521 93.783607,234.487961 91.665550,233.000824 
	C90.308266,232.047836 89.439484,230.967865 90.546730,229.270020 
	C91.792412,227.359879 93.337738,227.860794 94.878990,228.756256 
	C99.350983,231.354416 101.111649,235.478409 101.263557,240.429764 
	C101.453270,246.613022 99.012512,251.598007 93.588005,254.549545 
	C86.682198,258.307037 79.499847,258.367218 72.659714,254.255447 
	C64.585335,249.401733 62.973385,236.135696 69.498199,229.898911 
	C71.927872,227.576477 74.013176,227.111938 75.734222,231.008484 
z"/>
<path fill="#000000" opacity="1.000000" stroke="none" 
	d="
M365.394958,372.527435 
	C367.458374,374.927429 369.114258,377.538239 372.423889,374.699036 
	C373.268127,373.974762 374.311920,374.347900 375.056396,375.213989 
	C375.862701,376.152039 376.586334,377.309143 375.451355,378.269806 
	C372.809845,380.505585 373.821869,382.360779 375.504089,384.609741 
	C377.559204,387.357208 375.373352,388.708984 373.378815,389.965881 
	C370.927765,389.402222 370.352081,386.798828 368.115601,385.691925 
	C365.665466,386.386169 364.059143,388.662628 361.903748,390.085693 
	C360.426575,391.061005 359.224670,391.255005 358.029755,389.745148 
	C356.746643,388.123871 357.564484,387.024506 358.855347,385.981079 
	C359.888062,385.146362 360.872589,384.251770 361.909607,383.422638 
	C364.081940,381.685699 363.964447,379.959442 362.181580,377.940247 
	C358.885132,374.206848 355.793182,370.291992 352.473663,366.580078 
	C349.767914,363.554504 346.855530,363.204102 344.080536,366.603790 
	C342.819672,368.148529 341.682953,370.213440 339.315582,368.335846 
	C336.992432,366.493317 338.741455,364.693665 339.796143,363.146790 
	C344.344147,356.476501 351.029327,355.989319 356.503815,361.986969 
	C359.523163,365.294830 362.290253,368.832916 365.394958,372.527435 
z"/>
<path fill="#000000" opacity="1.000000" stroke="none" 
	d="
M216.145859,65.912888 
	C218.483612,63.397400 222.891144,62.792210 221.190292,57.733376 
	C220.689621,56.244228 222.997345,55.660507 224.511063,55.485027 
	C226.262939,55.281937 226.802368,56.532917 227.082535,57.910347 
	C227.342056,59.186283 227.484406,60.486053 227.677322,61.768467 
	C230.348190,62.827660 232.782562,61.538994 235.226929,61.731773 
	C236.858276,61.860439 238.176453,62.059334 238.312744,64.118881 
	C238.434875,65.964745 237.093338,66.113152 235.884445,66.699013 
	C233.550262,67.830193 230.077423,65.928772 228.672195,68.915047 
	C227.496475,71.413582 229.176605,74.111069 229.325882,76.754372 
	C229.503433,79.898186 229.954086,83.031532 230.392761,86.154480 
	C231.072296,90.991905 233.209000,92.394272 237.953918,90.904808 
	C239.906448,90.291901 241.598618,89.805374 242.443848,92.190170 
	C243.318604,94.658279 241.280594,95.371216 239.657288,96.117546 
	C232.113968,99.585632 225.917068,96.235573 224.691483,88.013847 
	C223.981354,83.249939 223.232376,78.480270 222.834442,73.685516 
	C222.578934,70.606651 222.593109,67.915642 218.227264,68.661774 
	C216.895477,68.889381 216.387833,67.484985 216.145859,65.912888 
z"/>
<path fill="#000000" opacity="1.000000" stroke="none" 
	d="
M113.549835,179.186829 
	C110.545158,179.651627 108.252419,178.788666 105.974159,177.642929 
	C95.858559,172.555679 85.704163,167.545502 75.596519,162.442642 
	C73.798660,161.535004 71.136841,161.018723 72.570908,157.850220 
	C74.086273,154.502090 76.154434,155.991257 78.288177,157.064438 
	C88.253174,162.076416 98.247955,167.029221 108.210129,172.046768 
	C110.581863,173.241302 112.793915,174.315781 114.527657,171.138412 
	C115.465286,169.420044 116.944969,169.543243 118.374443,170.416382 
	C119.838142,171.310394 119.470253,172.735107 119.029778,173.997238 
	C118.161674,176.484665 116.531242,178.288452 113.549835,179.186829 
z"/>
<path fill="#000000" opacity="1.000000" stroke="none" 
	d="
M309.024017,104.813675 
	C313.074036,96.424141 316.942169,88.334419 320.915833,80.296875 
	C321.657837,78.796074 322.076691,76.599998 324.723419,77.302681 
	C327.227997,77.967621 327.681152,79.635834 326.951721,82.234192 
	C330.971802,81.234703 334.709351,81.163658 338.037109,83.575272 
	C339.440857,84.592583 340.715942,85.732643 339.470428,87.684456 
	C338.303711,89.512909 337.095978,89.871666 334.949554,88.668777 
	C328.825684,85.236839 325.595764,86.165794 322.026855,92.430977 
	C319.400970,97.040588 317.219208,101.903748 314.855621,106.661911 
	C314.106567,108.169807 313.491180,109.884430 311.256714,109.137260 
	C309.357819,108.502296 307.902039,107.515305 309.024017,104.813675 
z"/>
<path fill="#000000" opacity="1.000000" stroke="none" 
	d="
M429.564117,238.467560 
	C427.243774,237.992386 427.288208,236.719635 427.295959,235.018250 
	C427.322510,229.181580 424.718689,226.343781 418.844055,226.386017 
	C413.215576,226.426468 407.581146,227.044830 401.971497,227.624176 
	C399.616058,227.867447 397.470764,228.175232 397.150269,225.075058 
	C396.813721,221.819565 399.298309,221.933884 401.474792,221.702347 
	C409.725739,220.824646 417.969604,219.878220 426.225098,219.046646 
	C427.920837,218.875854 430.064514,217.940323 431.066162,220.222641 
	C431.939301,222.212067 431.728516,224.141418 429.052002,225.261246 
	C431.312317,228.028412 433.160675,230.792130 433.159760,234.248978 
	C433.159180,236.392532 433.341919,238.875214 429.564117,238.467560 
z"/>
<path fill="#000000" opacity="1.000000" stroke="none" 
	d="
M304.421082,400.597473 
	C302.940033,396.281830 301.609467,392.345123 300.225800,388.427124 
	C299.489227,386.341339 299.897614,384.903503 302.164001,384.160095 
	C304.391357,383.429443 305.238434,384.812073 305.816162,386.467651 
	C308.772369,394.939240 311.686249,403.425659 314.589722,411.915558 
	C315.118927,413.463013 315.940033,415.110474 314.019623,416.360931 
	C311.939758,417.715240 310.276337,417.140228 309.077118,414.653870 
	C306.612000,418.998138 303.456757,421.378937 298.849396,421.453278 
	C297.238190,421.479248 296.349884,420.716278 296.118958,419.176056 
	C295.903412,417.738251 296.278351,416.629517 297.733948,415.916138 
	C306.912537,411.417725 307.214478,410.720642 304.421082,400.597473 
z"/>
<path fill="#000000" opacity="1.000000" stroke="none" 
	d="
M67.635910,263.302856 
	C70.687981,262.279144 72.580696,262.271729 72.733803,266.215240 
	C72.948990,271.757568 75.376526,273.686951 81.057220,273.871155 
	C86.759796,274.056091 92.222115,272.356873 97.819466,271.753937 
	C99.788857,271.541840 102.625732,269.776245 103.307022,273.729370 
	C103.946281,277.438629 101.206100,277.207306 98.985924,277.577240 
	C90.641785,278.967621 82.288887,280.306000 73.949654,281.724854 
	C72.058640,282.046539 70.368164,282.505615 69.605629,279.934174 
	C68.858833,277.415802 70.476837,276.751343 72.425529,276.057373 
	C68.796753,272.583282 65.747971,268.987518 67.635910,263.302856 
z"/>
<path fill="#000000" opacity="1.000000" stroke="none" 
	d="
M375.142822,356.840210 
	C378.191162,359.681641 380.972656,362.288574 383.759735,364.889587 
	C385.306854,366.333374 385.888184,367.769226 384.076385,369.507812 
	C382.503571,371.017120 381.178986,370.647339 379.768494,369.331451 
	C372.981293,362.999573 366.173798,356.689453 359.384918,350.359375 
	C357.896637,348.971649 357.120575,347.494141 358.856476,345.683441 
	C360.663544,343.798553 362.104401,344.858124 363.533508,346.168793 
	C367.320099,349.641510 371.097351,353.124420 375.142822,356.840210 
z"/>
<path fill="#000000" opacity="1.000000" stroke="none" 
	d="
M101.239922,218.195724 
	C103.046432,223.055954 102.477676,224.048538 98.268356,223.438324 
	C89.272415,222.134232 80.303207,220.646393 71.320175,219.252304 
	C69.247879,218.930725 67.921684,218.206894 68.444252,215.682709 
	C68.961563,213.183945 70.445892,213.128922 72.497002,213.469070 
	C81.953712,215.037354 91.425713,216.513382 101.239922,218.195724 
z"/>
<path fill="#000000" opacity="1.000000" stroke="none" 
	d="
M404.717010,263.309998 
	C402.884094,265.984192 400.750488,266.290253 398.598267,264.619476 
	C397.023407,263.396942 396.800781,261.563171 397.682098,259.693237 
	C398.522461,257.910034 400.050140,257.403778 401.790710,257.774780 
	C404.579681,258.369263 405.456299,260.273010 404.717010,263.309998 
z"/>
<path fill="#000000" opacity="1.000000" stroke="none" 
	d="
M264.911804,399.526031 
	C262.853149,396.718719 262.554932,394.336273 265.757904,392.765411 
	C267.329010,391.994904 269.013306,392.268280 270.266052,393.655884 
	C271.505432,395.028656 271.654663,396.710785 270.777771,398.233307 
	C269.500885,400.450287 267.459137,400.663055 264.911804,399.526031 
z"/>
<path fill="#000000" opacity="1.000000" stroke="none" 
	d="
M62.786110,213.337479 
	C62.349625,217.344955 60.612091,219.183533 56.884735,217.344589 
	C55.521801,216.672180 54.835060,215.197083 55.118244,213.586868 
	C55.392948,212.024918 56.314293,210.873169 57.926079,210.529373 
	C60.137131,210.057755 61.754070,210.890762 62.786110,213.337479 
z"/>
<path fill="#000000" opacity="1.000000" stroke="none" 
	d="
M393.271606,372.611389 
	C395.330658,374.610870 395.837677,376.519775 393.944275,378.437958 
	C392.538330,379.862305 390.819427,380.253662 389.063477,378.998627 
	C387.616150,377.964203 386.719940,376.467163 387.426910,374.753723 
	C388.427612,372.328369 390.265778,371.206451 393.271606,372.611389 
z"/>
</svg>