<svg version="1.1" id="Layer_1" xmlns="http://www.w3.org/2000/svg" xmlns:xlink="http://www.w3.org/1999/xlink" x="0px" y="0px"
	 width="100%" viewBox="0 0 496 496" enable-background="new 0 0 496 496" xml:space="preserve">
<path fill="#000000" opacity="1.000000" stroke="none" 
	d="
M285.293945,115.153336 
	C283.372894,114.381378 281.783813,113.835953 280.332489,113.039436 
	C276.488953,110.930000 273.615356,108.093109 273.736145,103.280403 
	C273.849152,98.777580 277.184692,97.197815 280.621399,95.877472 
	C280.974609,88.768730 280.974609,88.768730 285.976898,85.932724 
	C284.795776,82.854675 283.142181,79.784782 284.276459,76.107193 
	C286.783844,67.977768 294.277344,64.841255 302.682373,68.893585 
	C305.160736,70.088486 307.046967,71.142570 308.922943,68.078270 
	C310.140991,66.088669 311.839752,67.048286 313.174622,68.185684 
	C314.800476,69.571014 314.003082,71.232063 312.756866,71.971359 
	C309.064819,74.161659 309.135773,77.304832 309.013336,81.111176 
	C308.776917,88.460030 301.460510,92.665100 293.572388,90.807480 
	C291.390045,90.293541 288.224579,87.882378 287.148590,91.422165 
	C286.119812,94.806709 290.018250,94.738792 292.112885,95.623817 
	C294.405212,96.592369 296.867737,97.152206 299.182739,98.074280 
	C303.313995,99.719757 305.660156,102.651337 305.255615,107.311234 
	C304.876678,111.676933 301.483795,115.467361 297.032776,116.153419 
	C293.220581,116.741020 289.393677,116.534233 285.293945,115.153336 
M289.077515,110.677986 
	C290.729065,110.755074 292.384247,110.939674 294.031250,110.883499 
	C296.372620,110.803642 298.269043,109.926064 298.700897,107.319801 
	C299.112366,104.836456 297.514740,103.663101 295.517334,102.957642 
	C292.243286,101.801292 288.951050,100.682175 285.619537,99.707855 
	C283.460754,99.076508 281.569061,99.856247 280.616150,101.883614 
	C279.605957,104.032837 280.044678,106.105202 281.972900,107.680435 
	C283.813293,109.183929 286.063843,109.811661 289.077515,110.677986 
M303.514282,80.133408 
	C303.101624,75.245811 299.986145,72.048439 295.728821,72.461052 
	C291.631287,72.858177 290.221466,75.767426 290.032959,79.438972 
	C289.861084,82.786827 291.716644,84.775124 294.806946,85.527946 
	C298.980652,86.544708 302.014771,85.211731 303.514282,80.133408 
z"/>
<path fill="#000000" opacity="1.000000" stroke="none" 
	d="
M139.997849,384.582581 
	C144.061478,383.997681 146.721939,381.877533 148.836258,378.914978 
	C151.641922,374.983734 154.533279,371.112274 157.277054,367.138672 
	C159.527740,363.879120 161.623840,364.025391 164.250473,367.687744 
	C159.966339,373.707916 155.513992,379.853119 151.194626,386.090393 
	C149.530838,388.492920 148.243225,391.174072 150.895264,393.761749 
	C153.606140,396.406860 156.694916,397.652161 160.383270,395.627106 
	C162.627457,394.394958 164.340149,392.588593 165.824356,390.560028 
	C168.578140,386.796265 171.266693,382.984802 174.014648,379.216675 
	C175.181519,377.616577 176.210251,375.645508 178.766968,377.315216 
	C181.486328,379.091064 180.288010,380.907745 178.945435,382.764130 
	C173.870148,389.781891 168.800125,396.803497 163.706665,403.808044 
	C162.663940,405.242035 161.811279,407.263519 159.427567,406.054108 
	C157.257889,404.953308 156.850266,403.189301 158.408615,401.027924 
	C148.868881,401.265564 144.638840,397.842468 142.779785,388.525482 
	C138.618042,389.598083 134.704758,389.083160 131.150803,386.375488 
	C126.374680,382.736755 124.935234,377.852600 128.155533,372.787872 
	C132.171127,366.472321 136.759506,360.521271 141.092911,354.407379 
	C142.352295,352.630554 143.771790,352.052612 145.714188,353.492462 
	C147.845856,355.072601 146.947449,356.568573 145.791626,358.170197 
	C142.282898,363.032227 138.746002,367.875366 135.322067,372.796844 
	C130.732239,379.394043 131.740891,382.063232 139.997849,384.582581 
z"/>
<path fill="#000000" opacity="1.000000" stroke="none" 
	d="
M98.865387,321.829834 
	C103.240372,318.743744 107.346069,315.892273 111.389748,312.955414 
	C113.221703,311.624908 114.663635,311.631714 115.984741,313.632172 
	C117.251335,315.550049 116.275513,316.745300 114.793877,317.798798 
	C109.905777,321.274292 104.986862,324.706573 100.109489,328.196960 
	C96.903473,330.491302 93.593910,332.824890 96.293953,337.522430 
	C98.530983,341.414368 103.166550,342.792419 107.569260,340.240204 
	C112.599442,337.324158 117.235229,333.734070 122.109238,330.538818 
	C123.767494,329.451752 125.487007,327.276672 127.559464,330.172455 
	C129.473236,332.846588 127.597656,334.018677 125.747002,335.323395 
	C120.845184,338.779175 116.004868,342.323334 111.066963,345.726257 
	C108.006630,347.835266 105.908379,350.391144 108.045853,354.054077 
	C110.150200,357.660187 113.317566,359.485840 117.744667,357.843964 
	C123.169640,355.831970 127.281876,351.796143 132.058182,348.788330 
	C133.326523,347.989594 134.559967,347.134949 135.801483,346.294220 
	C137.383698,345.222778 138.565903,345.684357 139.597641,347.161926 
	C140.618958,348.624664 140.720428,349.943726 139.161423,351.044891 
	C131.132904,356.715698 123.092224,362.369263 115.050667,368.021515 
	C113.750145,368.935608 112.674011,368.776642 111.596321,367.500824 
	C109.941444,365.541748 110.596970,363.963562 112.578758,362.562805 
	C103.027206,359.350800 100.318710,355.094391 101.836914,345.781647 
	C98.258499,345.229187 94.865257,344.184845 92.371521,341.203583 
	C87.793884,335.731018 88.030472,330.593414 93.365219,325.912201 
	C94.987183,324.488983 96.829445,323.316803 98.865387,321.829834 
z"/>
<path fill="#000000" opacity="1.000000" stroke="none" 
	d="
M375.273224,323.493408 
	C380.707245,317.606354 385.257477,316.249908 392.024933,319.080902 
	C399.641663,322.267212 406.720856,326.697418 407.053497,335.969391 
	C407.320679,343.416412 402.538849,348.140839 395.081329,350.813751 
	C398.850647,353.323181 402.282135,355.574829 405.676483,357.881104 
	C407.424896,359.069031 409.774567,360.041595 407.786621,362.876282 
	C405.859009,365.624878 404.008881,363.913635 402.254486,362.767181 
	C391.518402,355.751495 380.804413,348.701843 370.109436,341.623657 
	C368.642883,340.653046 366.550690,339.905487 367.001251,337.587067 
	C367.532715,334.852417 369.827271,334.701385 372.307343,334.746124 
	C372.724396,330.937653 372.443268,326.972168 375.273224,323.493408 
M378.255615,337.960876 
	C380.882965,342.072174 384.716980,344.498077 389.296295,345.904053 
	C393.541168,347.207336 396.888763,345.740631 399.176544,342.225433 
	C401.664642,338.402405 401.866669,334.293488 398.580933,330.793701 
	C396.799561,328.896332 394.563995,327.296783 392.272949,326.036133 
	C388.686371,324.062653 384.781799,322.891052 381.077881,325.754333 
	C377.224030,328.733521 376.216370,332.682190 378.255615,337.960876 
z"/>
<path fill="#000000" opacity="1.000000" stroke="none" 
	d="
M379.900879,117.178017 
	C379.424988,118.006073 379.057861,118.540245 378.678406,119.092392 
	C389.608582,122.538559 394.440521,129.421463 391.807495,137.715866 
	C389.408661,145.272614 379.134125,153.234009 371.899536,153.141861 
	C365.212311,153.056686 360.151001,148.003967 357.050598,137.975281 
	C353.789825,140.796341 350.651062,143.457458 347.578583,146.193008 
	C346.054260,147.550186 344.692505,148.435944 342.948608,146.454086 
	C341.311371,144.593445 341.927917,143.207214 343.520233,141.793076 
	C353.734589,132.721832 363.910431,123.607025 374.151672,114.566277 
	C377.449554,111.654953 379.115662,113.430885 379.900879,117.178017 
M378.942719,124.250435 
	C372.237488,124.046867 366.134827,127.974815 363.586243,133.936722 
	C361.846313,138.007065 362.810760,141.348160 365.850342,144.316376 
	C368.851868,147.247467 372.278992,147.471939 375.964264,145.903763 
	C378.620392,144.773514 380.717041,142.861877 382.648010,140.786911 
	C388.590515,134.401321 387.542664,128.646606 378.942719,124.250435 
z"/>
<path fill="#000000" opacity="1.000000" stroke="none" 
	d="
M427.212555,309.421753 
	C429.493042,305.191467 427.190155,304.012115 423.939667,302.815155 
	C414.086090,299.186523 416.198120,299.438751 413.040283,307.705048 
	C412.090790,310.190674 411.150452,312.679810 410.211792,315.169556 
	C409.623505,316.730103 408.742706,317.794769 406.853058,317.218719 
	C404.679535,316.556213 404.628143,315.069855 405.285309,313.270294 
	C407.045654,308.450012 408.788574,303.623352 410.655579,298.476257 
	C406.159088,295.764038 401.387329,294.550781 396.196655,292.649750 
	C394.000977,298.495758 391.963531,304.064911 389.803650,309.586182 
	C389.122314,311.327911 388.744568,313.841644 385.803558,312.730591 
	C382.901337,311.634155 384.183105,309.514740 384.833466,307.730011 
	C387.167419,301.325104 389.683655,294.985474 391.943909,288.555420 
	C392.956146,285.675720 394.443848,285.163116 397.220825,286.223389 
	C408.870728,290.671661 420.554688,295.034546 432.284973,299.265717 
	C435.104218,300.282623 435.940552,301.672455 434.854675,304.477722 
	C432.394043,310.834595 430.074921,317.246155 427.658752,323.620483 
	C427.015594,325.317230 426.484558,327.349976 423.881531,326.390717 
	C421.052124,325.347961 422.000336,323.352295 422.708344,321.448273 
	C424.157104,317.551880 425.616119,313.659271 427.212555,309.421753 
z"/>
<path fill="#000000" opacity="1.000000" stroke="none" 
	d="
M137.571732,138.562180 
	C139.360733,140.552994 141.464539,142.196289 138.875031,144.653641 
	C136.041946,147.342178 134.743774,144.417603 133.304520,142.932526 
	C124.970245,134.332733 116.787048,125.586082 108.418869,117.019882 
	C106.114311,114.660782 105.538773,112.974205 108.431007,110.600807 
	C112.278877,107.443199 115.594261,103.619011 119.530373,100.590668 
	C125.753174,95.803024 132.653412,96.582939 137.889526,102.161430 
	C143.424652,108.058472 143.472610,114.589035 138.127213,120.937546 
	C135.572800,123.971329 131.999146,126.041595 129.688736,129.910324 
	C132.226440,132.700790 134.773300,135.501312 137.571732,138.562180 
M135.690643,110.967438 
	C134.270233,106.662193 131.489990,103.811508 126.846779,103.454399 
	C124.068474,103.240723 115.771645,109.774055 114.788300,112.445885 
	C114.369308,113.584320 114.771278,114.462830 115.443474,115.165756 
	C118.721024,118.593163 121.614990,122.430092 125.930153,125.524666 
	C129.362137,120.790512 135.920166,118.803085 135.690643,110.967438 
z"/>
<path fill="#000000" opacity="1.000000" stroke="none" 
	d="
M248.377853,407.994507 
	C250.091782,415.216980 248.815308,421.716095 245.795959,427.799011 
	C240.299057,438.873505 224.955750,442.273987 215.288651,434.791809 
	C213.544128,433.441589 212.092072,431.859650 211.164322,429.854218 
	C210.433838,428.275238 209.913620,426.717621 211.929291,425.547638 
	C213.800461,424.461548 214.989532,425.085876 216.048462,426.775208 
	C219.291794,431.949310 224.261032,433.162842 229.932755,432.664978 
	C230.429688,432.621368 230.932983,432.581818 231.417038,432.469940 
	C238.114716,430.922363 243.371170,421.339020 242.573776,412.147400 
	C241.777557,402.969238 236.866165,397.724518 228.691833,397.368561 
	C224.540405,397.187805 221.273880,398.878540 218.797516,402.181244 
	C217.641510,403.722992 216.744370,406.035156 214.179825,404.136871 
	C211.609085,402.234009 213.154572,400.274628 214.345963,398.505585 
	C221.178680,388.360016 239.261856,389.826050 245.777939,401.106506 
	C246.924393,403.091248 247.486954,405.413300 248.377853,407.994507 
z"/>
<path fill="#000000" opacity="1.000000" stroke="none" 
	d="
M81.428833,289.223145 
	C89.067207,285.471619 89.384407,285.613708 92.013252,292.997833 
	C93.730568,297.821533 95.534409,302.614441 97.346268,307.548523 
	C101.729401,306.629364 104.213089,304.447083 104.706795,300.563416 
	C105.267090,296.155945 104.183655,292.185394 100.035965,289.817780 
	C97.999046,288.655029 95.035378,287.917389 97.038452,284.929321 
	C98.785400,282.323303 101.285294,284.154785 103.211716,285.279663 
	C111.883629,290.343414 113.087723,304.173187 105.433434,310.614197 
	C101.075272,314.281586 95.937920,316.143738 90.277580,316.256134 
	C83.147270,316.397705 78.062729,312.358276 75.638817,304.951630 
	C73.487579,298.378143 75.030045,294.000275 81.428833,289.223145 
M82.741188,307.691833 
	C85.410324,310.028870 88.326599,310.990845 92.084602,309.416168 
	C90.530945,303.880524 89.004288,298.584473 86.379951,293.663177 
	C79.548279,296.823456 78.652428,300.120483 82.741188,307.691833 
z"/>
<path fill="#000000" opacity="1.000000" stroke="none" 
	d="
M387.701111,160.778214 
	C384.588989,162.450455 381.771332,163.888123 379.022095,165.446594 
	C377.055298,166.561554 375.925446,165.736618 375.014496,164.033310 
	C374.144379,162.406418 374.508453,161.178833 376.128265,160.296783 
	C388.548767,153.533493 400.967316,146.766617 413.385620,139.999283 
	C414.916870,139.164841 416.194275,139.190048 417.164154,140.895630 
	C418.116028,142.569565 418.289612,144.016861 416.362030,145.101837 
	C412.351593,147.359161 408.339935,149.614243 403.949860,152.083374 
	C405.786407,153.166702 407.250092,153.898804 408.572021,154.831818 
	C415.612946,159.801178 416.435181,168.961273 409.918091,173.842712 
	C403.129517,178.927490 395.294769,182.277557 387.878052,186.162659 
	C384.146057,182.960938 384.796417,180.915070 388.710571,178.986923 
	C393.930939,176.415314 399.043915,173.606628 404.079865,170.687286 
	C406.856293,169.077805 409.532379,167.051422 408.221313,163.136368 
	C406.910065,159.220871 404.495667,156.481689 400.033325,156.220047 
	C395.396027,155.948151 391.828522,158.590881 387.701111,160.778214 
z"/>
<path fill="#000000" opacity="1.000000" stroke="none" 
	d="
M156.392853,113.545563 
	C150.807953,104.063713 145.398682,94.901878 140.047073,85.706497 
	C138.987686,83.886215 137.438110,81.930679 140.420731,80.269913 
	C143.455551,78.580093 144.134689,81.129593 145.222733,82.867668 
	C147.324554,86.225220 149.360474,89.624023 151.716064,93.484894 
	C152.625504,91.673576 153.173538,90.340057 153.921921,89.130508 
	C159.101013,80.759949 169.596252,80.454948 174.813339,88.659218 
	C178.379013,94.266472 181.559479,100.118073 184.941666,105.842995 
	C185.965286,107.575684 186.584229,109.118820 184.312668,110.436340 
	C182.161209,111.684181 180.911850,110.724579 179.855301,108.923317 
	C176.743195,103.617691 173.681244,98.281136 170.475967,93.032227 
	C168.446365,89.708588 165.978821,87.145531 161.519257,89.207420 
	C157.286743,91.164345 154.914780,95.481224 156.090057,99.726974 
	C157.805862,105.925339 162.143661,110.765907 164.934387,116.413422 
	C165.848267,118.262779 167.742310,120.130356 164.754395,121.872765 
	C161.893616,123.541039 160.922562,121.330009 159.810776,119.479492 
	C158.698105,117.627487 157.659683,115.730873 156.392853,113.545563 
z"/>
<path fill="#000000" opacity="1.000000" stroke="none" 
	d="
M363.301575,106.675888 
	C361.171936,113.414650 356.158844,117.843597 352.734528,123.304787 
	C351.548553,125.196121 349.471954,126.869812 351.917480,129.379074 
	C352.987396,130.476868 352.551971,131.938019 351.370667,132.883133 
	C350.291412,133.746552 349.166473,133.229935 348.130981,132.608841 
	C347.846344,132.438110 347.415314,132.285477 347.334625,132.033752 
	C345.423676,126.074203 339.873657,125.599846 335.184174,123.437790 
	C329.277893,120.714775 327.472260,115.218628 329.764130,110.234192 
	C332.468048,104.353447 337.163605,102.460411 343.821930,104.737030 
	C346.488953,105.648949 349.051544,106.867043 351.658966,107.952347 
	C353.674225,108.791161 355.608307,108.973259 356.962830,106.877625 
	C358.438202,104.594933 357.338043,102.778458 355.669434,101.149544 
	C353.248901,98.786613 350.309662,97.944366 346.990234,98.152390 
	C345.113068,98.270042 343.108948,98.403923 343.002686,95.708305 
	C342.892517,92.911682 344.958618,92.570366 347.041260,92.417091 
	C355.228485,91.814522 363.072021,98.493355 363.301575,106.675888 
M349.946564,113.027611 
	C347.373688,111.913902 344.845215,110.678421 342.216095,109.718834 
	C339.261475,108.640450 336.911987,109.783035 335.676300,112.536682 
	C334.459656,115.247902 335.156830,117.692657 337.699188,119.474457 
	C342.495361,122.835831 350.393250,119.777000 351.566742,114.047623 
	C351.606995,113.851318 350.890167,113.499954 349.946564,113.027611 
z"/>
<path fill="#000000" opacity="1.000000" stroke="none" 
	d="
M397.295593,199.369171 
	C397.123047,204.458344 398.529053,208.307220 403.121796,210.365906 
	C405.007599,211.211212 405.609741,212.466492 404.587616,214.334549 
	C403.444824,216.423172 401.743011,215.651627 400.245636,215.004608 
	C394.934052,212.709488 392.751953,208.077805 391.837494,202.819489 
	C390.862152,197.211166 392.136322,192.135147 397.005981,188.628250 
	C401.867706,185.127075 407.319366,183.273895 413.397125,183.725006 
	C420.815308,184.275589 426.516449,190.045944 427.286438,197.726166 
	C428.056335,205.405563 424.355072,210.417114 416.459900,212.753143 
	C413.270538,213.696823 411.450684,213.022598 410.548523,209.620544 
	C408.977448,203.695587 407.138702,197.841599 405.347076,191.736069 
	C400.829376,192.501221 398.147217,194.694977 397.295593,199.369171 
M412.999329,199.600739 
	C413.842010,201.853500 413.814728,204.490952 415.798370,206.227676 
	C421.246002,204.368561 422.938782,201.342529 421.561737,196.090164 
	C420.295044,191.258896 416.270355,189.065475 410.525055,190.410416 
	C411.261780,193.230667 411.998749,196.051804 412.999329,199.600739 
z"/>
<path fill="#000000" opacity="1.000000" stroke="none" 
	d="
M87.599564,190.422867 
	C87.221352,187.514511 85.887627,186.031403 83.253555,186.200607 
	C80.861412,186.354263 80.075203,188.235260 79.267273,190.137863 
	C78.001656,193.118286 78.313301,195.989716 79.575378,198.840927 
	C80.364395,200.623413 80.295189,202.118271 78.239594,202.893143 
	C76.196480,203.663300 75.191353,202.424484 74.368286,200.789551 
	C71.722832,195.534637 73.501389,186.169800 77.990631,182.300110 
	C80.544571,180.098633 83.417473,179.237381 86.790833,180.362289 
	C91.681725,181.993225 96.618584,183.486313 101.535416,185.039551 
	C103.450996,185.644684 105.483818,186.476105 107.118103,184.676971 
	C108.364861,183.304489 109.602280,182.121826 111.247475,183.645905 
	C112.948196,185.221451 111.822243,187.051010 111.034859,188.684464 
	C110.188721,190.439789 108.469856,191.210632 106.550858,192.017807 
	C107.457161,195.798615 108.567375,199.417221 107.135696,203.248642 
	C105.139946,208.589600 101.149094,211.687363 96.400612,211.132614 
	C90.637520,210.459351 86.874275,206.365417 86.814133,200.248398 
	C86.783279,197.111084 87.334854,193.968048 87.599564,190.422867 
M94.850540,189.052032 
	C93.011040,188.426010 92.459206,189.396805 92.412361,191.009766 
	C92.330742,193.819595 92.195854,196.628784 92.169014,199.439072 
	C92.138870,202.593887 93.748222,204.408554 96.896385,204.689774 
	C100.053024,204.971741 101.840126,203.269760 102.659103,200.381546 
	C104.102768,195.290329 101.911362,191.883224 94.850540,189.052032 
z"/>
<path fill="#000000" opacity="1.000000" stroke="none" 
	d="
M201.550613,385.154358 
	C210.809570,391.314087 212.360291,400.876343 206.075668,411.129333 
	C201.154419,419.158081 192.794327,421.360901 184.485901,416.818085 
	C176.741287,412.583496 174.490601,404.523804 178.283661,394.607513 
	C181.727890,385.603088 188.904404,381.495758 197.435059,383.689392 
	C198.718430,384.019409 199.952255,384.542084 201.550613,385.154358 
M186.860336,411.736237 
	C190.613602,413.872864 194.485077,414.604248 197.897125,411.392242 
	C202.105118,407.431000 203.989166,402.255096 203.528839,396.558655 
	C203.076889,390.965942 195.896606,387.025848 190.700455,389.149323 
	C183.019043,392.288422 180.378754,405.403168 186.860336,411.736237 
z"/>
<path fill="#000000" opacity="1.000000" stroke="none" 
	d="
M249.825912,64.742622 
	C257.009186,59.940704 264.034546,59.725578 270.196320,63.867016 
	C275.543854,67.461182 277.892761,75.938141 275.861603,84.312431 
	C274.135773,91.427864 269.573975,95.762192 262.651886,96.863579 
	C254.051620,98.231995 246.029984,92.652786 244.751801,84.099106 
	C243.713013,77.147545 244.342621,70.458519 249.825912,64.742622 
M268.781738,86.094551 
	C270.249756,81.943840 270.739349,77.746613 269.722473,73.385254 
	C268.636627,68.727974 265.273254,66.914673 261.036224,66.496887 
	C257.025757,66.101456 253.763611,67.846130 252.144424,71.574570 
	C250.547729,75.251259 249.895004,79.178467 250.682220,83.254364 
	C251.529526,87.641396 253.973312,90.491486 258.380066,91.349800 
	C262.741455,92.199265 266.224274,90.778099 268.781738,86.094551 
z"/>
<path fill="#000000" opacity="1.000000" stroke="none" 
	d="
M206.493927,70.196350 
	C213.394363,74.813408 215.508698,81.572578 215.994705,88.899467 
	C216.390427,94.865089 212.321075,100.452271 206.428986,102.820183 
	C200.264542,105.297539 194.301971,105.256187 189.317993,100.251251 
	C184.475189,95.388077 182.350342,89.234734 182.863739,82.506241 
	C183.691650,71.655952 194.999466,65.734955 206.493927,70.196350 
M199.330933,74.110703 
	C191.067871,74.861778 188.109833,78.424820 189.342041,86.527046 
	C189.684189,88.776672 190.499542,91.024063 191.475891,93.094162 
	C194.178406,98.824257 199.618118,100.384979 205.196945,97.356651 
	C209.379990,95.086006 210.080704,91.406479 209.647247,87.190140 
	C208.915482,80.071938 205.816025,75.851685 199.330933,74.110703 
z"/>
<path fill="#000000" opacity="1.000000" stroke="none" 
	d="
M348.148254,395.383728 
	C346.201447,403.476562 336.371643,408.119843 330.138672,407.232269 
	C322.948639,406.208405 315.368896,397.292358 314.681427,389.006104 
	C314.014313,380.965240 317.966675,375.063507 325.891174,372.267700 
	C335.956482,368.716522 347.465424,377.531525 348.301880,389.485626 
	C348.428925,391.301117 348.256958,393.137482 348.148254,395.383728 
M327.142120,399.469818 
	C331.388062,403.040649 335.496613,401.938324 339.343719,398.884247 
	C343.171051,395.845886 343.363556,391.893341 341.603821,387.635040 
	C340.518829,385.009460 339.200775,382.518433 337.275421,380.404083 
	C333.957092,376.759918 329.419769,376.109161 325.098663,378.617737 
	C320.935211,381.034790 319.503082,384.885773 320.983856,389.689606 
	C322.082153,393.252686 324.005554,396.316864 327.142120,399.469818 
z"/>
<path fill="#000000" opacity="1.000000" stroke="none" 
	d="
M95.713509,240.144043 
	C95.651665,236.825897 94.145729,234.742249 91.841187,233.139893 
	C90.315956,232.079376 89.305954,230.891144 90.703377,229.047287 
	C92.093369,227.213211 93.629738,228.074951 95.121521,228.878555 
	C101.603546,232.370392 103.356239,243.242966 98.555038,250.114273 
	C93.918564,256.749817 83.515381,259.149719 75.081810,255.529327 
	C67.544456,252.293655 64.117874,245.304993 65.883125,236.619522 
	C66.388039,234.135269 67.510231,231.924652 69.320389,230.090927 
	C72.144051,227.230545 74.386963,227.165421 75.971436,231.685028 
	C71.023026,235.424835 69.554810,240.389099 72.386406,246.050903 
	C74.445992,250.169083 81.373131,251.943054 87.724106,250.467987 
	C92.877747,249.271011 95.172112,246.422668 95.713509,240.144043 
z"/>
<path fill="#000000" opacity="1.000000" stroke="none" 
	d="
M356.742126,362.196716 
	C360.848907,367.034729 364.710968,371.606537 368.206116,375.744019 
	C370.170410,376.377502 371.034027,375.428925 372.009857,374.863312 
	C373.169922,374.190826 374.175140,374.186310 375.114410,375.265656 
	C376.150726,376.456543 376.363007,377.654877 375.096741,378.748199 
	C373.106201,380.466797 373.459930,382.074554 375.018158,383.870453 
	C377.585754,386.829742 375.855164,388.539917 373.363495,389.985901 
	C370.853333,389.283997 370.300751,386.644867 368.073914,385.716064 
	C365.535675,386.448090 363.952240,388.779724 361.749573,390.196716 
	C360.164856,391.216187 358.997772,391.059814 357.910858,389.578735 
	C356.862946,388.150787 357.502655,387.107727 358.639679,386.158417 
	C359.662720,385.304291 360.658569,384.414795 361.714203,383.603027 
	C364.123566,381.750122 363.984558,379.925934 362.020538,377.739349 
	C358.904236,374.269928 356.033966,370.580353 352.942505,367.087585 
	C349.553558,363.258789 347.249695,363.215729 343.883423,366.888519 
	C342.604523,368.283905 341.561768,370.012421 339.420654,368.419861 
	C336.996246,366.616516 338.675751,364.814453 339.728271,363.239502 
	C344.165802,356.599426 350.297119,356.155060 356.742126,362.196716 
z"/>
<path fill="#000000" opacity="1.000000" stroke="none" 
	d="
M229.332794,77.813980 
	C229.695755,80.884079 230.003799,83.520638 230.385544,86.146492 
	C231.088409,90.981361 233.212326,92.397705 237.935242,90.913605 
	C239.874756,90.304153 241.568909,89.783417 242.436157,92.165138 
	C243.332962,94.627991 241.308762,95.354630 239.687485,96.106323 
	C232.167892,99.592705 225.911011,96.252357 224.700500,88.067070 
	C223.948120,82.979607 223.241211,77.878098 222.771088,72.759270 
	C222.528641,70.119476 222.257202,68.105492 218.805191,68.714653 
	C217.184219,69.000710 216.370331,67.823174 216.180496,66.355919 
	C215.961914,64.666298 217.035934,63.939400 218.529449,63.782124 
	C220.494415,63.575199 221.736053,62.790195 221.248688,60.587738 
	C220.668930,57.967758 220.914291,55.811745 224.180328,55.547554 
	C227.648132,55.267033 226.895782,58.106670 227.329941,60.047737 
	C227.469482,60.671707 227.658096,61.284698 227.808243,61.843094 
	C230.151749,62.744560 232.254379,61.619747 234.374268,61.766785 
	C235.959747,61.876759 237.851608,61.334530 238.268936,63.763718 
	C238.690552,66.217766 236.829071,66.402161 235.250717,66.825806 
	C228.452332,68.650597 228.449814,68.641228 229.332794,77.813980 
z"/>
<path fill="#000000" opacity="1.000000" stroke="none" 
	d="
M81.594620,165.471161 
	C79.471985,164.410995 77.638847,163.593887 75.910934,162.594818 
	C74.063301,161.526535 70.978142,161.177124 72.646065,157.712875 
	C74.267723,154.344696 76.372787,156.126434 78.423698,157.152252 
	C88.257317,162.070847 98.102547,166.966324 107.924744,171.907593 
	C110.416389,173.161041 112.785370,174.471649 114.637344,170.985336 
	C115.430122,169.492920 116.800583,169.619110 118.113335,170.252151 
	C119.677269,171.006317 119.467957,172.373260 119.143028,173.712326 
	C117.956276,178.602921 112.778091,180.794159 107.462227,178.276382 
	C98.880760,174.211914 90.434044,169.862961 81.594620,165.471161 
z"/>
<path fill="#000000" opacity="1.000000" stroke="none" 
	d="
M315.180878,92.258728 
	C317.206238,88.030434 318.991730,84.098885 320.939850,80.249626 
	C321.700714,78.746300 322.128174,76.587677 324.773590,77.312218 
	C327.306824,78.006058 327.621307,79.729362 326.988556,82.211250 
	C330.992615,81.260765 334.738892,81.148903 338.073242,83.598473 
	C339.480957,84.632652 340.709656,85.784065 339.451721,87.720642 
	C338.258972,89.556862 336.910675,90.114883 334.943115,88.594803 
	C329.179321,84.141876 325.036743,87.267387 322.277985,92.037025 
	C319.540955,96.769127 317.243530,101.760895 314.866974,106.693558 
	C313.868835,108.765198 312.834229,110.037483 310.311035,108.764992 
	C307.967346,107.583008 308.431274,106.000801 309.309998,104.213448 
	C311.213837,100.340958 313.107941,96.463676 315.180878,92.258728 
z"/>
<path fill="#000000" opacity="1.000000" stroke="none" 
	d="
M397.390808,223.256836 
	C404.528931,220.331619 411.960602,221.153656 419.083679,219.809464 
	C421.357300,219.380432 423.691040,219.231995 426.005280,219.068924 
	C427.739502,218.946701 429.904419,217.958298 430.970673,220.027130 
	C432.041046,222.103882 431.814240,224.248856 429.005280,225.296906 
	C431.649078,228.303162 433.327606,231.309784 433.171936,235.009109 
	C433.092102,236.906433 432.838593,238.833405 430.172394,238.572800 
	C428.053223,238.365677 427.179443,237.523529 427.258026,235.012527 
	C427.440247,229.187408 424.718628,226.345184 418.851013,226.386200 
	C413.226471,226.425522 407.580078,226.938232 401.994720,227.647919 
	C398.550415,228.085556 396.785431,227.364212 397.390808,223.256836 
z"/>
<path fill="#000000" opacity="1.000000" stroke="none" 
	d="
M302.981201,383.982666 
	C305.671112,384.379517 305.826691,386.453918 306.402985,388.092041 
	C309.105865,395.774689 311.749481,403.478729 314.337891,411.200714 
	C314.883331,412.828003 316.180695,414.629211 314.223083,416.205017 
	C312.099426,417.914581 310.325714,416.995514 308.910522,414.826080 
	C306.791443,418.684357 304.063782,420.910553 300.095123,421.353607 
	C298.385315,421.544495 296.641754,421.704987 296.178284,419.418549 
	C295.722931,417.171936 296.725494,416.232880 298.954376,415.654083 
	C305.406189,413.978607 307.151001,410.987823 305.372009,404.112518 
	C304.042419,398.974030 302.169464,393.968872 300.389679,388.957153 
	C299.504730,386.465271 299.743683,384.733673 302.981201,383.982666 
z"/>
<path fill="#000000" opacity="1.000000" stroke="none" 
	d="
M74.586914,281.557434 
	C72.392105,282.037964 70.528397,282.740509 69.684998,280.167267 
	C68.870461,277.682037 70.024818,276.429321 73.086571,276.197998 
	C69.026085,273.428955 67.204498,270.216888 66.875435,266.231262 
	C66.733376,264.510620 66.983482,262.751801 69.295219,262.650116 
	C71.348373,262.559814 72.531952,263.135803 72.757103,265.700897 
	C73.334526,272.279266 75.375534,273.880035 82.027382,273.885101 
	C87.878899,273.889587 93.489265,272.149231 99.254845,271.519592 
	C101.192268,271.307983 102.900345,270.967163 103.315277,273.679993 
	C103.729958,276.391144 102.383766,277.083008 100.025833,277.436188 
	C91.668091,278.688141 83.335762,280.109741 74.586914,281.557434 
z"/>
<path fill="#000000" opacity="1.000000" stroke="none" 
	d="
M366.706543,357.305328 
	C364.038544,354.783508 361.627380,352.508118 359.233948,350.214264 
	C357.695221,348.739594 357.250671,347.228851 359.008453,345.538818 
	C360.669006,343.942230 362.008789,344.779694 363.313965,345.982086 
	C370.018250,352.158508 376.715698,358.342346 383.403473,364.536621 
	C384.968170,365.985901 386.204895,367.457611 384.078400,369.503235 
	C381.934814,371.565277 380.540497,370.036346 379.044312,368.656677 
	C375.023193,364.948792 370.995819,361.247711 366.706543,357.305328 
z"/>
<path fill="#000000" opacity="1.000000" stroke="none" 
	d="
M71.880447,213.386353 
	C81.311111,214.885971 90.341827,216.334167 99.383026,217.713638 
	C101.500145,218.036667 102.784264,218.776749 102.451683,221.246094 
	C102.102570,223.838181 100.621078,223.889313 98.517784,223.541595 
	C89.494484,222.049759 80.451523,220.676926 71.416107,219.258316 
	C69.891571,219.018951 68.221497,218.744324 68.341675,216.734589 
	C68.451530,214.897537 68.762901,212.904922 71.880447,213.386353 
z"/>
<path fill="#000000" opacity="1.000000" stroke="none" 
	d="
M397.255585,261.004944 
	C398.188599,257.809784 400.170532,257.109344 402.724365,258.036011 
	C404.440186,258.658600 405.235840,260.164490 405.057343,261.983856 
	C404.856873,264.027252 403.674866,265.383972 401.593140,265.535492 
	C398.730530,265.743805 397.398102,264.106995 397.255585,261.004944 
z"/>
<path fill="#000000" opacity="1.000000" stroke="none" 
	d="
M263.382965,396.109619 
	C264.001801,392.866882 265.939240,392.013306 268.547699,392.629700 
	C270.615265,393.118317 271.384613,394.732086 271.211060,396.773102 
	C271.051605,398.648407 269.958099,399.819611 268.149506,400.140320 
	C265.299133,400.645721 263.821747,399.196564 263.382965,396.109619 
z"/>
<path fill="#000000" opacity="1.000000" stroke="none" 
	d="
M59.712456,210.474426 
	C62.414822,211.485443 63.497810,213.081116 62.492783,215.560471 
	C61.736336,217.426575 60.272766,218.451157 58.215969,217.988144 
	C56.236786,217.542587 55.045555,216.074799 55.111214,214.103745 
	C55.195747,211.565933 56.817482,210.354919 59.712456,210.474426 
z"/>
<path fill="#000000" opacity="1.000000" stroke="none" 
	d="
M388.951721,372.699402 
	C391.933014,371.117859 393.716888,372.256470 394.831421,374.649719 
	C395.643158,376.392792 394.855347,377.872070 393.387756,378.918121 
	C391.690277,380.128052 389.939087,380.038452 388.498901,378.520691 
	C386.751495,376.679199 386.718262,374.744263 388.951721,372.699402 
z"/>
</svg>