<svg version="1.1" id="Layer_1" xmlns="http://www.w3.org/2000/svg" xmlns:xlink="http://www.w3.org/1999/xlink" x="0px" y="0px"
	 width="100%" viewBox="0 0 1024 1024" enable-background="new 0 0 1024 1024" xml:space="preserve">
<path fill="#000000" opacity="1.000000" stroke="none" 
	d="
M263.957336,743.007507 
	C261.045807,744.981873 258.392822,746.704834 255.859589,748.588745 
	C253.482056,750.356812 251.662766,750.082825 250.074829,747.562317 
	C248.305313,744.753662 246.456635,741.994080 244.607697,739.236450 
	C242.995941,736.832520 244.597397,735.212769 246.072952,733.823853 
	C245.442215,732.016541 243.988846,731.822998 242.829926,731.293152 
	C231.997864,726.340210 226.231354,716.552307 227.541473,704.799561 
	C227.928314,701.329224 226.917953,700.010132 223.411316,698.943726 
	C212.396835,695.594238 206.082504,687.429871 203.564240,676.554382 
	C201.386398,667.148987 206.082764,659.848999 213.101120,654.481506 
	C222.209488,647.515564 231.501770,640.539368 241.563446,635.152527 
	C249.197250,631.065552 248.964310,640.839539 252.537979,644.019348 
	C255.480911,646.637939 253.301422,648.584473 250.810196,650.234802 
	C243.742493,654.917053 236.720917,659.669800 229.723648,664.456787 
	C228.219742,665.485718 226.809738,666.688782 225.502533,667.961670 
	C220.877121,672.465698 220.147217,677.077515 223.209991,681.802002 
	C226.691360,687.172180 232.167328,689.179810 237.871872,687.064148 
	C243.731369,684.891052 248.388107,680.722107 253.549698,677.397400 
	C257.466156,674.874817 261.283234,672.194580 265.094940,669.514038 
	C267.481415,667.835632 269.314392,668.115662 270.923737,670.617065 
	C272.453522,672.994812 273.998535,675.395386 275.821289,677.544678 
	C278.852234,681.118652 277.419128,683.252014 274.039642,685.456116 
	C266.244110,690.540405 258.519897,695.744019 250.928818,701.127747 
	C247.103790,703.840637 244.373398,707.556763 245.368134,712.596924 
	C246.301102,717.324097 249.310455,720.563965 253.885666,722.248230 
	C258.722198,724.028625 262.748627,721.771179 266.496948,719.319641 
	C273.738129,714.583618 280.901703,709.706482 287.847046,704.550537 
	C291.069275,702.158569 293.067017,702.500061 295.086945,705.758118 
	C297.262939,709.267944 299.611420,712.670898 302.230133,716.644775 
	C289.362244,725.519531 276.815216,734.172913 263.957336,743.007507 
z"/>
<path fill="#000000" opacity="1.000000" stroke="none" 
	d="
M369.267395,803.246887 
	C364.604401,809.968933 360.079865,816.351868 355.690216,822.826233 
	C353.589844,825.924194 351.461609,826.806091 348.465698,823.929626 
	C347.159027,822.674988 345.556610,821.701538 344.004761,820.734802 
	C340.971161,818.845032 338.144653,816.933716 341.038422,812.827393 
	C335.918762,810.812500 330.718719,811.602356 326.145264,809.022827 
	C319.536194,805.295105 314.739868,800.258118 312.963654,792.898499 
	C312.070770,789.198975 310.352112,788.003601 306.722382,788.294739 
	C302.556244,788.628967 298.485931,788.154419 294.575256,786.233704 
	C277.626373,777.909058 273.361755,763.847107 283.545685,748.010315 
	C289.123871,739.335815 295.458832,731.151062 301.294678,722.637268 
	C303.253845,719.779114 305.209198,719.696960 308.017303,721.277344 
	C319.541382,727.763428 319.626007,728.228271 311.994812,738.661011 
	C307.774628,744.430481 303.697662,750.316589 299.814056,756.317078 
	C295.562805,762.885559 296.304901,768.761047 301.519165,772.774963 
	C306.795013,776.836304 314.183960,776.022888 318.826324,770.109558 
	C324.784882,762.519714 330.311737,754.576782 335.743622,746.594788 
	C337.846588,743.504578 339.618317,742.992798 342.488739,745.422058 
	C345.529053,747.995056 350.062439,749.700989 351.613159,752.911377 
	C353.579681,756.982788 348.206055,759.447754 346.264160,762.711426 
	C342.440308,769.138062 337.610077,774.964905 333.769562,781.382935 
	C328.511536,790.169800 331.709961,797.180359 341.691589,799.162292 
	C347.537933,800.323059 351.500580,796.814758 354.686218,792.530029 
	C359.752563,785.715820 364.783264,778.861877 369.490906,771.799438 
	C372.032104,767.987061 374.212128,767.645996 377.905457,770.372925 
	C387.310059,777.316895 387.484528,777.224060 381.067871,786.702332 
	C377.338501,792.211121 373.339142,797.537109 369.267395,803.246887 
z"/>
<path fill="#000000" opacity="1.000000" stroke="none" 
	d="
M566.816895,201.914856 
	C567.430115,187.719604 574.705505,175.220963 589.824463,172.138443 
	C600.514648,169.958908 609.863220,172.522430 617.842834,180.015839 
	C619.146606,181.240219 619.897949,183.066940 622.095886,183.816757 
	C624.420593,177.615509 628.732300,180.235641 632.745178,181.589813 
	C639.800537,183.970673 640.049011,184.070770 638.120728,190.991394 
	C633.930908,206.029053 629.826599,221.108414 624.987305,235.942337 
	C619.771301,251.930923 605.920044,258.923309 589.462891,255.109802 
	C579.581177,252.819992 570.435059,249.364700 562.806396,242.375854 
	C559.475891,239.324677 559.166931,236.867722 562.602722,233.731339 
	C564.536255,231.966263 565.936584,229.616943 568.098999,226.867188 
	C574.082397,233.770233 580.309448,237.675598 587.587708,239.967667 
	C598.236206,243.321060 605.848389,239.420761 608.284546,228.504898 
	C596.178711,231.394531 584.979492,230.087265 575.799438,221.341293 
	C570.462463,216.256668 567.358521,209.846512 566.816895,201.914856 
M614.418457,208.674362 
	C616.594543,202.473312 616.833252,196.497589 611.540833,191.671661 
	C606.684021,187.242905 598.222717,185.902191 593.393860,188.442032 
	C587.513123,191.535141 584.438232,197.291412 585.240112,203.705856 
	C585.941650,209.317368 590.512756,214.047958 596.648254,215.512039 
	C604.474426,217.379562 609.775391,215.503250 614.418457,208.674362 
z"/>
<path fill="#000000" opacity="1.000000" stroke="none" 
	d="
M831.873901,705.818848 
	C831.076904,707.325562 830.430786,708.493042 829.869995,709.700073 
	C828.282349,713.117004 826.028931,713.827026 822.627197,711.997986 
	C803.574219,701.753174 784.469482,691.604675 765.384766,681.418823 
	C764.944824,681.184021 764.542419,680.879272 764.105347,680.638428 
	C753.633484,674.868225 752.967041,676.710876 759.291809,664.470764 
	C760.892456,661.373169 762.865723,660.460938 766.416626,661.483276 
	C765.072754,651.709900 768.352722,643.809326 774.343018,636.887024 
	C778.243774,632.379456 782.865295,628.875671 788.905029,627.849792 
	C804.727722,625.162292 820.765137,633.191040 826.379944,646.408569 
	C832.169189,660.036865 827.094543,676.169739 812.701660,684.882324 
	C814.648315,688.597534 818.862549,689.041260 821.832336,691.159912 
	C823.977417,692.690186 826.534729,693.638000 828.892639,694.875366 
	C835.962891,698.585632 835.959900,698.591309 831.873901,705.818848 
M796.143066,645.133179 
	C793.320129,645.073853 790.556946,644.955139 787.935974,646.532837 
	C782.596680,649.746887 778.500977,656.970215 779.471802,661.880371 
	C780.886230,669.033813 787.884949,675.118713 795.263672,675.849731 
	C801.288452,676.446594 806.067261,674.470642 809.464233,669.454529 
	C812.943481,664.316833 813.346130,658.969360 810.051331,653.575500 
	C807.065552,648.687683 802.210388,646.631653 796.143066,645.133179 
z"/>
<path fill="#000000" opacity="1.000000" stroke="none" 
	d="
M861.748657,574.064819 
	C864.235901,574.741089 866.322205,575.314941 868.398010,575.924438 
	C876.101440,578.186218 876.182922,578.212341 874.197571,585.790527 
	C870.238159,600.903442 866.127808,615.976990 862.200500,631.098083 
	C861.365662,634.312622 859.906982,635.430298 856.509033,634.685303 
	C847.234253,632.652100 846.667847,632.169922 848.765198,623.209167 
	C850.881653,614.166870 853.251404,605.178894 855.740234,596.231140 
	C856.708740,592.749207 855.395264,591.404236 852.234863,590.601501 
	C841.487061,587.871582 841.405151,587.787903 838.327698,598.178223 
	C836.441345,604.546936 834.717957,610.977783 833.278625,617.459961 
	C832.409302,621.375061 830.753906,623.085205 826.710999,621.608582 
	C825.311523,621.097351 823.836975,620.785156 822.387451,620.418701 
	C819.189514,619.610229 818.094299,617.734741 818.985901,614.477234 
	C821.134033,606.629639 823.039185,598.714661 825.249146,590.885254 
	C827.053284,584.493469 827.169312,584.498535 820.938599,582.604736 
	C810.081177,579.304626 810.101379,579.309937 807.148315,590.589600 
	C805.086609,598.464478 802.823730,606.289551 800.916626,614.200928 
	C799.858948,618.588806 797.776367,620.613525 793.160339,619.159912 
	C791.578003,618.661682 789.917175,618.418396 788.304260,618.010620 
	C785.577148,617.321350 784.578735,615.908264 785.392822,612.897644 
	C789.901367,596.223206 794.307556,579.519836 798.575623,562.782288 
	C799.617188,558.698059 801.608459,557.986084 805.479919,559.047974 
	C824.067566,564.146301 842.716003,569.023254 861.748657,574.064819 
z"/>
<path fill="#000000" opacity="1.000000" stroke="none" 
	d="
M718.171753,300.161072 
	C731.335510,289.120972 744.319580,278.418213 757.083801,267.459412 
	C760.687134,264.365723 763.351013,263.399902 766.115234,268.161255 
	C767.017944,269.716248 768.447693,270.979279 769.704468,272.311646 
	C771.990967,274.735718 773.504211,277.187317 769.391541,280.338684 
	C780.001404,283.136169 786.752441,289.500641 790.762756,298.541138 
	C793.523132,304.764038 793.890320,311.317505 791.965088,318.072693 
	C788.566589,329.997253 774.843018,340.793549 762.170959,341.085022 
	C745.884705,341.459595 737.247070,333.992462 730.781433,313.433105 
	C725.436035,317.653870 720.073608,321.500580 715.187378,325.878815 
	C711.778687,328.933167 709.693359,328.847687 706.706604,325.252167 
	C699.076660,316.067200 698.917847,316.202637 707.930725,308.718628 
	C711.261963,305.952515 714.583008,303.174194 718.171753,300.161072 
M747.582825,318.847992 
	C756.119385,326.663147 766.375793,325.168793 773.479370,315.104919 
	C776.696045,310.547821 776.690430,305.495544 774.505859,300.860779 
	C772.248779,296.072388 768.342224,292.711304 762.539551,292.265381 
	C754.683105,291.661621 749.537659,295.921600 745.775574,301.946320 
	C742.333191,307.459137 743.437866,313.087677 747.582825,318.847992 
z"/>
<path fill="#000000" opacity="1.000000" stroke="none" 
	d="
M234.161118,269.160889 
	C243.947891,260.149689 251.543320,249.244186 263.021698,242.634186 
	C272.215088,237.340012 281.949615,236.552490 291.027802,242.189056 
	C300.295532,247.943298 306.008942,256.485657 305.086212,267.995941 
	C304.529022,274.946472 301.689911,281.213013 297.012848,286.439545 
	C293.239136,290.656586 289.247650,294.687927 285.209106,298.655365 
	C282.768555,301.052948 282.763123,303.039276 285.271698,305.371735 
	C288.319794,308.205750 291.122040,311.302582 294.133118,314.178436 
	C296.406555,316.349792 296.337219,318.228455 294.276154,320.598511 
	C285.039673,331.219788 285.046295,331.295319 274.964020,321.345581 
	C261.210144,307.772491 247.524048,294.130798 233.799835,280.527618 
	C228.263962,275.040588 228.253067,275.051575 234.161118,269.160889 
M287.502014,269.357239 
	C286.856140,263.701172 284.497467,259.180908 278.884766,257.081726 
	C273.232391,254.967697 268.449982,256.941071 264.308197,260.792572 
	C261.028534,263.842377 257.953857,267.111664 254.750366,270.244843 
	C253.119568,271.839844 253.091476,273.358368 254.705444,274.954071 
	C259.425751,279.621002 264.125885,284.308441 268.861938,288.959259 
	C269.958618,290.036194 271.259827,291.110413 272.715485,289.617035 
	C278.432922,283.751495 285.814392,279.112183 287.502014,269.357239 
z"/>
<path fill="#000000" opacity="1.000000" stroke="none" 
	d="
M803.393433,402.485962 
	C798.752258,404.828033 794.390076,406.898499 790.139526,409.177094 
	C787.520935,410.580780 785.855347,410.265991 784.692993,407.359222 
	C783.709412,404.899261 782.358887,402.588806 781.256592,400.173004 
	C778.617188,394.388428 778.665283,394.436371 784.607666,391.568268 
	C792.100769,387.951782 799.623779,384.383392 806.986877,380.514526 
	C816.058105,375.748138 817.803101,370.550537 813.523071,362.295624 
	C810.295471,356.070770 802.219543,354.073303 794.683777,357.711060 
	C786.896118,361.470367 779.088013,365.194427 771.402588,369.154480 
	C768.320618,370.742523 766.522949,370.786926 764.821289,367.213593 
	C758.017273,352.925812 757.255188,356.423553 770.226196,349.803558 
	C789.791260,339.818298 809.567200,330.246735 829.181641,320.356903 
	C832.497742,318.684845 834.497070,319.190399 835.815613,322.593506 
	C835.995972,323.059021 836.136169,323.545929 836.366821,323.985260 
	C843.050903,336.718567 840.993347,334.382294 829.985474,340.236786 
	C825.915222,342.401581 821.384583,343.736053 817.839233,346.646210 
	C817.788025,348.670410 819.343140,348.901215 820.394470,349.585480 
	C834.112549,358.514038 841.158325,382.888733 819.760925,394.193146 
	C814.464172,396.991516 809.069336,399.604218 803.393433,402.485962 
z"/>
<path fill="#000000" opacity="1.000000" stroke="none" 
	d="
M301.530975,203.469223 
	C305.308075,200.408142 307.773834,200.913467 310.109253,204.983322 
	C313.649353,211.152512 317.693878,217.032288 321.880371,223.593338 
	C324.340179,219.398361 326.218414,215.507355 329.490143,212.648483 
	C342.050415,201.673187 359.110443,200.144180 371.027618,219.730072 
	C375.874420,227.695724 380.589661,235.744171 385.581970,243.617188 
	C387.656006,246.887970 387.241760,248.723190 383.861847,250.799423 
	C373.289276,257.293976 373.316925,257.452148 366.689697,247.232971 
	C362.796875,241.230270 359.315216,234.949860 355.223694,229.091110 
	C352.557129,225.272766 349.198944,221.329163 343.785187,222.565338 
	C337.913452,223.906067 333.675201,227.642334 332.105835,233.699234 
	C330.815735,238.678406 333.458130,242.782013 335.772461,246.763763 
	C339.786652,253.669968 343.991119,260.472504 348.330170,267.179840 
	C350.224182,270.107635 349.816315,271.643372 346.772003,273.473999 
	C335.489166,280.258698 335.454285,280.428314 328.505371,269.177521 
	C317.228394,250.919312 306.242676,232.479279 294.794586,214.330109 
	C292.167664,210.165543 293.099792,208.107605 296.895630,206.150772 
	C298.372498,205.389389 299.785095,204.503265 301.530975,203.469223 
z"/>
<path fill="#000000" opacity="1.000000" stroke="none" 
	d="
M469.616302,798.090210 
	C483.073029,796.739441 495.213776,798.678284 505.912018,806.995239 
	C518.971863,817.148132 524.132263,833.576111 519.361877,850.984924 
	C515.360413,865.587708 501.592529,876.727051 485.864838,878.419739 
	C472.209656,879.889404 459.671692,877.762207 449.161591,868.160400 
	C443.757660,863.223450 443.810638,861.800293 449.590424,857.557922 
	C450.261597,857.065186 450.962280,856.596436 451.561523,856.024658 
	C454.834473,852.901978 457.296722,852.679871 460.998749,856.342529 
	C473.891174,869.097961 495.471954,863.429932 500.918030,846.222961 
	C504.363190,835.337830 501.573730,825.180725 493.407806,818.877197 
	C485.408875,812.702576 471.921967,811.982361 463.398560,817.980225 
	C459.963928,820.397095 458.168976,820.119751 455.532959,817.213684 
	C447.425720,808.276001 447.350342,808.210205 457.959534,802.258667 
	C461.469666,800.289429 465.305176,799.167969 469.616302,798.090210 
z"/>
<path fill="#000000" opacity="1.000000" stroke="none" 
	d="
M782.244873,417.489899 
	C782.231750,420.198334 782.104309,422.524292 782.082397,424.851257 
	C782.047424,428.560730 783.820557,431.122742 787.120605,432.772369 
	C790.383484,434.403473 793.091003,433.589752 795.873291,431.478241 
	C810.445374,420.419373 825.084473,409.448792 839.722656,398.477356 
	C841.138184,397.416473 842.251038,395.754883 844.946472,395.808197 
	C846.217285,400.754150 847.688354,405.798920 848.758911,410.927338 
	C849.312195,413.577271 846.639709,414.520569 845.007019,415.722229 
	C835.901428,422.424103 826.693787,428.987274 817.532104,435.613129 
	C816.740601,436.185547 816.029297,436.868896 814.471985,438.183258 
	C821.652588,439.453156 828.026062,440.616974 834.413269,441.699524 
	C840.636414,442.754211 846.853088,443.891388 853.113037,444.664978 
	C856.318970,445.061157 857.806458,446.575714 858.354309,449.604279 
	C859.028076,453.328979 859.914856,457.015167 860.744507,460.881042 
	C858.350830,462.085388 856.070190,461.316193 853.872925,460.939972 
	C837.679688,458.167358 821.533203,455.098694 805.299377,452.594299 
	C796.268982,451.201202 787.116821,450.610199 778.869263,446.162354 
	C769.848877,441.297760 764.393005,425.269714 768.507568,415.919006 
	C769.068481,414.644135 769.672913,413.219910 771.248108,413.493561 
	C775.051086,414.154205 779.345825,413.478271 782.244873,417.489899 
z"/>
<path fill="#000000" opacity="1.000000" stroke="none" 
	d="
M696.800781,742.964417 
	C710.759888,743.766846 724.008850,755.602417 725.740295,770.036743 
	C726.912903,779.812805 724.076965,788.032166 717.722290,795.282227 
	C707.776489,806.629395 691.633240,810.878845 679.336487,805.544922 
	C667.419617,800.375793 661.187317,790.801086 660.212891,778.464966 
	C659.246582,766.232788 665.413513,756.729187 675.365784,749.850830 
	C681.634033,745.518677 688.596252,742.905579 696.800781,742.964417 
M704.661865,765.889343 
	C698.791626,759.701355 692.905212,757.748047 686.956299,760.515503 
	C681.369690,763.114441 677.467529,767.264404 677.272461,773.857239 
	C677.085938,780.162354 682.702087,788.416809 688.617188,790.776611 
	C694.653992,793.184998 701.342224,791.134521 705.922546,785.471191 
	C709.872986,780.586609 709.564148,773.458130 704.661865,765.889343 
z"/>
<path fill="#000000" opacity="1.000000" stroke="none" 
	d="
M407.183350,782.691833 
	C420.486969,783.019409 431.359772,787.631104 439.118042,798.107117 
	C446.095642,807.529053 446.221924,821.449158 439.748718,831.480530 
	C432.453186,842.786316 421.869934,847.882874 408.671295,845.904968 
	C393.934052,843.696533 383.054993,835.940308 378.692413,821.018188 
	C374.679169,807.290955 383.752472,784.941223 407.183350,782.691833 
M421.100586,826.644958 
	C423.604065,824.077515 425.099335,820.931152 426.070923,817.552856 
	C427.858154,811.338562 425.490753,804.534851 420.512726,801.199036 
	C414.620880,797.250854 408.241547,797.067444 403.298096,800.703918 
	C398.138489,804.499573 394.212067,814.226074 395.845947,819.164612 
	C399.600342,830.512451 410.630737,834.072083 421.100586,826.644958 
z"/>
<path fill="#000000" opacity="1.000000" stroke="none" 
	d="
M444.850403,199.589111 
	C447.596191,212.851944 443.565765,223.589508 433.170197,231.175461 
	C421.164856,239.936157 407.724854,242.208344 394.244141,234.709152 
	C380.458984,227.040573 372.692749,205.884445 385.200470,190.187485 
	C396.365265,176.175888 414.816742,171.900192 430.014618,179.838577 
	C437.867340,183.940353 442.092743,191.015869 444.850403,199.589111 
M420.829315,221.510513 
	C430.777252,216.445557 428.665497,200.615295 421.600372,194.689636 
	C414.242096,188.518127 401.740723,191.254684 398.368256,199.743805 
	C395.753998,206.324356 397.483307,214.790237 402.624329,219.620499 
	C407.875641,224.554352 413.801117,225.028305 420.829315,221.510513 
z"/>
<path fill="#000000" opacity="1.000000" stroke="none" 
	d="
M224.425507,604.761597 
	C222.637848,599.455383 220.688843,594.740051 216.532791,591.244263 
	C213.151199,588.400024 215.328369,585.566223 216.902878,582.819519 
	C220.531448,576.489563 221.416550,576.334351 227.123901,581.004272 
	C238.839920,590.590637 243.130142,613.440552 235.650284,626.416321 
	C225.174332,644.589600 198.825211,647.249634 185.622711,630.985229 
	C171.668823,613.795166 174.250977,592.825378 193.097229,581.901489 
	C194.805099,580.911560 196.725662,580.268433 198.585724,579.565430 
	C202.358307,578.139709 204.393234,579.461792 205.568939,583.377686 
	C208.961288,594.676575 212.653641,605.885376 216.208084,617.135864 
	C216.559555,618.248352 216.795624,619.391968 218.298782,620.396301 
	C224.068069,616.893555 225.179443,611.418335 224.425507,604.761597 
M206.564285,623.237671 
	C205.164886,614.569580 201.749969,606.589172 198.765289,598.420410 
	C193.703125,599.290161 192.638153,603.048767 191.612900,606.407166 
	C189.910400,611.983887 191.803345,616.981384 195.743958,620.939087 
	C198.516632,623.723755 201.813568,626.291687 206.564285,623.237671 
z"/>
<path fill="#000000" opacity="1.000000" stroke="none" 
	d="
M179.399994,412.665466 
	C179.078125,402.549438 181.202484,393.494873 186.053391,385.013763 
	C192.237823,374.201141 203.317200,369.790192 215.023697,373.923218 
	C225.055954,377.465118 235.011414,381.225555 245.056854,384.728699 
	C248.909607,386.072235 249.971802,388.209778 248.288696,391.944641 
	C246.408203,396.117493 246.510712,401.981293 238.855515,401.322357 
	C243.317291,410.759796 240.177322,418.917328 235.451355,426.554749 
	C230.158157,435.108795 221.346527,437.922485 213.096939,434.309235 
	C204.636948,430.603821 200.710342,421.963715 203.380310,412.247040 
	C204.919968,406.643829 207.006500,401.193207 208.688828,395.626129 
	C209.973007,391.376587 208.677200,390.023376 204.378860,390.833008 
	C200.229477,391.614532 197.655777,394.270142 196.081375,398.004791 
	C193.916794,403.139465 192.554459,408.468719 193.435181,414.065125 
	C194.001205,417.661835 192.310196,418.947632 189.139511,419.207001 
	C188.475662,419.261322 187.810425,419.301056 187.147812,419.367371 
	C180.130051,420.069550 180.130157,420.070679 179.399994,412.665466 
M218.277725,400.703033 
	C217.242508,404.174011 215.281540,407.354889 215.262650,411.150543 
	C215.249268,413.839417 215.781937,416.195160 218.445480,417.336273 
	C221.297745,418.558289 224.051773,417.993500 226.316330,415.936188 
	C230.424850,412.203491 230.869293,402.645782 227.245117,398.436646 
	C223.549622,394.144684 220.418503,394.686371 218.277725,400.703033 
z"/>
<path fill="#000000" opacity="1.000000" stroke="none" 
	d="
M562.344543,196.186737 
	C560.345276,213.848724 543.945312,224.692032 525.904846,222.630371 
	C513.254578,221.184708 504.342316,215.377106 499.039246,204.076492 
	C490.128387,185.087784 503.806213,162.249680 524.788574,160.811676 
	C539.194519,159.824371 551.163330,164.192001 558.823303,177.063187 
	C562.196106,182.730499 563.672058,189.062759 562.344543,196.186737 
M516.511169,183.187241 
	C515.840881,185.413193 514.980835,187.601700 514.532898,189.871521 
	C512.507019,200.137924 522.017029,210.194290 531.797302,208.221756 
	C538.997070,206.769638 544.056152,200.798599 544.679504,193.017349 
	C545.283508,185.477112 541.389587,179.163162 534.492065,176.498734 
	C527.523254,173.806747 522.168457,175.633835 516.511169,183.187241 
z"/>
<path fill="#000000" opacity="1.000000" stroke="none" 
	d="
M698.916870,224.066620 
	C700.423950,220.720184 703.038940,221.496094 705.129150,222.055984 
	C718.285706,225.580154 729.555176,232.002274 735.896973,244.633179 
	C740.341248,253.484756 737.819702,261.860016 732.252869,269.401062 
	C726.129761,277.695618 719.706177,285.767700 713.508789,294.008392 
	C711.540405,296.625732 709.536560,297.337585 706.854858,295.129456 
	C705.186157,293.755463 703.484009,292.415405 701.729309,291.154144 
	C699.131470,289.286774 697.287964,287.162994 699.204590,283.402039 
	C689.736450,283.277191 682.804871,278.979218 677.139343,272.500427 
	C669.566284,263.840271 670.251953,253.039108 678.606323,245.969574 
	C684.007507,241.399048 693.752258,241.421082 701.567505,246.391235 
	C706.048401,249.240952 710.170532,252.650101 714.510376,255.728149 
	C717.931091,258.154297 719.779846,257.318542 720.529236,253.130264 
	C721.189331,249.441315 719.347778,246.682220 717.035339,244.190842 
	C713.196655,240.055115 708.449280,237.125061 702.981995,236.080673 
	C697.760376,235.083206 696.976501,232.319885 698.206055,227.924332 
	C698.517883,226.809479 698.612610,225.633835 698.916870,224.066620 
M706.610718,272.280884 
	C708.458557,270.314392 712.780396,268.816986 709.367004,265.398895 
	C706.259216,262.286743 702.338562,259.873901 698.487732,257.653137 
	C695.597412,255.986328 692.124084,255.852158 690.049805,259.062500 
	C688.054810,262.150177 688.582947,265.546448 691.158875,268.208923 
	C695.208496,272.394592 699.962769,274.664581 706.610718,272.280884 
z"/>
<path fill="#000000" opacity="1.000000" stroke="none" 
	d="
M199.351837,526.790771 
	C182.024704,528.654175 170.851105,522.986145 165.011475,508.552002 
	C160.170532,496.586334 161.163406,479.193848 172.543198,469.918915 
	C177.267471,466.068481 178.734161,466.145416 181.649857,471.447815 
	C182.608658,473.191467 183.236588,475.118500 184.211960,476.851288 
	C185.522736,479.179932 184.855942,480.637421 182.919907,482.382294 
	C175.797729,488.801178 175.161423,497.695404 181.077026,504.511139 
	C186.084167,510.280151 197.519592,511.140167 203.993912,506.234650 
	C210.487869,501.314270 211.864792,490.176208 206.108841,484.487671 
	C202.925797,481.341827 202.426956,478.922668 205.341553,475.706299 
	C205.450424,475.586151 205.505402,475.417633 205.588120,475.273193 
	C210.588638,466.540466 213.234528,466.516022 219.168335,475.147369 
	C230.094528,491.040649 224.465820,515.321472 207.844254,524.237732 
	C205.288498,525.608765 202.593796,526.280029 199.351837,526.790771 
z"/>
<path fill="#000000" opacity="1.000000" stroke="none" 
	d="
M709.274902,723.320435 
	C713.748718,718.452087 718.286438,714.366638 724.935303,713.742859 
	C731.111450,713.163513 736.428284,714.915527 740.849731,719.345032 
	C745.909119,724.413696 751.071777,729.380188 756.085815,734.492920 
	C758.123352,736.570496 760.024475,737.643982 762.357910,735.068604 
	C765.231018,731.897705 767.710938,732.882202 770.399841,735.495728 
	C775.443542,740.397888 775.645447,740.416199 771.559448,745.925903 
	C769.752686,748.362183 771.352112,749.545898 772.636169,750.999695 
	C779.297180,758.540833 779.305664,758.533264 772.243286,765.586792 
	C767.105896,770.717773 767.105957,770.717834 761.785706,765.386108 
	C756.898193,760.487915 756.898132,760.487976 752.004150,765.346680 
	C746.898865,770.415344 740.269897,768.864685 737.670105,762.043579 
	C736.951843,760.159180 738.208069,759.218567 739.289429,758.257263 
	C741.879761,755.954834 744.559998,753.753784 746.980835,751.700867 
	C740.187805,744.640442 734.665283,738.426453 728.606873,732.788330 
	C725.184204,729.603088 721.400940,730.691101 718.366943,734.711731 
	C714.986633,739.191284 711.122620,739.556274 706.193237,735.501221 
	C702.281555,732.283203 705.047119,729.285889 706.948242,726.389099 
	C707.586365,725.416870 708.337341,724.518616 709.274902,723.320435 
z"/>
<path fill="#000000" opacity="1.000000" stroke="none" 
	d="
M459.832764,151.691376 
	C467.557678,150.806656 467.557678,150.806656 468.592834,158.024323 
	C469.611633,165.128098 469.602203,165.057129 476.722351,164.110931 
	C479.274567,163.771774 482.460632,162.611023 484.120728,165.325821 
	C485.967712,168.346359 485.468414,172.132477 485.282135,175.541550 
	C485.180145,177.408234 482.702515,177.176605 481.083679,177.389587 
	C470.696655,178.756119 470.717102,178.752670 472.481293,188.986115 
	C473.186310,193.075790 473.842743,197.176086 474.408325,201.287079 
	C475.378967,208.342178 479.127350,210.776627 485.950348,208.682755 
	C490.131439,207.399643 491.975739,208.983139 494.448608,215.360565 
	C495.931183,219.184143 493.558594,220.564789 490.832947,221.724625 
	C479.804169,226.417664 468.824646,224.923050 462.478210,218.234787 
	C458.660492,214.211426 457.826050,209.119827 456.807739,204.093323 
	C455.651855,198.387909 454.962219,192.604996 454.738892,186.771927 
	C454.601257,183.177444 453.745758,180.323166 449.046448,181.868881 
	C446.689758,182.644073 445.169220,181.642380 444.585876,179.254562 
	C444.112885,177.318634 443.720245,175.362732 443.229248,173.431625 
	C442.447052,170.355347 443.577606,168.459305 446.742493,168.245728 
	C451.291077,167.938782 451.933624,165.615402 451.321686,161.529495 
	C450.076935,153.218689 450.518433,152.919281 459.832764,151.691376 
z"/>
<path fill="#000000" opacity="1.000000" stroke="none" 
	d="
M253.115845,356.796051 
	C264.262726,363.058228 263.920044,362.873779 258.004608,373.864563 
	C254.921341,379.593231 251.779114,376.622589 248.733215,374.955353 
	C231.208740,365.363007 213.786438,355.584076 196.327164,345.872589 
	C192.981689,344.011688 189.706680,341.997986 186.251144,340.368744 
	C182.979431,338.826202 182.567291,336.867706 184.577271,334.085541 
	C184.869797,333.680664 185.148071,333.263062 185.401901,332.833008 
	C191.534424,322.443176 191.503815,322.496063 202.142944,328.450043 
	C219.000626,337.884094 235.902832,347.238617 253.115845,356.796051 
z"/>
<path fill="#000000" opacity="1.000000" stroke="none" 
	d="
M640.350098,815.901245 
	C642.468811,808.264465 638.691162,802.201050 636.248413,795.924255 
	C634.261597,790.819214 631.879333,785.858826 629.484192,780.925659 
	C628.070190,778.013367 628.576904,776.296265 631.730713,775.197815 
	C634.395630,774.269592 636.975891,773.061401 639.514038,771.815063 
	C643.071899,770.067871 645.086548,771.475952 646.529114,774.774658 
	C653.062439,789.713257 659.646667,804.629639 666.227783,819.547363 
	C667.930420,823.406799 667.522278,826.298218 662.932190,827.641296 
	C661.514648,828.056030 660.242065,828.949097 658.878723,829.569702 
	C655.365540,831.168823 652.072937,831.784180 650.081360,826.508606 
	C647.165039,831.891907 643.806580,835.867737 639.182129,838.689941 
	C635.854309,840.720886 633.570679,840.057007 632.091919,836.463013 
	C631.080811,834.005493 630.065613,831.548706 628.994080,829.117249 
	C627.898499,826.631287 629.132507,825.420349 631.278442,824.538696 
	C635.267395,822.899963 638.476990,820.381714 640.350098,815.901245 
z"/>
<path fill="#000000" opacity="1.000000" stroke="none" 
	d="
M643.771179,221.792145 
	C648.208252,212.999695 652.615906,204.602692 656.782898,196.087906 
	C658.111145,193.373718 659.524536,192.635361 662.190979,194.198044 
	C664.340637,195.457870 666.619019,196.506271 668.875977,197.572800 
	C672.073181,199.083557 674.421692,200.940872 671.526794,205.622803 
	C675.530457,205.622803 678.762207,205.486038 681.974976,205.673431 
	C683.942139,205.788177 685.941040,206.214890 687.818237,206.829575 
	C691.191223,207.934006 693.121948,209.777390 690.340149,213.382004 
	C689.842896,214.026276 689.578674,214.853897 689.226562,215.606064 
	C685.709351,223.118469 685.710510,223.119003 678.269653,220.244858 
	C671.660706,217.692062 664.993591,220.242996 661.025452,227.323776 
	C657.286621,233.995300 653.839355,240.839462 650.495300,247.720184 
	C647.291382,254.312378 647.302673,254.393951 640.625122,251.235458 
	C628.612000,245.553085 630.902100,246.832687 636.071777,236.771027 
	C638.581360,231.886475 641.121948,227.017822 643.771179,221.792145 
z"/>
<path fill="#000000" opacity="1.000000" stroke="none" 
	d="
M209.308014,550.250122 
	C213.345200,549.599426 217.008362,549.289001 220.557526,548.479187 
	C224.577698,547.561829 225.713150,549.300720 226.421387,552.960693 
	C228.909286,565.817505 228.689499,565.946350 215.553604,567.440735 
	C202.208542,568.958984 188.917252,570.984924 175.634079,572.997559 
	C169.069809,573.992065 168.245041,573.610840 167.194489,567.107666 
	C165.966278,559.504700 166.162369,558.875977 170.850830,555.496582 
	C170.984863,553.582336 169.412704,552.640015 168.373993,551.439087 
	C165.930359,548.614014 164.157166,545.468689 163.404510,541.793396 
	C163.206482,540.826233 162.769409,539.700806 163.067322,538.873047 
	C165.030945,533.416992 170.201309,536.184753 173.820969,534.959839 
	C176.096191,534.189941 178.278809,534.796753 179.132080,537.877075 
	C182.629501,550.502686 187.009369,553.265442 199.984879,551.434998 
	C202.942383,551.017822 205.916946,550.721741 209.308014,550.250122 
z"/>
<path fill="#000000" opacity="1.000000" stroke="none" 
	d="
M785.483887,711.483521 
	C795.033142,718.780884 795.033142,718.780884 788.022522,727.925171 
	C784.082947,733.063782 783.827942,733.080994 778.633362,729.042236 
	C765.747681,719.023926 752.894958,708.962219 739.924316,699.055115 
	C737.059753,696.867126 736.507263,695.103699 738.973755,692.172180 
	C749.126526,680.105225 745.240906,680.665588 757.147766,689.544434 
	C766.626404,696.612549 775.850708,704.021729 785.483887,711.483521 
z"/>
<path fill="#000000" opacity="1.000000" stroke="none" 
	d="
M180.892242,436.818237 
	C195.653854,439.798340 209.966354,442.850677 224.349777,445.520966 
	C228.485977,446.288818 229.884537,447.697723 229.322464,452.082672 
	C227.859955,463.492096 227.983200,464.042175 216.715652,462.181519 
	C201.489853,459.667267 186.420120,456.214661 171.266495,453.251312 
	C168.202103,452.652008 167.400345,451.091797 168.363083,448.278290 
	C168.793289,447.021118 169.135269,445.729309 169.443924,444.435699 
	C171.622162,435.306702 171.616058,435.305237 180.892242,436.818237 
z"/>
<path fill="#000000" opacity="1.000000" stroke="none" 
	d="
M571.222290,816.133545 
	C562.586853,814.998413 559.172852,805.739258 561.991455,800.854980 
	C564.857849,795.887695 569.671204,793.176575 574.748047,794.247498 
	C579.539734,795.258301 583.202087,799.924500 583.299316,805.142761 
	C583.397156,810.391663 580.493591,813.913025 574.547241,815.670044 
	C573.605347,815.948364 572.599487,816.009766 571.222290,816.133545 
z"/>
<path fill="#000000" opacity="1.000000" stroke="none" 
	d="
M818.124146,502.653625 
	C823.073853,505.937561 824.228760,510.432190 823.064575,515.487366 
	C822.247009,519.037170 819.963684,521.662048 816.236084,522.707397 
	C810.894470,524.205383 806.547241,522.685059 803.660767,518.279663 
	C800.726440,513.801270 800.953613,508.787445 804.263550,504.978027 
	C807.512451,501.238922 812.594543,500.292175 818.124146,502.653625 
z"/>
<path fill="#000000" opacity="1.000000" stroke="none" 
	d="
M160.256104,434.255890 
	C161.773987,437.296661 161.525146,440.168549 161.172775,442.942139 
	C160.551193,447.834686 155.673859,451.933563 151.169983,451.651733 
	C146.535416,451.361694 142.160553,446.962799 141.747498,442.177429 
	C141.313904,437.153992 144.031067,431.843933 148.235352,430.289124 
	C152.958389,428.542480 157.054977,429.626556 160.256104,434.255890 
z"/>
<path fill="#000000" opacity="1.000000" stroke="none" 
	d="
M814.080566,734.383667 
	C814.498108,739.810730 812.131775,743.592285 808.086914,746.011108 
	C804.663025,748.058533 800.616516,748.232849 797.200012,745.846924 
	C793.764221,743.447571 792.660767,739.850647 793.680298,735.701538 
	C794.745361,731.367004 797.031006,728.055664 801.586304,726.996338 
	C807.721863,725.569275 811.313599,727.666199 814.080566,734.383667 
z"/>
</svg>